<svg width="40" height="40" viewBox="0 0 40 40" fill="none" xmlns="http://www.w3.org/2000/svg">
<path d="M12.5002 12.5003C18.3335 10.8337 21.6669 10.8337 27.5002 12.5003M11.6669 27.5003C17.5002 29.167 22.5002 29.167 28.3335 27.5003M25.8335 28.3337C25.8335 30.0003 28.3335 33.3337 29.1669 33.3337C31.6669 33.3337 33.8885 30.5553 35.0002 28.3337C36.1119 25.5553 35.8335 18.612 32.5002 9.16699C30.0719 7.47533 27.5002 6.93366 25.0002 6.66699L23.3335 10.8337M14.1669 28.3337C14.1669 30.0003 11.9069 33.3337 11.1135 33.3337C8.73185 33.3337 6.61685 30.5553 5.55852 28.3337C4.50019 25.5553 4.76519 18.612 7.93852 9.16699C10.2519 7.47533 12.5752 6.93366 15.0002 6.66699L16.6669 10.8337M16.6669 20.0003C16.6669 20.9208 15.9207 21.667 15.0002 21.667C14.0797 21.667 13.3335 20.9208 13.3335 20.0003C13.3335 19.0798 14.0797 18.3337 15.0002 18.3337C15.9207 18.3337 16.6669 19.0798 16.6669 20.0003ZM26.6669 20.0003C26.6669 20.9208 25.9207 21.667 25.0002 21.667C24.0797 21.667 23.3335 20.9208 23.3335 20.0003C23.3335 19.0798 24.0797 18.3337 25.0002 18.3337C25.9207 18.3337 26.6669 19.0798 26.6669 20.0003Z" stroke="white" stroke-width="2" stroke-linecap="round" stroke-linejoin="round"/>
</svg>
