<svg width="40" height="40" viewBox="0 0 40 40" fill="none" xmlns="http://www.w3.org/2000/svg">
<path d="M15 16.6665C15 16.8875 15.0878 17.0995 15.2441 17.2558C15.4004 17.412 15.6123 17.4998 15.8333 17.4998C16.0543 17.4998 16.2663 17.412 16.4226 17.2558C16.5789 17.0995 16.6667 16.8875 16.6667 16.6665V14.9998C16.6667 14.7788 16.5789 14.5669 16.4226 14.4106C16.2663 14.2543 16.0543 14.1665 15.8333 14.1665C15.6123 14.1665 15.4004 14.2543 15.2441 14.4106C15.0878 14.5669 15 14.7788 15 14.9998V16.6665ZM15 16.6665C15 18.8766 15.878 20.9963 17.4408 22.5591C19.0036 24.1219 21.1232 24.9998 23.3333 24.9998M23.3333 24.9998H25C25.221 24.9998 25.433 24.912 25.5893 24.7558C25.7455 24.5995 25.8333 24.3875 25.8333 24.1665C25.8333 23.9455 25.7455 23.7335 25.5893 23.5772C25.433 23.421 25.221 23.3332 25 23.3332H23.3333C23.1123 23.3332 22.9004 23.421 22.7441 23.5772C22.5878 23.7335 22.5 23.9455 22.5 24.1665C22.5 24.3875 22.5878 24.5995 22.7441 24.7558C22.9004 24.912 23.1123 24.9998 23.3333 24.9998ZM5 35.0002L7.75 28.6669C5.6461 25.6803 4.70445 22.0286 5.10174 18.397C5.49904 14.7655 7.20798 11.4038 9.90785 8.94273C12.6077 6.4817 16.1129 5.09055 19.7656 5.03036C23.4184 4.97017 26.9675 6.24507 29.747 8.61581C32.5265 10.9866 34.3452 14.2902 34.862 17.9066C35.3787 21.5231 34.5579 25.2039 32.5535 28.2581C30.5492 31.3124 27.4991 33.5302 23.9757 34.4954C20.4522 35.4605 16.6977 35.1067 13.4167 33.5002L5 35.0002Z" stroke="white" stroke-width="2" stroke-linecap="round" stroke-linejoin="round"/>
</svg>
