<svg width="372" height="372" viewBox="0 0 372 372" fill="none" xmlns="http://www.w3.org/2000/svg">
<rect width="2.37544" height="2.37544" transform="matrix(0.986582 -0.163268 0.163288 0.986578 301.775 164.969)" fill="#00FFF0" fill-opacity="0.6"/>
<rect width="2.95484" height="2.95484" transform="matrix(-0.98658 0.163278 0.163278 0.98658 304.936 50.3293)" fill="#00FFF0"/>
<rect x="359.746" y="97.6331" width="3.14421" height="3.14421" transform="rotate(-9.39723 359.746 97.6331)" fill="#00FFF0"/>
<rect width="3.14421" height="3.14421" transform="matrix(0.986579 -0.163286 0.163271 0.986581 295.48 350.398)" fill="#00FFF0" fill-opacity="0.5"/>
<rect x="239.373" y="280.043" width="1.72363" height="1.72363" transform="rotate(-9.39723 239.373 280.043)" fill="#00FFF0" fill-opacity="0.5"/>
<rect width="2.37544" height="2.37544" transform="matrix(0.986582 -0.163268 0.163288 0.986578 69.7754 157.969)" fill="#00FFF0" fill-opacity="0.6"/>
<rect width="2.95484" height="2.95484" transform="matrix(-0.98658 0.163278 0.163278 0.98658 72.9355 43.3293)" fill="#00FFF0"/>
<rect x="127.746" y="90.6331" width="3.14421" height="3.14421" transform="rotate(-9.39723 127.746 90.6331)" fill="#00FFF0"/>
<rect width="3.14421" height="3.14421" transform="matrix(0.986579 -0.163286 0.163271 0.986581 63.4805 343.398)" fill="#00FFF0" fill-opacity="0.5"/>
<rect x="7.37305" y="273.043" width="1.72363" height="1.72363" transform="rotate(-9.39723 7.37305 273.043)" fill="#00FFF0" fill-opacity="0.5"/>
<circle cx="186" cy="186" r="186" fill="url(#paint0_radial_800_168)" fill-opacity="0.6"/>
<path d="M131.299 181.109H143.205V182.359H132.674V190.672H142.314V191.922H132.674V200.75H143.814V202H131.299V181.109ZM157.993 181.109C159.295 181.109 160.311 181.161 161.04 181.266C164.425 181.922 166.118 183.714 166.118 186.641C166.118 188.349 165.561 189.755 164.446 190.859C163.332 191.964 161.863 192.563 160.04 192.656V192.719L167.337 202H165.649L158.352 192.813H154.79V202H153.415V181.109H157.993ZM164.681 186.609C164.681 185.047 164.087 183.948 162.899 183.313C161.712 182.677 160.024 182.359 157.837 182.359H154.79V191.563H157.899C160.17 191.563 161.868 191.177 162.993 190.406C164.118 189.635 164.681 188.37 164.681 186.609ZM180.859 181.109C182.161 181.109 183.177 181.161 183.906 181.266C187.292 181.922 188.984 183.714 188.984 186.641C188.984 188.349 188.427 189.755 187.312 190.859C186.198 191.964 184.729 192.563 182.906 192.656V192.719L190.203 202H188.516L181.219 192.813H177.656V202H176.281V181.109H180.859ZM187.547 186.609C187.547 185.047 186.953 183.948 185.766 183.313C184.578 182.677 182.891 182.359 180.703 182.359H177.656V191.563H180.766C183.036 191.563 184.734 191.177 185.859 190.406C186.984 189.635 187.547 188.37 187.547 186.609ZM198.507 191.563C198.507 189.49 198.908 187.625 199.71 185.969C200.522 184.313 201.647 183.021 203.085 182.094C204.522 181.156 206.153 180.688 207.976 180.688C209.882 180.688 211.549 181.156 212.976 182.094C214.413 183.021 215.517 184.307 216.288 185.953C217.069 187.599 217.46 189.469 217.46 191.563C217.46 193.625 217.059 195.479 216.257 197.125C215.455 198.771 214.335 200.063 212.897 201C211.47 201.927 209.856 202.391 208.054 202.391C206.127 202.391 204.439 201.927 202.991 201C201.554 200.073 200.444 198.792 199.663 197.156C198.892 195.51 198.507 193.646 198.507 191.563ZM215.976 191.563C215.976 189.563 215.621 187.839 214.913 186.391C214.205 184.932 213.241 183.828 212.022 183.078C210.814 182.318 209.465 181.938 207.976 181.938C206.507 181.938 205.163 182.318 203.944 183.078C202.726 183.828 201.757 184.932 201.038 186.391C200.33 187.839 199.976 189.563 199.976 191.563C199.976 193.583 200.335 195.318 201.054 196.766C201.772 198.203 202.741 199.292 203.96 200.031C205.189 200.771 206.554 201.141 208.054 201.141C209.522 201.141 210.856 200.771 212.054 200.031C213.252 199.292 214.205 198.203 214.913 196.766C215.621 195.318 215.976 193.583 215.976 191.563ZM231.936 181.109C233.238 181.109 234.253 181.161 234.982 181.266C238.368 181.922 240.061 183.714 240.061 186.641C240.061 188.349 239.503 189.755 238.389 190.859C237.274 191.964 235.805 192.563 233.982 192.656V192.719L241.279 202H239.592L232.295 192.813H228.732V202H227.357V181.109H231.936ZM238.623 186.609C238.623 185.047 238.029 183.948 236.842 183.313C235.654 182.677 233.967 182.359 231.779 182.359H228.732V191.563H231.842C234.113 191.563 235.811 191.177 236.936 190.406C238.061 189.635 238.623 188.37 238.623 186.609Z" fill="white"/>
<defs>
<radialGradient id="paint0_radial_800_168" cx="0" cy="0" r="1" gradientUnits="userSpaceOnUse" gradientTransform="translate(186 186) rotate(90) scale(186)">
<stop stop-color="#FF65C1"/>
<stop offset="1" stop-color="#FF65C1" stop-opacity="0"/>
</radialGradient>
</defs>
</svg>
