<svg width="454" height="419" viewBox="0 0 454 419" fill="none" xmlns="http://www.w3.org/2000/svg">
<ellipse cx="227" cy="214.383" rx="227" ry="204.383" fill="url(#paint0_radial_39_217)" fill-opacity="0.4"/>
<circle cx="218.839" cy="190.124" r="108.624" fill="url(#paint1_linear_39_217)" stroke="url(#paint2_linear_39_217)"/>
<path fill-rule="evenodd" clip-rule="evenodd" d="M218.784 119.705L217.561 119L216.325 119.684L157.3 152.344L156 153.063L156.01 154.548L156.473 223.715L156.483 225.135L157.708 225.854L187.36 243.257L189.891 238.945L161.464 222.261L161.02 156L217.511 124.742L224.678 128.873L225.043 228.891L225.059 233.172L228.78 231.055L258.061 214.392L259.325 213.673V212.22V189.262V186.73L259.32 186.73V186.688V186.632V186.576V186.52V186.464V186.407V186.351V186.294V186.238V186.181V186.124V186.067V186.01V185.953V185.896V185.839V185.781V185.724V185.666V185.609V185.551V185.493V185.435V185.378V185.32V185.261V185.203V185.145V185.087V185.028V184.97V184.911V184.853V184.794V184.735V184.676V184.617V184.558V184.499V184.44V184.381V184.322V184.262V184.203V184.144V184.084V184.025V183.965V183.906V183.846V183.786V183.726V183.666V183.607V183.547V183.487V183.427V183.366V183.306V183.246V183.186V183.126V183.065V183.005V182.945V182.884V182.824V182.763V182.703V182.642V182.582V182.521V182.46V182.4V182.339V182.278V182.218V182.157V182.096V182.035V181.974V181.913V181.853V181.792V181.731V181.67V181.609V181.548V181.487V181.426V181.365V181.304V181.243V181.182V181.121V181.06V180.999V180.938V180.877V180.815V180.754V180.693V180.632V180.571V180.51V180.449V180.388V180.327V180.266V180.205V180.144V180.083V180.022V179.961V179.9V179.839V179.778V179.717V179.656V179.595V179.535V179.474V179.413V179.352V179.291V179.231V179.17V179.109V179.049V178.988V178.927V178.867V178.806V178.746V178.685V178.625V178.564V178.504V178.444V178.383V178.323V178.263V178.203V178.143V178.083V178.023V177.963V177.903V177.843V177.783V177.723V177.663V177.604V177.544V177.485V177.425V177.366V177.306V177.247V177.188V177.128V177.069V177.01V176.951V176.892V176.833V176.775V176.716V176.657V176.599V176.54V176.482V176.423V176.365V176.307V176.249V176.19V176.132V176.075V176.017V175.959V175.901V175.844V175.786V175.729V175.671V175.614V175.557V175.5V175.443V175.386V175.329V175.273V175.216V175.16V175.103V175.047V174.991V174.935V174.879V174.823V174.767V174.711V174.656V174.6V174.545V174.49V174.435V174.38V174.325V174.27V174.215V174.161V174.106V174.052V173.998V173.944V173.89V173.836V173.782V173.729V173.675V173.622V173.568V173.515V173.462V173.41V173.357V173.304V173.252V173.2V173.147V173.095V173.044V172.992V172.94V172.889V172.837V172.786V172.735V172.684V172.634V172.583V172.533V172.482V172.432V172.382V172.332V172.283V172.233V172.184V172.134V172.085V172.036V171.988V171.939V171.891V171.842V171.794V171.746V171.699V171.651V171.604V171.556V171.509V171.462V171.416V171.369V171.323V171.276V171.23V171.184V171.139V171.093V171.048V171.003V170.958V170.913V170.868V170.824V170.78V170.736V170.692V170.648V170.605V170.561V170.518V170.475V170.433V170.39V170.348V170.306V170.264V170.222V170.181V170.139V170.098V170.057V170.017V169.976V169.936V169.896V169.856V169.816V169.777V169.738V169.699V169.66V169.621V169.583V169.545V169.507V169.469V169.432V169.394V169.357V169.321V169.284V169.248V169.211V169.176V169.14V169.104V169.069V169.034V169V168.965V168.931V168.897V168.863V168.829V168.796V168.763V168.73V168.698V168.665V168.633V168.601V168.57V168.538V168.507V168.476V168.446V168.415V168.385V168.355V168.326V168.296V168.267V168.239V168.21V168.182V168.154V168.126V168.098V168.071V168.044V168.017V167.991V167.965V167.939V167.913V167.888V167.863V167.838V167.813V167.789V167.765V167.741V167.718V167.695V167.672V167.649V167.627V167.605V167.583V167.562V167.541V167.52V167.499V167.479V167.459V167.439V167.42V167.401V167.382V167.364V167.345V167.327V167.31V167.292V167.275V167.259V167.242V167.226V167.21V167.195V167.18V167.165V167.15V167.136V167.122V167.109V167.095V167.082V167.07V167.057V167.045V167.034V167.022V167.011V167V166.99V166.98V166.97V166.961V166.952V166.943V166.934V166.926V166.918V166.911V166.904V166.897V166.891V166.885V166.879V166.873V166.868V166.864V166.859V166.855V166.851V166.848V166.845V166.842V166.84V166.838V166.836V166.835V166.834C259.32 166.004 258.903 165.446 258.847 165.371L258.843 165.365C258.723 165.2 258.61 165.087 258.563 165.041C258.459 164.939 258.368 164.868 258.338 164.845C258.262 164.786 258.193 164.739 258.161 164.718C258.086 164.667 257.999 164.612 257.919 164.561C257.75 164.456 257.516 164.314 257.231 164.143C256.658 163.8 255.835 163.313 254.824 162.72C252.801 161.534 250.005 159.907 246.907 158.112C241.255 154.839 234.586 150.999 229.749 148.238L229.673 127.416L229.667 125.978L228.421 125.259L218.784 119.705ZM229.77 154.01L229.891 187.103L254.32 186.794V186.744V186.688V186.632V186.576V186.52V186.464V186.407V186.351V186.294V186.238V186.181V186.124V186.067V186.01V185.953V185.896V185.839V185.781V185.724V185.666V185.609V185.551V185.493V185.435V185.378V185.32V185.261V185.203V185.145V185.087V185.028V184.97V184.911V184.853V184.794V184.735V184.676V184.617V184.558V184.499V184.44V184.381V184.322V184.262V184.203V184.144V184.084V184.025V183.965V183.906V183.846V183.786V183.726V183.666V183.607V183.547V183.487V183.427V183.366V183.306V183.246V183.186V183.126V183.065V183.005V182.945V182.884V182.824V182.763V182.703V182.642V182.582V182.521V182.46V182.4V182.339V182.278V182.218V182.157V182.096V182.035V181.974V181.913V181.853V181.792V181.731V181.67V181.609V181.548V181.487V181.426V181.365V181.304V181.243V181.182V181.121V181.06V180.999V180.938V180.877V180.815V180.754V180.693V180.632V180.571V180.51V180.449V180.388V180.327V180.266V180.205V180.144V180.083V180.022V179.961V179.9V179.839V179.778V179.717V179.656V179.595V179.535V179.474V179.413V179.352V179.291V179.231V179.17V179.109V179.049V178.988V178.927V178.867V178.806V178.746V178.685V178.625V178.564V178.504V178.444V178.383V178.323V178.263V178.203V178.143V178.083V178.023V177.963V177.903V177.843V177.783V177.723V177.663V177.604V177.544V177.485V177.425V177.366V177.306V177.247V177.188V177.128V177.069V177.01V176.951V176.892V176.833V176.775V176.716V176.657V176.599V176.54V176.482V176.423V176.365V176.307V176.249V176.19V176.132V176.075V176.017V175.959V175.901V175.844V175.786V175.729V175.671V175.614V175.557V175.5V175.443V175.386V175.329V175.273V175.216V175.16V175.103V175.047V174.991V174.935V174.879V174.823V174.767V174.711V174.656V174.6V174.545V174.49V174.435V174.38V174.325V174.27V174.215V174.161V174.106V174.052V173.998V173.944V173.89V173.836V173.782V173.729V173.675V173.622V173.568V173.515V173.462V173.41V173.357V173.304V173.252V173.2V173.147V173.095V173.044V172.992V172.94V172.889V172.837V172.786V172.735V172.684V172.634V172.583V172.533V172.482V172.432V172.382V172.332V172.283V172.233V172.184V172.134V172.085V172.036V171.988V171.939V171.891V171.842V171.794V171.746V171.699V171.651V171.604V171.556V171.509V171.462V171.416V171.369V171.323V171.276V171.23V171.184V171.139V171.093V171.048V171.003V170.958V170.913V170.868V170.824V170.78V170.736V170.692V170.648V170.605V170.561V170.518V170.475V170.433V170.39V170.348V170.306V170.264V170.222V170.181V170.139V170.098V170.057V170.017V169.976V169.936V169.896V169.856V169.816V169.777V169.738V169.699V169.66V169.621V169.583V169.545V169.507V169.469V169.432V169.394V169.357V169.321V169.284V169.248V169.211V169.176V169.14V169.104V169.069V169.034V169V168.965V168.931V168.897V168.863V168.829V168.796V168.763V168.73V168.698V168.665V168.633V168.601V168.57V168.538V168.507V168.476V168.446V168.415V168.385V168.355V168.326V168.296V168.267V168.239V168.228C253.795 167.916 253.11 167.512 252.294 167.033C250.283 165.853 247.496 164.232 244.401 162.439C239.677 159.702 234.244 156.572 229.77 154.01ZM230.028 224.592L229.909 192.103L254.325 191.794V210.766L230.028 224.592ZM273.605 157.017L245.2 140.7L247.69 136.365L277.342 153.398L278.589 154.114L278.597 155.552L278.967 222.943L278.975 224.387L277.729 225.115L218.796 259.551L217.502 260.307L216.225 259.522L206.588 253.598L205.397 252.866V251.468V230.706C200.455 227.894 193.731 224.025 188.067 220.749C184.984 218.966 182.213 217.356 180.21 216.187C179.21 215.602 178.398 215.126 177.834 214.791C177.553 214.625 177.326 214.489 177.166 214.391C177.089 214.344 177.012 214.296 176.947 214.255C176.92 214.237 176.866 214.202 176.808 214.161C176.786 214.145 176.714 214.093 176.63 214.022C176.595 213.992 176.492 213.904 176.378 213.776C176.318 213.706 176.177 213.518 176.1 213.397C175.987 213.185 175.783 212.545 175.746 212.113V212.113V212.111V212.106L175.746 212.087L175.746 212.017L175.745 211.748L175.745 210.728L175.745 206.998L175.743 194.693C175.741 185.065 175.74 173.558 175.74 166.002V164.526L177.032 163.813L206.69 147.452L210.397 145.407V149.641V250.07L217.567 254.478L273.96 221.526L273.605 157.017ZM205.397 224.95V153.875L180.74 167.478C180.74 175.002 180.741 185.671 180.743 194.692C180.744 201.892 180.745 208.042 180.745 210.704C181.263 211.01 181.935 211.404 182.732 211.869C184.726 213.034 187.491 214.639 190.57 216.421C195.331 219.174 200.836 222.344 205.397 224.95Z" fill="url(#paint3_linear_39_217)"/>
<g filter="url(#filter0_d_39_217)">
<path d="M356.872 218.841C352.45 241.421 332.781 258.892 304.36 268.816C275.951 278.736 238.897 281.073 199.939 273.444C160.981 265.815 127.546 249.674 104.978 229.772C82.3986 209.86 70.7721 186.261 75.1938 163.681C79.6155 141.102 99.2846 123.631 127.706 113.706C156.114 103.787 193.169 101.45 232.127 109.079C271.084 116.708 304.52 132.848 327.088 152.751C349.667 172.663 361.294 196.262 356.872 218.841Z" stroke="url(#paint4_linear_39_217)" stroke-opacity="0.6" stroke-width="1.03515" shape-rendering="crispEdges"/>
</g>
<rect x="264.111" y="361.327" width="1.35219" height="1.35219" transform="rotate(134.371 264.111 361.327)" fill="#00F0FF"/>
<rect width="1.77579" height="1.77579" transform="matrix(0.699297 -0.714831 -0.714831 -0.699297 43.5088 209.541)" fill="#00F0FF"/>
<rect x="203.985" y="357.311" width="2.04503" height="2.04503" transform="rotate(134.371 203.985 357.311)" fill="#00F0FF"/>
<rect x="218.587" y="330.677" width="1.21199" height="1.21199" transform="rotate(134.371 218.587 330.677)" fill="#00F0FF"/>
<rect x="338.782" y="178.747" width="3.27936" height="3.27936" transform="rotate(134.371 338.782 178.747)" fill="#00F0FF"/>
<rect x="449.159" y="195.003" width="3.27936" height="3.27936" transform="rotate(134.371 449.159 195.003)" fill="#0500FF" fill-opacity="0.5"/>
<rect x="404.891" y="289.299" width="2.29194" height="2.29194" transform="rotate(134.371 404.891 289.299)" fill="#3DFFFB"/>
<rect x="292.351" y="4.71313" width="4.26245" height="4.26245" transform="rotate(134.371 292.351 4.71313)" fill="#0500FF" fill-opacity="0.5"/>
<rect x="233.702" y="11.3926" width="1.35219" height="1.35219" transform="rotate(-44.8662 233.702 11.3926)" fill="#00F0FF"/>
<rect width="1.77579" height="1.77579" transform="matrix(-0.708757 0.705453 0.705453 0.708757 452.264 166.103)" fill="#00F0FF"/>
<rect x="293.77" y="16.2084" width="2.04503" height="2.04503" transform="rotate(-44.8662 293.77 16.2084)" fill="#00F0FF"/>
<rect x="278.814" y="42.6453" width="1.21199" height="1.21199" transform="rotate(-44.8662 278.814 42.6453)" fill="#00F0FF"/>
<rect x="156.606" y="192.961" width="3.27936" height="3.27936" transform="rotate(-44.8662 156.606 192.961)" fill="#00F0FF"/>
<rect x="46.4551" y="175.236" width="3.27936" height="3.27936" transform="rotate(-44.8662 46.4551 175.236)" fill="#0500FF" fill-opacity="0.5"/>
<rect x="91.9756" y="81.539" width="2.29194" height="2.29194" transform="rotate(-44.8662 91.9756 81.539)" fill="#3DFFFB"/>
<rect x="200.715" y="367.598" width="4.26245" height="4.26245" transform="rotate(-44.8662 200.715 367.598)" fill="#0500FF" fill-opacity="0.5"/>
<path d="M174.122 344.698C134.419 350.383 103.387 339.983 85.2218 318.716C67.0565 297.45 61.6353 265.174 73.4572 226.847C85.28 188.517 112.093 151.475 145.913 122.588C179.732 93.6998 220.51 73.0072 260.217 67.3218C299.921 61.6369 330.952 72.0371 349.117 93.3036C367.283 114.57 372.704 146.846 360.882 185.173C349.059 223.503 322.246 260.545 288.427 289.432C254.607 318.32 213.829 339.013 174.122 344.698Z" stroke="url(#paint5_linear_39_217)" stroke-width="1.20396"/>
<defs>
<filter id="filter0_d_39_217" x="67.0195" y="97.3087" width="300.097" height="189.975" filterUnits="userSpaceOnUse" color-interpolation-filters="sRGB">
<feFlood flood-opacity="0" result="BackgroundImageFix"/>
<feColorMatrix in="SourceAlpha" type="matrix" values="0 0 0 0 0 0 0 0 0 0 0 0 0 0 0 0 0 0 127 0" result="hardAlpha"/>
<feOffset dx="1.03515" dy="1.03515"/>
<feGaussianBlur stdDeviation="3.88183"/>
<feComposite in2="hardAlpha" operator="out"/>
<feColorMatrix type="matrix" values="0 0 0 0 0.440043 0 0 0 0 0.20092 0 0 0 0 0.679167 0 0 0 0.2 0"/>
<feBlend mode="normal" in2="BackgroundImageFix" result="effect1_dropShadow_39_217"/>
<feBlend mode="normal" in="SourceGraphic" in2="effect1_dropShadow_39_217" result="shape"/>
</filter>
<radialGradient id="paint0_radial_39_217" cx="0" cy="0" r="1" gradientUnits="userSpaceOnUse" gradientTransform="translate(227 214.383) rotate(90) scale(204.383 227)">
<stop stop-color="#3E5DFF"/>
<stop offset="1" stop-color="#3E5DFF" stop-opacity="0"/>
</radialGradient>
<linearGradient id="paint1_linear_39_217" x1="18.5786" y1="404.5" x2="408.079" y2="21.5" gradientUnits="userSpaceOnUse">
<stop offset="0.00114473" stop-color="#C071FF"/>
<stop offset="1" stop-color="#0B14FF"/>
</linearGradient>
<linearGradient id="paint2_linear_39_217" x1="218.839" y1="80.9999" x2="218.839" y2="299.248" gradientUnits="userSpaceOnUse">
<stop stop-color="#191C74"/>
<stop offset="1" stop-color="#7B158B" stop-opacity="0"/>
</linearGradient>
<linearGradient id="paint3_linear_39_217" x1="217.488" y1="119" x2="217.812" y2="272.034" gradientUnits="userSpaceOnUse">
<stop stop-color="#FDFEFF"/>
<stop offset="1" stop-color="#A7BFFE"/>
</linearGradient>
<linearGradient id="paint4_linear_39_217" x1="209.599" y1="278.732" x2="243.467" y2="120.592" gradientUnits="userSpaceOnUse">
<stop stop-color="white"/>
<stop offset="1" stop-color="white" stop-opacity="0"/>
</linearGradient>
<linearGradient id="paint5_linear_39_217" x1="111.083" y1="81.8117" x2="226.403" y2="216.819" gradientUnits="userSpaceOnUse">
<stop stop-color="#8FBCFF" stop-opacity="0.6"/>
<stop offset="1" stop-color="#8FBCFF" stop-opacity="0"/>
</linearGradient>
</defs>
</svg>
