<svg width="118" height="132" viewBox="0 0 118 132" fill="none" xmlns="http://www.w3.org/2000/svg">
<path d="M11.225 118.406H4.07656V105.555H2.43594V119.812H11.225V118.406ZM26.125 118.445H18.7812V113.289H25.7344V111.883H18.7812V106.922H26.125V105.555H17.1406V119.812H26.125V118.445ZM32.0797 105.555H30.3219L36.5328 119.812H37.9781L44.1891 105.555H42.5094L37.275 117.742L32.0797 105.555ZM57.3703 118.445H50.0266V113.289H56.9797V111.883H50.0266V106.922H57.3703V105.555H48.3859V119.812H57.3703V118.445ZM72.075 118.406H64.9266V105.555H63.2859V119.812H72.075V118.406ZM88.0859 114.227C88.0859 118.016 90.0391 119.969 93.75 119.969C97.4609 119.969 99.4141 117.977 99.4141 114.227V105.555H97.7734V114.383C97.7734 117.156 96.4062 118.562 93.75 118.562C91.0938 118.562 89.7266 117.156 89.7266 114.383V105.555H88.0859V114.227ZM106.853 119.812V113.562H110.877C113.806 113.562 115.564 112.039 115.564 109.539C115.564 107.078 113.845 105.555 110.877 105.555H105.213V119.812H106.853ZM106.853 106.922H110.759C112.869 106.922 113.923 107.859 113.923 109.539C113.923 111.258 112.869 112.195 110.759 112.195H106.853V106.922Z" fill="#DBDBDB" fill-opacity="0.72"/>
<path d="M97.9314 46.601C97.9314 67.7504 80.5568 84.902 59.1157 84.902C37.6746 84.902 20.3 67.7504 20.3 46.601C20.3 25.4517 37.6746 8.3 59.1157 8.3C80.5568 8.3 97.9314 25.4517 97.9314 46.601Z" stroke="white" stroke-width="0.6"/>
<path d="M54.4895 61.6895H63.4758V63.9379H54.4895V61.6895Z" fill="#DBDBDB" fill-opacity="0.47"/>
<path d="M54.4895 57.1927H63.4758V59.4411H54.4895V57.1927Z" fill="#DBDBDB" fill-opacity="0.47"/>
<path d="M54.4895 52.7032H63.4758V54.9516H54.4895V52.7032Z" fill="#DBDBDB" fill-opacity="0.47"/>
<path d="M67.9726 36.979L58.9863 28L50 36.979H54.4895V45.9653H63.4758V36.979H67.9726Z" fill="#DBDBDB" fill-opacity="0.47"/>
<path d="M54.4895 48.2137H63.4758V50.4621H54.4895V48.2137Z" fill="#DBDBDB" fill-opacity="0.47"/>
</svg>
