<svg width="620" height="631" viewBox="0 0 620 631" fill="none" xmlns="http://www.w3.org/2000/svg">
<rect x="437.943" y="252.424" width="4.67319" height="4.67319" transform="rotate(45 437.943 252.424)" fill="#00FFF0"/>
<rect width="2.1717" height="2.1717" transform="matrix(-0.707107 -0.707107 -0.707107 0.707107 522.68 267.751)" fill="#00FFF0"/>
<rect x="486.787" y="308.924" width="2.31088" height="2.31088" transform="rotate(45 486.787 308.924)" fill="#00FFF0"/>
<rect width="2.31088" height="2.31088" transform="matrix(0.707131 0.707082 -0.707131 0.707082 361.635 212.884)" fill="#00FFF0"/>
<rect width="2.31088" height="2.31088" transform="matrix(0.707131 0.707082 -0.707131 0.707082 373.979 135)" fill="#00FFF0" fill-opacity="0.5"/>
<rect x="409.322" y="180.465" width="1.61507" height="1.61507" transform="rotate(45 409.322 180.465)" fill="#00FFF0" fill-opacity="0.5"/>
<rect x="389.621" y="172.389" width="3.0132" height="3.0132" transform="rotate(45 389.621 172.389)" fill="#00FFF0" fill-opacity="0.5"/>
<g style="mix-blend-mode:lighten" filter="url(#filter0_f_635_1043)">
<ellipse cx="309.892" cy="315.48" rx="215.27" ry="209.678" transform="rotate(-89.9428 309.892 315.48)" fill="url(#paint0_radial_635_1043)" fill-opacity="0.6"/>
</g>
<path d="M250.058 309.11L259.464 322.25L263.401 327.891H263.495C263.349 326.578 263.276 324.422 263.276 321.422V309.11H264.651V330H263.464L254.026 316.719L250.12 311.188H250.058C250.183 312.5 250.245 314.943 250.245 318.516V330H248.87V309.11H250.058ZM274.533 319.563C274.533 317.49 274.934 315.625 275.736 313.969C276.549 312.313 277.674 311.021 279.111 310.094C280.549 309.156 282.179 308.688 284.002 308.688C285.908 308.688 287.575 309.156 289.002 310.094C290.439 311.021 291.544 312.308 292.314 313.953C293.096 315.599 293.486 317.469 293.486 319.563C293.486 321.625 293.085 323.479 292.283 325.125C291.481 326.771 290.361 328.063 288.924 329C287.497 329.927 285.882 330.391 284.08 330.391C282.153 330.391 280.465 329.927 279.018 329C277.58 328.073 276.471 326.792 275.689 325.156C274.919 323.511 274.533 321.646 274.533 319.563ZM292.002 319.563C292.002 317.563 291.648 315.839 290.939 314.391C290.231 312.933 289.268 311.828 288.049 311.078C286.84 310.318 285.491 309.938 284.002 309.938C282.533 309.938 281.189 310.318 279.971 311.078C278.752 311.828 277.783 312.933 277.064 314.391C276.356 315.839 276.002 317.563 276.002 319.563C276.002 321.584 276.361 323.318 277.08 324.766C277.799 326.203 278.768 327.292 279.986 328.031C281.215 328.771 282.58 329.141 284.08 329.141C285.549 329.141 286.882 328.771 288.08 328.031C289.278 327.292 290.231 326.203 290.939 324.766C291.648 323.318 292.002 321.584 292.002 319.563ZM318.687 309.11C320.531 309.11 321.964 309.214 322.984 309.422C325.557 310.078 327.469 311.276 328.719 313.016C329.969 314.745 330.594 316.886 330.594 319.438C330.594 322.104 329.911 324.354 328.547 326.188C327.193 328.021 325.339 329.188 322.984 329.688C321.943 329.896 320.661 330 319.141 330H314.594V309.11H318.687ZM329.125 319.469C329.125 317.167 328.604 315.271 327.562 313.781C326.531 312.281 325.036 311.266 323.078 310.735C322.474 310.578 321.797 310.479 321.047 310.438C320.297 310.386 319.318 310.36 318.109 310.36H315.969V328.75H318.219C319.354 328.75 320.25 328.735 320.906 328.703C321.573 328.662 322.198 328.573 322.781 328.438C324.76 328 326.312 326.985 327.437 325.391C328.562 323.797 329.125 321.823 329.125 319.469ZM338.319 330L346.866 309.11H348.21L356.788 330H355.272L352.272 322.578H342.804L339.819 330H338.319ZM351.757 321.328L350.96 319.313C349.22 314.99 348.101 312.13 347.601 310.735H347.538C347.111 311.922 346.408 313.688 345.429 316.031C345.127 316.75 344.408 318.516 343.272 321.328H351.757ZM368.607 310.391H361.404V309.11H377.217V310.391H369.982V330H368.607V310.391ZM381.833 330L390.38 309.11H391.724L400.302 330H398.786L395.786 322.578H386.318L383.333 330H381.833ZM395.271 321.328L394.474 319.313C392.734 314.99 391.614 312.13 391.114 310.735H391.052C390.625 311.922 389.922 313.688 388.943 316.031C388.64 316.75 387.922 318.516 386.786 321.328H395.271Z" fill="white"/>
<rect width="2.37544" height="2.37544" transform="matrix(0.986582 -0.163268 0.163288 0.986578 190.775 276.97)" fill="#00FFF0" fill-opacity="0.6"/>
<rect width="2.95484" height="2.95484" transform="matrix(-0.98658 0.163278 0.163278 0.98658 193.936 162.33)" fill="#00FFF0"/>
<rect x="248.746" y="209.633" width="3.14421" height="3.14421" transform="rotate(-9.39723 248.746 209.633)" fill="#00FFF0"/>
<rect width="3.14421" height="3.14421" transform="matrix(0.986579 -0.163286 0.163271 0.986581 184.48 462.398)" fill="#00FFF0" fill-opacity="0.5"/>
<rect x="128.373" y="392.044" width="1.72363" height="1.72363" transform="rotate(-9.39723 128.373 392.044)" fill="#00FFF0" fill-opacity="0.5"/>
<g opacity="0.5">
<rect x="263.203" y="393.548" width="1.96334" height="1.96334" transform="rotate(-99.1537 263.203 393.548)" fill="#00FFF0" fill-opacity="0.6"/>
<rect width="2.44223" height="2.44223" transform="matrix(0.159083 0.987265 0.987265 -0.159083 168.404 390.534)" fill="#00FFF0"/>
<rect width="2.59874" height="2.59874" transform="matrix(-0.159091 -0.987264 0.987266 -0.159075 207.719 345.363)" fill="#00FFF0"/>
<rect x="416.545" y="399.405" width="2.59874" height="2.59874" transform="rotate(-99.1537 416.545 399.405)" fill="#00FFF0" fill-opacity="0.5"/>
<rect x="358.16" y="445.562" width="1.42461" height="1.42461" transform="rotate(-99.1537 358.16 445.562)" fill="#00FFF0" fill-opacity="0.5"/>
<rect x="333.51" y="542.019" width="2.59874" height="2.59874" transform="rotate(-134.464 333.51 542.019)" fill="#0500FF" fill-opacity="0.5"/>
</g>
<path d="M192.243 232.656C189.704 181.405 206.918 142.314 236.685 120.456C266.452 98.5981 308.903 93.8769 357.043 111.643C405.188 129.41 449.839 166.288 483.091 211.573C516.344 256.857 538.163 310.5 540.702 361.756C543.241 413.007 526.027 452.098 496.26 473.956C466.493 495.814 424.042 500.535 375.902 482.769C327.757 465.002 283.107 428.124 249.854 382.839C216.601 337.555 194.782 283.912 192.243 232.656Z" stroke="url(#paint1_linear_635_1043)" stroke-width="1.20396"/>
<path d="M192.243 232.656C189.704 181.405 206.918 142.314 236.685 120.456C266.452 98.5981 308.903 93.8769 357.043 111.643C405.188 129.41 449.839 166.288 483.091 211.573C516.344 256.857 538.163 310.5 540.702 361.756C543.241 413.007 526.027 452.098 496.26 473.956C466.493 495.814 424.042 500.535 375.902 482.769C327.757 465.002 283.107 428.124 249.854 382.839C216.601 337.555 194.782 283.912 192.243 232.656Z" stroke="url(#paint2_linear_635_1043)" stroke-opacity="0.2" stroke-width="1.20396"/>
<defs>
<filter id="filter0_f_635_1043" x="0.214844" y="0.209473" width="619.355" height="630.541" filterUnits="userSpaceOnUse" color-interpolation-filters="sRGB">
<feFlood flood-opacity="0" result="BackgroundImageFix"/>
<feBlend mode="normal" in="SourceGraphic" in2="BackgroundImageFix" result="shape"/>
<feGaussianBlur stdDeviation="50" result="effect1_foregroundBlur_635_1043"/>
</filter>
<radialGradient id="paint0_radial_635_1043" cx="0" cy="0" r="1" gradientUnits="userSpaceOnUse" gradientTransform="translate(309.892 330.341) rotate(80.7781) scale(166.684 171.23)">
<stop offset="0.0729167" stop-color="white"/>
<stop offset="0.507801" stop-color="#C173FF" stop-opacity="0.9"/>
<stop offset="1" stop-color="#0E26FF" stop-opacity="0"/>
</radialGradient>
<linearGradient id="paint1_linear_635_1043" x1="546.861" y1="164.746" x2="332.084" y2="322.458" gradientUnits="userSpaceOnUse">
<stop stop-color="white" stop-opacity="0.6"/>
<stop offset="0.34375" stop-color="#8FBCFF" stop-opacity="0.6"/>
<stop offset="1" stop-color="#8FBCFF" stop-opacity="0"/>
</linearGradient>
<linearGradient id="paint2_linear_635_1043" x1="533.37" y1="322.311" x2="461.365" y2="333.441" gradientUnits="userSpaceOnUse">
<stop stop-color="#FF48D7"/>
<stop offset="0.234164" stop-color="white" stop-opacity="0.765836"/>
<stop offset="1" stop-color="#FF48D7" stop-opacity="0"/>
</linearGradient>
</defs>
</svg>
