<svg width="190" height="111" viewBox="0 0 190 111" fill="none" xmlns="http://www.w3.org/2000/svg">
<g clip-path="url(#clip0_423_144)">
<path d="M12.7544 1.10312C11.4224 1.50487 10.4287 2.05463 9.68872 2.96386C8.63159 4.23256 8.5893 4.42286 8.67387 8.20779C8.71616 10.3857 8.71616 14.2341 8.67387 16.8349C8.63159 21.4868 8.63159 21.4868 7.76474 21.2119C6.03103 20.6198 1.88706 20.8947 1.18935 21.6559C0.597355 22.2903 0.597355 22.2903 1.27392 22.0577C1.78135 21.9097 1.95049 21.9731 1.82363 22.2903C1.73906 22.5652 1.42192 22.7555 1.18935 22.692C0.914496 22.6497 0.745354 23.3687 0.745354 24.6585C0.745354 25.8003 0.618498 27.3862 0.512784 28.1263C0.364785 29.2258 0.512784 29.7121 1.33735 30.5791C2.28877 31.594 2.60591 31.6786 5.43904 31.6786C8.08188 31.6786 8.54702 31.8055 8.71616 32.3552C8.94873 33.2645 8.67387 78.2607 8.4413 78.8951C8.31445 79.2545 7.42645 79.4025 5.71389 79.4025C4.00133 79.4025 2.75391 79.6351 1.97163 80.0792C0.78764 80.7981 0.745354 80.8615 0.703069 83.9487C0.618498 90.2287 0.78764 90.4613 5.75618 90.4613H9.07559L8.94873 98.0312C8.80073 108.688 9.09673 109.153 16.7504 109.576C28.104 110.168 61.3404 110.401 66.7952 109.936C68.6981 109.788 70.3895 109.745 72.2289 109.788C74.7872 109.83 75.4214 109.788 75.8866 109.344C76.2883 109.027 76.4363 109.027 76.4363 109.344C76.4363 109.576 76.6266 109.788 76.838 109.788C77.0706 109.788 77.2397 109.428 77.2397 108.963C77.2397 108.519 77.0917 108.286 76.838 108.413C76.6477 108.54 76.4363 108.456 76.4363 108.223C76.4363 107.504 77.3877 107.99 77.8106 108.942C78.2123 109.809 78.318 109.809 87.0711 109.809C91.955 109.809 98.6573 109.936 101.977 110.041C110.92 110.401 124.938 109.893 124.938 109.175C124.938 108.857 125.128 108.625 125.382 108.625C125.614 108.625 125.741 108.9 125.572 109.217C125.424 109.724 125.847 109.809 128.405 109.809C130.054 109.851 139.167 109.893 148.681 109.936C158.153 109.978 165.785 109.893 165.68 109.703C165.595 109.555 165.807 109.428 166.145 109.428C166.547 109.428 166.652 109.619 166.504 109.893C166.039 110.634 176.357 110.02 178.09 109.153C180.966 107.737 181.135 107.145 181.156 98.5809C181.198 94.352 181.304 90.6516 181.473 90.2922C181.621 89.827 181.938 89.7424 182.573 89.9327C183.714 90.3344 188.006 90.123 188.81 89.7001C189.317 89.3829 189.275 89.3406 188.683 89.2983C188.239 89.2983 188.006 89.108 188.133 88.7909C188.218 88.5583 188.493 88.3468 188.683 88.3891C189.19 88.516 189.592 82.1937 189.148 81.4113C188.197 79.7197 188.049 79.6351 184.454 79.4448L180.86 79.2545L180.776 55.4666L180.649 31.7209H184.158C187.393 31.7209 187.668 31.6363 188.62 30.6213C189.444 29.7544 189.613 29.2892 189.444 28.1685C189.317 27.4285 189.212 25.8426 189.212 24.7431C189.212 23.4109 189.064 22.692 188.768 22.7766C188.535 22.8189 188.218 22.6286 188.133 22.3326C188.006 22.0154 188.176 21.9308 188.683 22.1C189.317 22.3326 189.317 22.2903 188.81 21.7405C188.176 21.0639 184.285 20.7467 182.509 21.233C180.733 21.6982 180.585 21.2753 180.332 14.1706C179.888 3.19646 179.063 1.63174 173.672 1.77975C172.086 1.82204 170.606 1.73746 170.352 1.63174C169.929 1.25113 163.227 0.785943 159.844 0.785943C158.533 0.828232 156.25 0.828232 154.728 0.828232C153.227 0.828232 145.425 0.912812 137.37 0.955102C129.357 0.997391 121.28 1.08197 119.419 1.14541C117.559 1.20884 115.275 1.29342 114.303 1.27227C98.9956 1.03968 86.3099 0.955102 85.6334 1.12426C85.126 1.25113 84.7665 1.48372 84.8511 1.63174C84.8934 1.77975 84.7665 1.94891 84.534 1.9912C84.3437 2.07578 84.1322 1.86433 84.1322 1.58945C84.1322 1.22998 82.2294 1.12426 76.0557 1.12426C69.7763 1.12426 68.0215 1.25113 68.0426 1.58945C68.1272 1.86433 67.8946 2.09692 67.5352 2.09692C67.2181 2.09692 67.0278 1.94891 67.1335 1.73746C67.5986 1.01854 65.0404 0.912812 47.0691 0.912812C37.0897 0.912812 25.736 0.828232 21.8246 0.764798C16.6447 0.637929 14.171 0.743653 12.7544 1.10312ZM92.9065 11.7813C146.884 11.8659 164.749 11.739 164.749 11.4218C164.749 11.0623 164.876 11.1046 165.067 11.4218C165.215 11.6967 166.251 11.9716 167.308 12.0139L169.274 12.1407L169.316 14.1072C169.401 17.2578 169.908 49.1231 169.866 49.7997C169.739 53.1618 169.866 78.5145 170.056 87.353C170.247 96.1916 170.204 98.7078 169.824 98.9404C169.549 99.0884 168.048 99.173 166.547 99.1307C163.629 99.0038 152.973 99.0038 112.125 99.0461C90.9402 99.0884 88.1916 99.173 88.3819 99.6805C88.5299 100.082 88.3396 100.273 87.8322 100.273C87.3248 100.273 87.1134 100.082 87.2825 99.6805C87.4728 99.173 84.9991 99.1307 67.4506 99.1307C56.4564 99.173 44.1936 99.2787 40.1977 99.4056C36.244 99.5536 33.0303 99.5536 33.0303 99.3633C33.0303 98.8981 31.656 99.0461 31.1274 99.5536C30.768 99.9131 30.5354 99.9554 30.3452 99.6382C30.1972 99.321 28.2943 99.173 25.1863 99.1307C22.5012 99.0884 20.1332 98.9827 19.9852 98.8558C19.7949 98.729 19.6258 97.2488 19.6258 95.4726C19.6258 92.8295 19.5412 92.3643 19.0338 92.5547C18.6321 92.7027 18.4418 92.5124 18.4418 92.0049C18.4418 91.4974 18.6321 91.286 19.0338 91.4551C19.5412 91.6454 19.6258 89.9116 19.6681 77.3726C19.8161 30.1984 19.8161 30.7482 19.2664 30.5579C18.9492 30.431 18.8647 30.283 19.1395 30.1139C19.7315 29.7544 19.8161 24.9968 19.2664 23.2418C18.9915 22.4594 18.9069 21.5925 19.1184 21.3176C19.2664 21.0427 19.4355 18.8225 19.5201 16.4754C19.5624 14.0649 19.6047 11.9081 19.6047 11.591C19.6469 11.2315 19.8795 11.1469 20.3447 11.4007C20.7041 11.5487 53.3696 11.739 92.9065 11.7813Z" fill="white"/>
<path d="M144.77 21.7194L136.376 21.8039L134.832 23.3052C133.522 24.5739 133.247 25.0814 133.056 26.9421C132.613 30.6848 132.613 35.9287 132.972 44.3021C133.162 48.7636 133.289 53.0983 133.204 53.9653C133.12 54.8322 133.056 62.0849 133.056 70.1411L133.014 84.7311L133.966 86.2746C134.473 87.0993 135.467 88.0085 136.164 88.3257C137.75 89.0023 153.586 89.1503 155.679 88.516C157.603 87.9239 159.147 85.9575 159.379 83.7795C159.781 79.9523 159.612 50.8147 159.189 49.7152L158.745 48.6579H153.332C149.675 48.6579 147.772 48.8059 147.455 49.1231C147.138 49.4403 146.99 50.9838 146.99 53.3732V57.1581L148.174 57.8348L149.358 58.5537L149.4 62.973C149.4 65.4258 149.4 69.3587 149.358 71.8115C149.315 74.4547 149.484 76.5057 149.759 76.9286C150.076 77.4361 150.119 77.9436 149.802 78.7048C149.4 79.762 149.358 79.762 146.419 79.614C143.057 79.466 142.444 79.2122 143.057 78.4299C143.501 77.8801 143.691 50.3072 143.332 37.3454L143.142 31.0019L145.975 30.8539C150.203 30.6636 150.161 30.6213 150.161 33.4548C150.161 34.8292 150.351 36.0979 150.626 36.3727C150.986 36.7322 150.986 36.8379 150.626 36.8379C149.759 36.8379 150.119 37.9375 151.07 38.1489C152.487 38.4238 158.047 38.1912 158.449 37.7894C158.597 37.5991 158.851 34.5543 158.956 31.0019L159.104 24.5316L158.005 23.4321C157.053 22.4806 156.229 22.1634 153.586 21.7405C153.332 21.6559 149.336 21.6559 144.77 21.7194ZM32.0789 22.4806C31.7194 22.84 31.6137 25.0814 31.7194 30.5579C31.8463 39.3965 31.804 38.7198 32.2692 37.9798C32.5863 37.5146 32.6709 37.6203 32.6709 38.4449C32.6709 38.9947 32.4806 39.5445 32.2057 39.6291C31.8463 39.7559 31.7406 41.4475 31.7406 45.5073C31.6983 50.4341 31.6137 51.3433 31.0217 51.9354C30.4297 52.4851 30.3029 53.3521 30.3029 56.989C30.3029 59.3995 30.4297 61.2391 30.5777 61.1334C30.9372 60.7739 32.2692 62.0003 32.2692 62.7192C32.2692 62.9941 32.1423 63.2267 31.9943 63.2267C31.804 63.2267 31.6349 68.6398 31.5503 75.2582C31.508 81.8765 31.6349 87.2896 31.7829 87.2896C31.9732 87.2896 32.3326 87.7336 32.5651 88.2834C33.0091 89.2349 33.1571 89.2772 36.9417 89.2772C42.7771 89.2772 42.4599 89.9961 42.3542 75.6388C42.2697 69.3587 42.2062 64.0514 42.1217 63.8399C41.6777 62.1483 41.8891 62.0638 47.4919 62.0638C53.5599 62.0638 55.8433 61.6197 57.1964 60.203L58.1056 59.2092L58.2324 42.103C58.317 30.5791 58.1901 24.7008 57.9153 24.1933C56.9216 22.3748 55.8644 22.2268 43.8342 22.1C35.504 22.0365 32.3749 22.1211 32.0789 22.4806ZM47.6399 31.9323C47.6822 32.3341 47.6822 36.5419 47.7245 41.3206C47.7245 46.0994 47.8513 49.6729 47.9148 49.2923C48.2319 48.1081 48.8239 48.5733 48.8239 50.0323C48.8239 51.1742 48.697 51.4067 48.1896 51.2164C47.7456 51.0684 47.6399 51.1742 47.7879 51.6816C47.9782 52.2737 47.7456 52.3583 45.3776 52.2314C43.8765 52.1468 42.5445 51.8296 42.2274 51.5548C41.5931 50.9204 41.5508 49.7786 42.1428 49.7786C42.4177 49.7786 42.5022 47.0086 42.3331 40.7497C42.2485 35.7807 42.2485 31.594 42.3754 31.4883C42.5234 31.3614 43.7496 31.2557 45.1451 31.2557C47.2593 31.2768 47.6399 31.3826 47.6399 31.9323ZM65.8226 22.3537C65.1461 23.1361 65.3787 31.89 66.0975 31.742C66.3301 31.6997 66.5626 31.9323 66.5626 32.2495C66.5626 32.5667 66.3301 32.7993 66.0975 32.7147C65.7381 32.6724 65.5478 33.3067 65.4632 34.7234C65.3787 36.3727 65.4632 36.7745 65.8649 36.5419C66.2666 36.3093 66.2666 36.3516 65.9495 36.8168C65.3152 37.6414 64.8924 82.3205 65.4844 84.9636C65.8438 86.3804 66.2666 87.1416 67.2604 87.8394L68.5712 88.8543L78.91 88.7063C90.4328 88.5583 91.2573 88.3468 92.5048 85.9363C93.3716 84.2447 93.731 70.9446 93.5196 47.791C93.435 38.3604 93.3716 28.972 93.3716 27.0056C93.3716 24.7219 93.2236 23.2629 92.9276 23.0515C92.6528 22.9246 92.3779 23.0092 92.2933 23.2418C92.1031 23.9184 91.4265 23.8338 91.4265 23.1149C91.4265 22.6497 90.7922 22.5229 88.0648 22.5229C82.6523 22.5229 83.054 21.2119 83.0962 39.3965C83.1385 47.791 83.2442 57.0313 83.3711 59.8647C83.5614 63.6073 83.498 65.1086 83.1808 65.1086C82.462 65.1086 82.6734 66.6099 83.4557 67.0328C83.9208 67.35 84.0054 67.5403 83.646 67.7517C83.3711 67.9843 83.1385 69.9296 83.054 73.4608C82.9271 78.0281 82.8214 78.9797 82.2294 79.5717C81.5528 80.2483 81.4894 80.2483 81.0031 79.5717C80.4111 78.8316 78.762 78.7048 77.578 79.3391C76.394 79.9312 75.1677 78.7894 75.4849 77.3726C75.7597 76.1885 75.95 43.4563 75.7597 31.594L75.6117 23.4744L73.9203 22.5651C72.7786 21.9308 71.954 21.6982 71.4678 21.9308C70.7278 22.248 68.0849 22.248 66.9432 21.8885C66.5838 21.8885 66.0975 22.0365 65.8226 22.3537ZM100.962 22.3114C100.518 22.9035 100.37 37.2185 100.814 39.1427C101.004 39.8828 101.004 41.7435 100.898 43.2871C100.75 44.8307 100.772 46.2474 100.983 46.5223C101.49 47.1566 100.983 48.6156 100.264 48.6156C99.947 48.6156 99.799 48.8059 99.9047 49.0174C100.032 49.25 99.8624 49.694 99.5453 50.0323C98.8264 50.7513 98.6362 56.2701 99.3127 56.693C99.5453 56.8198 99.7144 57.285 99.7144 57.6868C99.7144 58.0885 99.9047 58.4691 100.158 58.5537C100.518 58.6806 100.624 62.2118 100.624 71.4944C100.581 78.9162 100.75 84.4985 100.983 84.7945C101.173 85.0271 101.173 85.3443 101.025 85.4288C100.835 85.5557 100.75 86.3804 100.835 87.2473L100.983 88.8543L111.512 88.7274C127.2 88.6006 126.291 89.7213 126.333 70.3103C126.333 57.2639 126.291 56.6718 125.551 55.8683C123.183 53.3098 122.908 52.8235 123.542 52.4851C125.128 51.6182 125.509 49.7997 125.593 43.8792C125.635 40.7286 125.72 34.9983 125.783 31.15C125.91 24.5316 125.868 24.0876 125.065 23.3475C123.838 22.1211 121.999 21.8885 111.301 21.8462C103.837 21.8462 101.279 21.9308 100.962 22.3114ZM115.719 31.3191C115.952 31.7209 115.952 34.7023 115.719 46.2685C115.677 49.1442 115.487 49.3134 112.527 48.8271L110.836 48.5945L110.603 45.169C110.476 43.266 110.37 41.4687 110.328 41.1515C110.328 40.8343 110.455 38.3815 110.603 35.7173L110.878 30.8962H113.161C114.409 30.8751 115.55 31.0654 115.719 31.3191ZM115.55 59.04C115.698 59.2726 115.867 62.3175 115.867 65.7853C115.867 69.253 115.91 73.7146 115.91 75.7233C115.952 77.6898 115.867 79.5083 115.719 79.6986C115.402 80.2061 111.301 80.0158 110.624 79.4237C110.18 79.0642 110.117 78.599 110.349 77.5207C110.54 76.7383 110.709 72.2767 110.709 67.5826C110.709 60.2453 110.793 59.0189 111.343 58.6383C112.083 58.0885 115.127 58.3634 115.55 59.04Z" fill="white"/>
</g>
<defs>
<clipPath id="clip0_423_144">
<rect width="189.079" height="109.467" fill="white" transform="translate(0.428215 0.701355)"/>
</clipPath>
</defs>
</svg>
