<svg width="118" height="121" viewBox="0 0 118 121" fill="none" xmlns="http://www.w3.org/2000/svg">
<path d="M58.9997 14.2881C58.875 14.2881 58.7917 14.3714 58.7917 14.4961V41.4529L53.1341 35.712C53.0508 35.6288 52.926 35.6288 52.8427 35.712C52.7595 35.7953 52.7595 35.9201 52.8427 36.0034L58.8747 42.0771L58.9162 42.1186H59.0824L59.1239 42.0771L65.1558 36.0034C65.2391 35.9201 65.2391 35.7953 65.1144 35.712C65.0311 35.6288 64.9063 35.6288 64.823 35.712L59.2078 41.4529V14.4961C59.2078 14.3714 59.1245 14.2881 58.9997 14.2881H58.9997Z" fill="white"/>
<path d="M77.3039 28.016H64.4911C64.3663 28.016 64.283 28.0993 64.283 28.2241C64.283 28.3488 64.3663 28.4321 64.4911 28.4321H77.0959V50.8961H40.9039V28.4321H53.5087C53.6334 28.4321 53.7167 28.3488 53.7167 28.2241C53.7167 28.0993 53.6334 28.016 53.5087 28.016H40.6959C40.5711 28.016 40.4878 28.0993 40.4878 28.2241V51.1041C40.4878 51.2288 40.5711 51.3121 40.6959 51.3121H77.3039C77.4286 51.3121 77.5119 51.2288 77.5119 51.1041L77.5116 28.2241C77.5116 28.0993 77.4284 28.0163 77.3036 28.0163L77.3039 28.016Z" fill="white"/>
<path d="M96.7 37.5C96.7 58.0413 79.8249 74.7 59 74.7C38.1751 74.7 21.3 58.0413 21.3 37.5C21.3 16.9587 38.1751 0.3 59 0.3C79.8249 0.3 96.7 16.9587 96.7 37.5Z" stroke="white" stroke-width="0.6"/>
<path d="M20.3156 103.008C19.925 101.914 19.3391 101.367 18.5187 101.25C20.3547 100.703 21.3703 99.375 21.3703 97.5391C21.3703 94.9609 19.6516 93.5547 16.6047 93.5547H10.9406V107.812H12.5812V101.602H16.1359C17.5031 101.602 18.2062 101.914 18.6359 103.086L20.3937 107.812H22.1125L20.3156 103.008ZM12.5812 94.9219H16.4484C18.7141 94.9219 19.7297 95.7812 19.7297 97.5391C19.7297 99.3359 18.6359 100.234 16.4484 100.234H12.5812V94.9219ZM37.0125 106.445H29.6687V101.289H36.6219V99.8828H29.6687V94.9219H37.0125V93.5547H28.0281V107.812H37.0125V106.445ZM42.4203 100.664C42.4203 105.156 44.9594 107.969 49.0219 107.969C50.975 107.969 52.6547 107.383 53.8656 106.172L53.2406 104.922C51.8734 106.094 50.6234 106.562 49.0219 106.562C45.8969 106.562 44.1 104.414 44.1 100.664C44.1 96.9141 45.8969 94.8438 49.0219 94.8438C50.6234 94.8438 51.8734 95.2734 53.2406 96.4844L53.8656 95.1953C52.6547 94.0234 50.975 93.3984 49.0219 93.3984C44.9594 93.3984 42.4203 96.2109 42.4203 100.664ZM68.2578 106.445H60.9141V101.289H67.8672V99.8828H60.9141V94.9219H68.2578V93.5547H59.2734V107.812H68.2578V106.445ZM75.8141 93.5547H74.1734V107.812H75.8141V93.5547ZM81.7688 93.5547H80.0109L86.2219 107.812H87.6672L93.8781 93.5547H92.1984L86.9641 105.742L81.7688 93.5547ZM107.059 106.445H99.7156V101.289H106.669V99.8828H99.7156V94.9219H107.059V93.5547H98.075V107.812H107.059V106.445Z" fill="#DBDBDB" fill-opacity="0.72"/>
</svg>
