<svg width="592" height="715" viewBox="0 0 592 715" fill="none" xmlns="http://www.w3.org/2000/svg">
<g filter="url(#filter0_d_68_126)">
<path d="M295.38 95L95 210.604L295.38 327.171L495.761 210.604L295.38 95Z" stroke="#5D5FEF" stroke-width="6.7736" stroke-linejoin="round" shape-rendering="crispEdges"/>
</g>
<g filter="url(#filter1_d_68_126)">
<path d="M295.381 558.377V327.169L497.606 210.505L495.761 442.773L295.381 558.377Z" stroke="#5D5FEF" stroke-width="6.7736" stroke-linejoin="bevel" shape-rendering="crispEdges"/>
</g>
<g filter="url(#filter2_d_68_126)">
<path d="M295.381 558.378V327.17L95.0003 210.603V442.774L295.381 558.378Z" stroke="#5D5FEF" stroke-width="6.7736" stroke-linejoin="round" shape-rendering="crispEdges"/>
</g>
<g filter="url(#filter3_d_68_126)">
<path fill-rule="evenodd" clip-rule="evenodd" d="M296.411 147.338L293.758 145.807L291.078 147.291L137.661 232.265L134.847 233.824L134.868 237.042L136.072 416.994L136.093 420.071L138.746 421.63L215.816 466.908L221.306 457.564L146.889 413.844L145.727 240.187L293.649 158.256L313.343 169.619L314.295 430.465L314.329 439.749L322.396 435.153L398.502 391.802L401.239 390.243V387.093V327.365V321.877L401.235 321.877V321.812V321.668V321.525V321.381V321.237V321.092V320.948V320.803V320.658V320.512V320.366V320.22V320.074V319.927V319.781V319.634V319.486V319.339V319.191V319.043V318.895V318.746V318.597V318.448V318.299V318.15V318V317.85V317.7V317.55V317.399V317.248V317.097V316.946V316.795V316.643V316.491V316.339V316.187V316.035V315.882V315.73V315.577V315.424V315.27V315.117V314.963V314.81V314.656V314.501V314.347V314.193V314.038V313.884V313.729V313.574V313.418V313.263V313.108V312.952V312.796V312.641V312.485V312.329V312.172V312.016V311.86V311.703V311.546V311.39V311.233V311.076V310.919V310.762V310.604V310.447V310.289V310.132V309.974V309.817V309.659V309.501V309.343V309.185V309.027V308.869V308.711V308.552V308.394V308.236V308.077V307.919V307.76V307.602V307.443V307.285V307.126V306.967V306.808V306.65V306.491V306.332V306.173V306.014V305.856V305.697V305.538V305.379V305.22V305.061V304.902V304.744V304.585V304.426V304.267V304.108V303.949V303.791V303.632V303.473V303.315V303.156V302.997V302.839V302.68V302.522V302.363V302.205V302.046V301.888V301.73V301.572V301.414V301.256V301.098V300.94V300.782V300.624V300.467V300.309V300.151V299.994V299.837V299.679V299.522V299.365V299.208V299.051V298.895V298.738V298.582V298.425V298.269V298.113V297.957V297.801V297.645V297.489V297.334V297.178V297.023V296.868V296.713V296.558V296.404V296.249V296.095V295.941V295.787V295.633V295.479V295.325V295.172V295.019V294.866V294.713V294.56V294.408V294.256V294.104V293.952V293.8V293.648V293.497V293.346V293.195V293.044V292.894V292.744V292.594V292.444V292.294V292.145V291.996V291.847V291.698V291.55V291.402V291.254V291.106V290.958V290.811V290.664V290.518V290.371V290.225V290.079V289.933V289.788V289.643V289.498V289.353V289.209V289.065V288.921V288.778V288.635V288.492V288.349V288.207V288.065V287.924V287.782V287.641V287.5V287.36V287.22V287.08V286.941V286.802V286.663V286.524V286.386V286.249V286.111V285.974V285.837V285.701V285.565V285.429V285.294V285.159V285.024V284.89V284.756V284.622V284.489V284.356V284.224V284.092V283.96V283.829V283.698V283.568V283.438V283.308V283.179V283.05V282.921V282.793V282.666V282.538V282.412V282.285V282.159V282.034V281.908V281.784V281.659V281.536V281.412V281.289V281.167V281.045V280.923V280.802V280.681V280.561V280.441V280.322V280.203V280.084V279.966V279.849V279.732V279.615V279.499V279.384V279.269V279.154V279.04V278.926V278.813V278.701V278.589V278.477V278.366V278.255V278.145V278.036V277.927V277.818V277.71V277.603V277.496V277.389V277.284V277.178V277.073V276.969V276.865V276.762V276.66V276.558V276.456V276.355V276.255V276.155V276.056V275.957V275.859V275.762V275.665V275.568V275.473V275.377V275.283V275.189V275.095V275.003V274.91V274.819V274.728V274.637V274.548V274.458V274.37V274.282V274.195V274.108V274.022V273.936V273.852V273.767V273.684V273.601V273.519V273.437V273.356V273.276V273.196V273.117V273.039V272.961V272.884V272.808V272.732V272.657V272.583V272.509V272.436V272.364V272.293V272.222V272.152V272.082V272.013V271.945V271.878V271.811V271.745V271.68V271.615V271.551V271.488V271.426V271.364V271.303V271.243V271.183V271.125V271.067V271.009V270.953V270.897V270.842V270.788V270.734V270.681V270.629V270.578V270.528V270.478V270.429V270.381V270.334V270.287V270.241V270.196V270.152V270.108V270.066V270.024V269.983V269.942V269.903V269.864V269.826V269.789V269.753V269.718V269.683V269.649V269.616V269.584V269.553V269.522V269.493V269.464V269.436V269.409V269.383V269.357V269.333V269.309V269.286V269.264V269.243V269.223V269.203V269.185V269.167V269.151V269.135V269.12V269.106V269.092V269.08V269.069V269.058V269.048V269.04V269.032V269.025V269.019V269.014V269.009V269.006V269.004C401.235 267.206 400.334 265.997 400.212 265.833L400.202 265.819C399.944 265.462 399.698 265.216 399.595 265.116C399.369 264.895 399.17 264.739 399.102 264.687C398.934 264.556 398.778 264.45 398.702 264.398C398.521 264.276 398.309 264.141 398.103 264.012C397.675 263.745 397.072 263.378 396.334 262.935C394.848 262.043 392.711 260.78 390.086 259.238C384.83 256.152 377.565 251.921 369.513 247.252C354.608 238.61 336.981 228.452 324.369 221.251L324.17 166.463L324.158 163.346L321.459 161.789L296.411 147.338ZM324.415 233.762L324.74 322.845L390.397 322.014V321.954V321.812V321.668V321.525V321.381V321.237V321.092V320.948V320.803V320.658V320.512V320.366V320.22V320.074V319.927V319.781V319.634V319.486V319.339V319.191V319.043V318.895V318.746V318.597V318.448V318.299V318.15V318V317.85V317.7V317.55V317.399V317.248V317.097V316.946V316.795V316.643V316.491V316.339V316.187V316.035V315.882V315.73V315.577V315.424V315.27V315.117V314.963V314.81V314.656V314.501V314.347V314.193V314.038V313.884V313.729V313.574V313.418V313.263V313.108V312.952V312.796V312.641V312.485V312.329V312.172V312.016V311.86V311.703V311.546V311.39V311.233V311.076V310.919V310.762V310.604V310.447V310.289V310.132V309.974V309.817V309.659V309.501V309.343V309.185V309.027V308.869V308.711V308.552V308.394V308.236V308.077V307.919V307.76V307.602V307.443V307.285V307.126V306.967V306.808V306.65V306.491V306.332V306.173V306.014V305.856V305.697V305.538V305.379V305.22V305.061V304.902V304.744V304.585V304.426V304.267V304.108V303.949V303.791V303.632V303.473V303.315V303.156V302.997V302.839V302.68V302.522V302.363V302.205V302.046V301.888V301.73V301.572V301.414V301.256V301.098V300.94V300.782V300.624V300.467V300.309V300.151V299.994V299.837V299.679V299.522V299.365V299.208V299.051V298.895V298.738V298.582V298.425V298.269V298.113V297.957V297.801V297.645V297.489V297.334V297.178V297.023V296.868V296.713V296.558V296.404V296.249V296.095V295.941V295.787V295.633V295.479V295.325V295.172V295.019V294.866V294.713V294.56V294.408V294.256V294.104V293.952V293.8V293.648V293.497V293.346V293.195V293.044V292.894V292.744V292.594V292.444V292.294V292.145V291.996V291.847V291.698V291.55V291.402V291.254V291.106V290.958V290.811V290.664V290.518V290.371V290.225V290.079V289.933V289.788V289.643V289.498V289.353V289.209V289.065V288.921V288.778V288.635V288.492V288.349V288.207V288.065V287.924V287.782V287.641V287.5V287.36V287.22V287.08V286.941V286.802V286.663V286.524V286.386V286.249V286.111V285.974V285.837V285.701V285.565V285.429V285.294V285.159V285.024V284.89V284.756V284.622V284.489V284.356V284.224V284.092V283.96V283.829V283.698V283.568V283.438V283.308V283.179V283.05V282.921V282.793V282.666V282.538V282.412V282.285V282.159V282.034V281.908V281.784V281.659V281.536V281.412V281.289V281.167V281.045V280.923V280.802V280.681V280.561V280.441V280.322V280.203V280.084V279.966V279.849V279.732V279.615V279.499V279.384V279.269V279.154V279.04V278.926V278.813V278.701V278.589V278.477V278.366V278.255V278.145V278.036V277.927V277.818V277.71V277.603V277.496V277.389V277.284V277.178V277.073V276.969V276.865V276.762V276.66V276.558V276.456V276.355V276.255V276.155V276.056V275.957V275.859V275.762V275.665V275.568V275.473V275.377V275.283V275.189V275.095V275.003V274.91V274.819V274.728V274.637V274.548V274.458V274.37V274.282V274.195V274.108V274.022V273.936V273.852V273.767V273.684V273.601V273.519V273.437V273.356V273.276V273.196V273.117V273.039V272.961V272.884V272.808V272.732V272.657V272.583V272.509V272.436V272.364V272.293V272.222V272.152V272.082V272.013V272.013C388.976 271.162 387.006 269.998 384.598 268.584C379.367 265.512 372.121 261.293 364.077 256.628C351.218 249.172 336.339 240.591 324.415 233.762ZM325.099 421.141L324.78 333.683L390.401 332.852V383.944L325.099 421.141ZM440.503 242.839L366.134 200.077L371.537 190.682L448.606 234.997L451.307 236.55L451.324 239.665L452.287 414.998L452.304 418.126L449.604 419.705L296.429 509.298L293.622 510.94L290.853 509.236L265.805 493.822L263.227 492.235V489.207V434.557C250.335 427.217 232.572 416.987 217.641 408.343C209.63 403.704 202.428 399.518 197.225 396.476C194.626 394.956 192.517 393.717 191.054 392.849C190.326 392.416 189.741 392.066 189.33 391.815C189.131 391.693 188.94 391.574 188.785 391.474C188.717 391.431 188.595 391.351 188.464 391.258C188.414 391.222 188.257 391.109 188.073 390.953C187.997 390.888 187.775 390.698 187.528 390.419C187.397 390.267 187.091 389.859 186.925 389.597C186.679 389.138 186.238 387.751 186.157 386.816V386.815V386.811V386.797L186.157 386.749L186.157 386.565L186.157 385.866L186.157 383.212L186.155 373.508C186.153 365.323 186.152 354.019 186.15 341.494C186.146 316.443 186.142 286.505 186.142 266.847V263.649L188.942 262.103L266.026 219.537L274.064 215.098V224.281V486.179L293.764 498.301L441.432 411.929L440.503 242.839ZM263.227 422.08V233.463L196.98 270.045C196.98 289.652 196.984 317.764 196.987 341.492C196.99 360.808 196.993 377.22 196.994 383.771C198.402 384.605 200.338 385.742 202.696 387.12C207.88 390.151 215.067 394.329 223.072 398.964C236.013 406.456 251.071 415.134 263.227 422.08Z" fill="#BB5BE9"/>
<circle cx="365.949" cy="193.456" r="9.63367" fill="#BB5BE9"/>
<circle cx="219.521" cy="463.192" r="9.63367" fill="#BB5BE9"/>
</g>
<path d="M119.852 685.719C119.852 679.885 120.724 674.99 122.469 671.031C123.771 668.115 125.542 665.497 127.781 663.18C130.047 660.862 132.521 659.143 135.203 658.023C138.771 656.513 142.885 655.758 147.547 655.758C155.984 655.758 162.729 658.375 167.781 663.609C172.859 668.844 175.398 676.122 175.398 685.445C175.398 694.69 172.885 701.93 167.859 707.164C162.833 712.372 156.115 714.977 147.703 714.977C139.188 714.977 132.417 712.385 127.391 707.203C122.365 701.995 119.852 694.833 119.852 685.719ZM131.766 685.328C131.766 691.812 133.263 696.734 136.258 700.094C139.253 703.427 143.055 705.094 147.664 705.094C152.273 705.094 156.049 703.44 158.992 700.133C161.961 696.799 163.445 691.812 163.445 685.172C163.445 678.609 162 673.714 159.109 670.484C156.245 667.255 152.43 665.641 147.664 665.641C142.898 665.641 139.057 667.281 136.141 670.562C133.224 673.818 131.766 678.74 131.766 685.328ZM186.1 714V656.734H210.436C216.556 656.734 220.996 657.255 223.756 658.297C226.543 659.312 228.769 661.135 230.436 663.766C232.103 666.396 232.936 669.404 232.936 672.789C232.936 677.086 231.673 680.641 229.147 683.453C226.621 686.24 222.845 687.997 217.819 688.727C220.319 690.185 222.376 691.786 223.991 693.531C225.631 695.276 227.832 698.375 230.592 702.828L237.584 714H223.756L215.397 701.539C212.428 697.086 210.397 694.286 209.303 693.141C208.209 691.969 207.051 691.174 205.827 690.758C204.603 690.315 202.663 690.094 200.006 690.094H197.663V714H186.1ZM197.663 680.953H206.217C211.764 680.953 215.228 680.719 216.608 680.25C217.988 679.781 219.069 678.974 219.85 677.828C220.631 676.682 221.022 675.25 221.022 673.531C221.022 671.604 220.501 670.055 219.459 668.883C218.444 667.685 216.998 666.93 215.123 666.617C214.186 666.487 211.373 666.422 206.686 666.422H197.663V680.953ZM245.512 656.734H268.403C272.934 656.734 276.307 656.93 278.52 657.32C280.76 657.685 282.752 658.466 284.497 659.664C286.268 660.862 287.739 662.464 288.911 664.469C290.083 666.448 290.669 668.674 290.669 671.148C290.669 673.831 289.94 676.292 288.481 678.531C287.049 680.771 285.096 682.451 282.622 683.57C286.111 684.586 288.794 686.318 290.669 688.766C292.544 691.214 293.481 694.091 293.481 697.398C293.481 700.003 292.869 702.542 291.645 705.016C290.447 707.464 288.794 709.43 286.684 710.914C284.601 712.372 282.023 713.271 278.95 713.609C277.023 713.818 272.374 713.948 265.005 714H245.512V656.734ZM257.075 666.266V679.508H264.653C269.158 679.508 271.958 679.443 273.052 679.312C275.031 679.078 276.58 678.401 277.7 677.281C278.846 676.135 279.419 674.638 279.419 672.789C279.419 671.018 278.924 669.586 277.934 668.492C276.971 667.372 275.526 666.695 273.598 666.461C272.453 666.331 269.158 666.266 263.716 666.266H257.075ZM257.075 689.039V704.352H267.778C271.945 704.352 274.588 704.234 275.708 704C277.427 703.688 278.82 702.932 279.887 701.734C280.981 700.51 281.528 698.883 281.528 696.852C281.528 695.133 281.111 693.674 280.278 692.477C279.445 691.279 278.234 690.406 276.645 689.859C275.083 689.312 271.671 689.039 266.411 689.039H257.075ZM304.886 714V656.734H347.347V666.422H316.448V679.117H345.198V688.766H316.448V704.352H348.441V714H304.886ZM359.845 714V656.734H402.306V666.422H371.408V679.117H400.158V688.766H371.408V704.352H403.4V714H359.845ZM414.648 714V656.734H431.953L442.344 695.797L452.617 656.734H469.961V714H459.219V668.922L447.852 714H436.719L425.391 668.922V714H414.648Z" fill="white"/>
<defs>
<filter id="filter0_d_68_126" x="0.846985" y="0.847046" width="589.067" height="420.478" filterUnits="userSpaceOnUse" color-interpolation-filters="sRGB">
<feFlood flood-opacity="0" result="BackgroundImageFix"/>
<feColorMatrix in="SourceAlpha" type="matrix" values="0 0 0 0 0 0 0 0 0 0 0 0 0 0 0 0 0 0 127 0" result="hardAlpha"/>
<feOffset/>
<feGaussianBlur stdDeviation="45.3831"/>
<feComposite in2="hardAlpha" operator="out"/>
<feColorMatrix type="matrix" values="0 0 0 0 0.0703705 0 0 0 0 0.327341 0 0 0 0 1 0 0 0 1 0"/>
<feBlend mode="normal" in2="BackgroundImageFix" result="effect1_dropShadow_68_126"/>
<feBlend mode="normal" in="SourceGraphic" in2="effect1_dropShadow_68_126" result="shape"/>
</filter>
<filter id="filter1_d_68_126" x="201.228" y="116.805" width="390.531" height="535.272" filterUnits="userSpaceOnUse" color-interpolation-filters="sRGB">
<feFlood flood-opacity="0" result="BackgroundImageFix"/>
<feColorMatrix in="SourceAlpha" type="matrix" values="0 0 0 0 0 0 0 0 0 0 0 0 0 0 0 0 0 0 127 0" result="hardAlpha"/>
<feOffset/>
<feGaussianBlur stdDeviation="45.3831"/>
<feComposite in2="hardAlpha" operator="out"/>
<feColorMatrix type="matrix" values="0 0 0 0 0.0703705 0 0 0 0 0.327341 0 0 0 0 1 0 0 0 1 0"/>
<feBlend mode="normal" in2="BackgroundImageFix" result="effect1_dropShadow_68_126"/>
<feBlend mode="normal" in="SourceGraphic" in2="effect1_dropShadow_68_126" result="shape"/>
</filter>
<filter id="filter2_d_68_126" x="0.84729" y="116.45" width="388.686" height="536.081" filterUnits="userSpaceOnUse" color-interpolation-filters="sRGB">
<feFlood flood-opacity="0" result="BackgroundImageFix"/>
<feColorMatrix in="SourceAlpha" type="matrix" values="0 0 0 0 0 0 0 0 0 0 0 0 0 0 0 0 0 0 127 0" result="hardAlpha"/>
<feOffset/>
<feGaussianBlur stdDeviation="45.3831"/>
<feComposite in2="hardAlpha" operator="out"/>
<feColorMatrix type="matrix" values="0 0 0 0 0.0703705 0 0 0 0 0.327341 0 0 0 0 1 0 0 0 1 0"/>
<feBlend mode="normal" in2="BackgroundImageFix" result="effect1_dropShadow_68_126"/>
<feBlend mode="normal" in="SourceGraphic" in2="effect1_dropShadow_68_126" result="shape"/>
</filter>
<filter id="filter3_d_68_126" x="103.688" y="114.649" width="379.775" height="427.45" filterUnits="userSpaceOnUse" color-interpolation-filters="sRGB">
<feFlood flood-opacity="0" result="BackgroundImageFix"/>
<feColorMatrix in="SourceAlpha" type="matrix" values="0 0 0 0 0 0 0 0 0 0 0 0 0 0 0 0 0 0 127 0" result="hardAlpha"/>
<feOffset/>
<feGaussianBlur stdDeviation="15.5793"/>
<feComposite in2="hardAlpha" operator="out"/>
<feColorMatrix type="matrix" values="0 0 0 0 0.734731 0 0 0 0 0.356973 0 0 0 0 0.9125 0 0 0 1 0"/>
<feBlend mode="normal" in2="BackgroundImageFix" result="effect1_dropShadow_68_126"/>
<feBlend mode="normal" in="SourceGraphic" in2="effect1_dropShadow_68_126" result="shape"/>
</filter>
</defs>
</svg>
