<svg width="357" height="54" viewBox="0 0 357 54" fill="none" xmlns="http://www.w3.org/2000/svg">
<path d="M21.992 21V4.96396H23.9455V21H21.992ZM46.5753 13.9048C47.5581 15.3191 48.5289 16.7733 49.4877 18.2674H49.5596C49.4557 16.7093 49.4038 15.1193 49.4038 13.4973V4.96396H51.3573V21H49.4158L43.1236 12.0591C42.0369 10.5011 41.0661 9.04688 40.2112 7.69656H40.1393C40.2432 9.15874 40.2951 10.8646 40.2951 12.8142V21H38.3415V4.96396H40.2831L46.5753 13.9048ZM67.6949 21H65.7414V4.96396H75.3055V6.72576H67.6949V11.9033H74.4425V13.6651H67.6949V21ZM100.836 12.994C100.836 11.9153 100.696 10.9645 100.416 10.1415C100.136 9.31854 99.7489 8.63139 99.2536 8.08008C98.7662 7.52877 98.1869 7.11328 97.5157 6.83363C96.8526 6.54599 96.1374 6.40217 95.3704 6.40217C94.6034 6.40217 93.8842 6.54599 93.2131 6.83363C92.5499 7.11328 91.9706 7.52877 91.4752 8.08008C90.9879 8.63139 90.6043 9.31854 90.3247 10.1415C90.045 10.9645 89.9052 11.9153 89.9052 12.994C89.9052 14.0726 90.045 15.0234 90.3247 15.8464C90.6123 16.6614 90.9998 17.3445 91.4872 17.8959C91.9826 18.4472 92.5619 18.8627 93.2251 19.1423C93.8962 19.422 94.6193 19.5618 95.3944 19.5618C96.1614 19.5618 96.8725 19.422 97.5277 19.1423C98.1909 18.8627 98.7662 18.4472 99.2536 17.8959C99.7489 17.3445 100.136 16.6614 100.416 15.8464C100.696 15.0234 100.836 14.0726 100.836 12.994ZM102.897 12.994C102.897 14.2085 102.721 15.3231 102.37 16.3378C102.018 17.3525 101.515 18.2275 100.86 18.9625C100.204 19.6976 99.4134 20.2729 98.4865 20.6884C97.5677 21.0959 96.5369 21.2996 95.3944 21.2996C94.2118 21.2996 93.1532 21.0959 92.2183 20.6884C91.2835 20.2729 90.4925 19.6976 89.8453 18.9625C89.1981 18.2275 88.7027 17.3525 88.3591 16.3378C88.0156 15.3231 87.8438 14.2085 87.8438 12.994C87.8438 11.7715 88.0195 10.6529 88.3711 9.63814C88.7307 8.61541 89.234 7.73651 89.8812 7.00142C90.5364 6.26634 91.3274 5.69505 92.2543 5.28755C93.1811 4.87207 94.2198 4.66433 95.3704 4.66433C96.5449 4.66433 97.5956 4.87207 98.5225 5.28755C99.4573 5.69505 100.248 6.26634 100.896 7.00142C101.543 7.73651 102.038 8.61541 102.382 9.63814C102.725 10.6529 102.897 11.7715 102.897 12.994ZM129.746 16.0022C129.578 15.9543 129.402 15.9063 129.218 15.8584C129.042 15.8105 128.855 15.7665 128.655 15.7266C128.455 15.6866 128.235 15.6547 127.996 15.6307C127.756 15.5987 127.492 15.5827 127.205 15.5827C126.414 15.5827 125.794 15.7505 125.347 16.0861C124.9 16.4217 124.676 16.9371 124.676 17.6322C124.676 17.9438 124.728 18.2155 124.832 18.4472C124.936 18.6709 125.075 18.8627 125.251 19.0225C125.435 19.1743 125.647 19.2901 125.886 19.37C126.134 19.4419 126.398 19.4779 126.677 19.4779C126.981 19.4779 127.277 19.4379 127.564 19.358C127.86 19.2781 128.136 19.1743 128.391 19.0464C128.655 18.9106 128.899 18.7548 129.122 18.579C129.354 18.4032 129.562 18.2235 129.746 18.0397V16.0022ZM129.841 19.5019C129.674 19.6936 129.478 19.8854 129.254 20.0771C129.03 20.2609 128.775 20.4287 128.487 20.5805C128.199 20.7243 127.88 20.8402 127.528 20.9281C127.177 21.016 126.793 21.0599 126.378 21.0599C125.85 21.0599 125.363 20.98 124.916 20.8202C124.476 20.6604 124.097 20.4327 123.777 20.1371C123.457 19.8335 123.206 19.4739 123.022 19.0584C122.846 18.6349 122.758 18.1595 122.758 17.6322C122.758 17.0649 122.858 16.5575 123.058 16.1101C123.266 15.6626 123.553 15.2831 123.921 14.9715C124.288 14.6599 124.728 14.4202 125.239 14.2524C125.759 14.0846 126.33 14.0007 126.953 14.0007C127.56 14.0007 128.076 14.0526 128.499 14.1565C128.931 14.2604 129.33 14.3802 129.698 14.5161H129.746V13.8449C129.746 13.4214 129.698 13.0379 129.602 12.6943C129.506 12.3508 129.346 12.0591 129.122 11.8194C128.899 11.5717 128.603 11.384 128.235 11.2561C127.876 11.1203 127.424 11.0524 126.881 11.0524C126.306 11.0524 125.762 11.1083 125.251 11.2202C124.748 11.324 124.244 11.4719 123.741 11.6636V10.1056C123.941 10.0097 124.168 9.92179 124.424 9.84189C124.68 9.754 124.952 9.68209 125.239 9.62616C125.527 9.56223 125.83 9.51429 126.15 9.48233C126.47 9.45037 126.789 9.43439 127.109 9.43439C127.876 9.43439 128.539 9.53427 129.098 9.73402C129.666 9.93377 130.133 10.2134 130.501 10.573C130.876 10.9325 131.152 11.368 131.328 11.8794C131.511 12.3907 131.603 12.958 131.603 13.5812V18.2674C131.603 18.6829 131.667 18.9905 131.795 19.1903C131.923 19.382 132.167 19.4779 132.526 19.4779C132.966 19.4779 133.369 19.3381 133.737 19.0584C134.104 18.7788 134.42 18.3992 134.683 17.9198C134.947 17.4404 135.151 16.8811 135.295 16.2419C135.446 15.6027 135.522 14.9236 135.522 14.2045C135.522 12.9101 135.307 11.7715 134.875 10.7887C134.444 9.79794 133.852 8.97097 133.101 8.3078C132.35 7.63663 131.475 7.13326 130.477 6.79768C129.478 6.4541 128.407 6.28232 127.265 6.28232C126.25 6.28232 125.331 6.39817 124.508 6.62988C123.693 6.8616 122.966 7.18519 122.327 7.60068C121.688 8.00817 121.136 8.49956 120.673 9.07484C120.217 9.65013 119.842 10.2813 119.546 10.9685C119.251 11.6476 119.031 12.3707 118.887 13.1378C118.743 13.9048 118.671 14.6919 118.671 15.4988C118.671 16.7932 118.855 17.9838 119.223 19.0704C119.598 20.1491 120.157 21.0799 120.901 21.8629C121.644 22.6539 122.57 23.2692 123.681 23.7086C124.792 24.1481 126.086 24.3678 127.564 24.3678C128.259 24.3678 128.923 24.3319 129.554 24.2599C130.185 24.196 130.776 24.1081 131.328 23.9963C131.879 23.8844 132.382 23.7566 132.838 23.6127C133.301 23.4769 133.709 23.3331 134.06 23.1813V24.7993C133.701 24.9431 133.277 25.0829 132.79 25.2187C132.31 25.3626 131.783 25.4864 131.208 25.5903C130.632 25.7021 130.021 25.79 129.374 25.854C128.735 25.9179 128.08 25.9498 127.408 25.9498C126.442 25.9498 125.507 25.85 124.604 25.6502C123.709 25.4585 122.866 25.1668 122.075 24.7753C121.292 24.3918 120.577 23.9124 119.93 23.3371C119.283 22.7618 118.727 22.0906 118.264 21.3236C117.8 20.5566 117.441 19.6976 117.185 18.7468C116.929 17.788 116.802 16.7413 116.802 15.6067C116.802 13.9528 117.049 12.4506 117.545 11.1003C118.04 9.75 118.743 8.59943 119.654 7.64862C120.565 6.6978 121.664 5.96271 122.95 5.44336C124.244 4.92401 125.687 4.66433 127.277 4.66433C128.739 4.66433 130.081 4.89205 131.304 5.34748C132.534 5.79492 133.593 6.43413 134.48 7.26509C135.367 8.08807 136.058 9.07884 136.553 10.2374C137.048 11.388 137.296 12.6664 137.296 14.0726C137.296 15.1513 137.164 16.1221 136.901 16.985C136.645 17.8479 136.289 18.583 135.834 19.1903C135.379 19.7895 134.839 20.2529 134.216 20.5805C133.593 20.9001 132.918 21.0599 132.19 21.0599C131.847 21.0599 131.543 21.02 131.28 20.9401C131.024 20.8602 130.804 20.7523 130.62 20.6165C130.437 20.4806 130.285 20.3169 130.165 20.1251C130.045 19.9333 129.953 19.7256 129.889 19.5019H129.841ZM164.193 12.994C164.193 11.9153 164.053 10.9645 163.773 10.1415C163.493 9.31854 163.106 8.63139 162.611 8.08008C162.123 7.52877 161.544 7.11328 160.873 6.83363C160.21 6.54599 159.494 6.40217 158.727 6.40217C157.96 6.40217 157.241 6.54599 156.57 6.83363C155.907 7.11328 155.328 7.52877 154.832 8.08008C154.345 8.63139 153.961 9.31854 153.682 10.1415C153.402 10.9645 153.262 11.9153 153.262 12.994C153.262 14.0726 153.402 15.0234 153.682 15.8464C153.969 16.6614 154.357 17.3445 154.844 17.8959C155.34 18.4472 155.919 18.8627 156.582 19.1423C157.253 19.422 157.976 19.5618 158.751 19.5618C159.518 19.5618 160.23 19.422 160.885 19.1423C161.548 18.8627 162.123 18.4472 162.611 17.8959C163.106 17.3445 163.493 16.6614 163.773 15.8464C164.053 15.0234 164.193 14.0726 164.193 12.994ZM166.254 12.994C166.254 14.2085 166.078 15.3231 165.727 16.3378C165.375 17.3525 164.872 18.2275 164.217 18.9625C163.561 19.6976 162.77 20.2729 161.844 20.6884C160.925 21.0959 159.894 21.2996 158.751 21.2996C157.569 21.2996 156.51 21.0959 155.575 20.6884C154.64 20.2729 153.849 19.6976 153.202 18.9625C152.555 18.2275 152.06 17.3525 151.716 16.3378C151.373 15.3231 151.201 14.2085 151.201 12.994C151.201 11.7715 151.377 10.6529 151.728 9.63814C152.088 8.61541 152.591 7.73651 153.238 7.00142C153.893 6.26634 154.684 5.69505 155.611 5.28755C156.538 4.87207 157.577 4.66433 158.727 4.66433C159.902 4.66433 160.953 4.87207 161.879 5.28755C162.814 5.69505 163.605 6.26634 164.253 7.00142C164.9 7.73651 165.395 8.61541 165.739 9.63814C166.082 10.6529 166.254 11.7715 166.254 12.994ZM181.992 14.3603V21H180.039V4.96396H184.198C184.901 4.96396 185.496 4.99192 185.983 5.04785C186.479 5.09579 186.93 5.17569 187.338 5.28755C188.456 5.59118 189.311 6.11053 189.903 6.84562C190.494 7.57271 190.789 8.48358 190.789 9.57821C190.789 10.2254 190.686 10.8047 190.478 11.3161C190.27 11.8274 189.978 12.2709 189.603 12.6464C189.227 13.0219 188.776 13.3295 188.249 13.5692C187.729 13.8089 187.15 13.9847 186.511 14.0966V14.1445L191.748 21H189.291L184.353 14.3603H181.992ZM181.992 6.72576V12.5985H183.922C184.521 12.5985 185.033 12.5785 185.456 12.5385C185.88 12.4986 186.259 12.4267 186.595 12.3228C187.274 12.1151 187.797 11.7835 188.165 11.328C188.532 10.8726 188.716 10.2773 188.716 9.54226C188.708 8.85511 188.532 8.3038 188.189 7.88832C187.845 7.46485 187.37 7.16122 186.762 6.97745C186.475 6.88956 186.131 6.82564 185.732 6.78569C185.332 6.74574 184.825 6.72576 184.21 6.72576H181.992ZM212.784 12.7063C213.279 12.7782 213.723 12.9101 214.114 13.1018C214.514 13.2936 214.853 13.5413 215.133 13.8449C215.421 14.1405 215.64 14.4961 215.792 14.9116C215.944 15.3191 216.02 15.7865 216.02 16.3138C216.02 16.6894 215.964 17.0849 215.852 17.5004C215.74 17.9078 215.553 18.3074 215.289 18.6989C215.033 19.0824 214.694 19.4379 214.27 19.7655C213.855 20.0931 213.335 20.3608 212.712 20.5685C212.233 20.7283 211.701 20.8402 211.118 20.9041C210.535 20.968 209.836 21 209.021 21H204.874V4.96396H208.877C209.244 4.96396 209.576 4.97195 209.872 4.98793C210.175 4.99592 210.451 5.0119 210.699 5.03587C210.954 5.05984 211.19 5.0918 211.406 5.13175C211.621 5.16371 211.825 5.20366 212.017 5.2516C212.52 5.38743 212.976 5.5752 213.383 5.8149C213.799 6.04661 214.15 6.32626 214.438 6.65385C214.726 6.98145 214.945 7.35298 215.097 7.76847C215.257 8.18395 215.337 8.63539 215.337 9.12278C215.337 9.51429 215.289 9.88983 215.193 10.2494C215.105 10.6089 214.957 10.9405 214.75 11.2441C214.55 11.5478 214.286 11.8194 213.958 12.0591C213.639 12.2988 213.247 12.4986 212.784 12.6584V12.7063ZM209.8 11.9033C210.183 11.9033 210.515 11.8873 210.794 11.8554C211.074 11.8154 211.326 11.7595 211.549 11.6876C212.149 11.4878 212.584 11.1762 212.856 10.7528C213.136 10.3293 213.275 9.8299 213.275 9.25462C213.275 8.66335 213.132 8.17996 212.844 7.80442C212.556 7.42889 212.105 7.14924 211.49 6.96547C211.186 6.87758 210.834 6.81765 210.435 6.78569C210.035 6.74574 209.564 6.72576 209.021 6.72576H206.827V11.9033H209.8ZM206.827 13.6651V19.2382H209.188C209.748 19.2382 210.267 19.2142 210.746 19.1663C211.226 19.1104 211.633 19.0265 211.969 18.9146C212.337 18.7947 212.648 18.6429 212.904 18.4592C213.159 18.2674 213.363 18.0597 213.515 17.8359C213.675 17.6042 213.787 17.3605 213.851 17.1048C213.923 16.8492 213.958 16.5895 213.958 16.3258C213.958 16.0222 213.923 15.7385 213.851 15.4749C213.779 15.2032 213.659 14.9635 213.491 14.7558C213.331 14.54 213.116 14.3523 212.844 14.1925C212.58 14.0327 212.249 13.9088 211.849 13.8209C211.609 13.765 211.334 13.7251 211.022 13.7011C210.719 13.6771 210.339 13.6651 209.884 13.6651H206.827ZM231.71 19.2382H239.932V21H229.757V4.96396H239.489V6.72576H231.71V11.9033H238.626V13.6651H231.71V19.2382ZM255.563 19.2382H263.784V21H253.609V4.96396H263.341V6.72576H255.563V11.9033H262.478V13.6651H255.563V19.2382ZM285.959 21H285.06L281.021 11.4239C280.461 10.1056 279.902 8.67134 279.343 7.12127H279.247C279.359 9.3505 279.415 11.392 279.415 13.2457V21H277.461V4.96396H280.278L284.053 14.0367C284.484 15.0754 284.96 16.3258 285.479 17.788H285.539C286.114 16.166 286.59 14.9156 286.965 14.0367L290.741 4.96396H293.557V21H291.604V13.2457C291.604 11.4319 291.66 9.39045 291.771 7.12127H291.676C291.084 8.75923 290.525 10.1934 289.998 11.4239L285.959 21ZM308.013 21V18.6629H310.302V21H308.013ZM324.758 21V4.96396H326.712V21H324.758ZM353.5 12.994C353.5 11.9153 353.361 10.9645 353.081 10.1415C352.801 9.31854 352.414 8.63139 351.918 8.08008C351.431 7.52877 350.852 7.11328 350.18 6.83363C349.517 6.54599 348.802 6.40217 348.035 6.40217C347.268 6.40217 346.549 6.54599 345.878 6.83363C345.215 7.11328 344.635 7.52877 344.14 8.08008C343.653 8.63139 343.269 9.31854 342.989 10.1415C342.71 10.9645 342.57 11.9153 342.57 12.994C342.57 14.0726 342.71 15.0234 342.989 15.8464C343.277 16.6614 343.665 17.3445 344.152 17.8959C344.647 18.4472 345.227 18.8627 345.89 19.1423C346.561 19.422 347.284 19.5618 348.059 19.5618C348.826 19.5618 349.537 19.422 350.192 19.1423C350.856 18.8627 351.431 18.4472 351.918 17.8959C352.414 17.3445 352.801 16.6614 353.081 15.8464C353.361 15.0234 353.5 14.0726 353.5 12.994ZM355.562 12.994C355.562 14.2085 355.386 15.3231 355.034 16.3378C354.683 17.3525 354.18 18.2275 353.524 18.9625C352.869 19.6976 352.078 20.2729 351.151 20.6884C350.232 21.0959 349.202 21.2996 348.059 21.2996C346.877 21.2996 345.818 21.0959 344.883 20.6884C343.948 20.2729 343.157 19.6976 342.51 18.9625C341.863 18.2275 341.367 17.3525 341.024 16.3378C340.68 15.3231 340.509 14.2085 340.509 12.994C340.509 11.7715 340.684 10.6529 341.036 9.63814C341.395 8.61541 341.899 7.73651 342.546 7.00142C343.201 6.26634 343.992 5.69505 344.919 5.28755C345.846 4.87207 346.885 4.66433 348.035 4.66433C349.21 4.66433 350.26 4.87207 351.187 5.28755C352.122 5.69505 352.913 6.26634 353.56 7.00142C354.207 7.73651 354.703 8.61541 355.046 9.63814C355.39 10.6529 355.562 11.7715 355.562 12.994Z" fill="white"/>
<path d="M20.959 40.4766C20.959 39.181 21.2096 38.0156 21.7109 36.9805C22.2188 35.9453 22.9219 35.138 23.8203 34.5586C24.7188 33.9727 25.7376 33.6797 26.877 33.6797C28.0684 33.6797 29.11 33.9727 30.002 34.5586C30.9004 35.138 31.5905 35.9421 32.0723 36.9707C32.5605 37.9993 32.8047 39.168 32.8047 40.4766C32.8047 41.7656 32.554 42.9245 32.0527 43.9531C31.5514 44.9818 30.8516 45.7891 29.9531 46.375C29.0612 46.9544 28.0521 47.2441 26.9258 47.2441C25.7214 47.2441 24.6667 46.9544 23.7617 46.375C22.8633 45.7956 22.1699 44.9948 21.6816 43.9727C21.1999 42.944 20.959 41.7786 20.959 40.4766ZM31.877 40.4766C31.877 39.2266 31.6556 38.1491 31.2129 37.2441C30.7702 36.3327 30.168 35.6426 29.4062 35.1738C28.651 34.6986 27.8079 34.4609 26.877 34.4609C25.959 34.4609 25.1191 34.6986 24.3574 35.1738C23.5957 35.6426 22.9902 36.3327 22.541 37.2441C22.0983 38.1491 21.877 39.2266 21.877 40.4766C21.877 41.7396 22.1016 42.8236 22.5508 43.7285C23 44.627 23.6055 45.3073 24.3672 45.7695C25.1354 46.2318 25.9883 46.4629 26.9258 46.4629C27.8438 46.4629 28.6771 46.2318 29.4258 45.7695C30.1745 45.3073 30.7702 44.627 31.2129 43.7285C31.6556 42.8236 31.877 41.7396 31.877 40.4766ZM39.152 33.9434C39.9658 33.9434 40.6005 33.9759 41.0563 34.041C43.1721 34.4512 44.2301 35.571 44.2301 37.4004C44.2301 38.4681 43.8818 39.347 43.1852 40.0371C42.4885 40.7272 41.5706 41.1016 40.4313 41.1602V41.1992L44.9918 47H43.9371L39.3766 41.2578H37.15V47H36.2906V33.9434H39.152ZM43.3316 37.3809C43.3316 36.4043 42.9605 35.7174 42.2184 35.3203C41.4762 34.9232 40.4215 34.7246 39.0543 34.7246H37.15V40.4766H39.0934C40.5126 40.4766 41.5738 40.2357 42.277 39.7539C42.9801 39.2721 43.3316 38.4811 43.3316 37.3809ZM49.9816 33.9434C51.0754 33.9434 51.925 33.9922 52.5305 34.0898C53.1359 34.181 53.6828 34.3763 54.1711 34.6758C54.6594 34.9688 55.0142 35.3236 55.2355 35.7402C55.4569 36.1569 55.5676 36.6582 55.5676 37.2441C55.5676 38.8587 54.7473 39.8581 53.1066 40.2422V40.2812C54.0507 40.3008 54.7896 40.5775 55.3234 41.1113C55.8573 41.6387 56.1242 42.3743 56.1242 43.3184C56.1242 44.0085 55.9289 44.6497 55.5383 45.2422C55.1542 45.8281 54.6366 46.2676 53.9855 46.5605C53.341 46.8535 52.3059 47 50.8801 47H47.882V33.9434H49.9816ZM54.6008 37.2832C54.6008 36.6842 54.4673 36.2025 54.2004 35.8379C53.94 35.4668 53.5363 35.1901 52.9895 35.0078C52.4426 34.819 51.5734 34.7246 50.382 34.7246H48.7414V39.9199H51.427C52.1626 39.9199 52.7583 39.819 53.2141 39.6172C53.6698 39.4089 54.0148 39.1061 54.2492 38.709C54.4836 38.3053 54.6008 37.8301 54.6008 37.2832ZM55.1672 43.3184C55.1672 42.6413 55.0044 42.0846 54.6789 41.6484C54.3599 41.2057 53.8098 40.9225 53.0285 40.7988C52.6704 40.7467 52.1431 40.7207 51.4465 40.7207H48.7414V46.2188H51.007C51.951 46.2188 52.7355 46.1243 53.3605 45.9355C53.9855 45.7467 54.4413 45.4115 54.7277 44.9297C55.0207 44.4414 55.1672 43.9043 55.1672 43.3184ZM59.6102 33.9434H67.0516V34.7246H60.4695V39.9199H66.4949V40.7012H60.4695V46.2188H67.4324V47H59.6102V33.9434ZM70.7328 33.9434H78.1742V34.7246H71.5922V39.9199H77.6176V40.7012H71.5922V46.2188H78.5551V47H70.7328V33.9434ZM83.1934 33.9434L87.1191 43.0645L88.3008 45.9844H88.3398L93.3789 33.9434H94.7168V47H93.877V40.9648C93.877 39.0117 93.9225 36.9382 94.0137 34.7441H93.9355C92.9655 36.9121 92.3665 38.2695 92.1387 38.8164L88.7598 47H87.9199L84.4531 38.8164C84.2839 38.4128 83.6784 37.0553 82.6367 34.7441H82.5781C82.6693 37.5111 82.7148 39.5846 82.7148 40.9648V47H81.8555V33.9434H83.1934ZM102.929 33.9434H103.788V47H102.929V33.9434ZM108.407 33.9434L114.286 42.1562L116.747 45.6816H116.805C116.714 44.8613 116.669 43.5137 116.669 41.6387V33.9434H117.528V47H116.786L110.887 38.6992L108.446 35.2422H108.407C108.485 36.0625 108.524 37.5892 108.524 39.8223V47H107.665V33.9434H108.407ZM121.004 40.584C121.004 39.2168 121.281 38.0124 121.834 36.9707C122.388 35.9225 123.162 35.112 124.159 34.5391C125.161 33.9661 126.31 33.6797 127.606 33.6797C128.14 33.6797 128.67 33.7318 129.198 33.8359C129.732 33.9401 130.116 34.0605 130.35 34.1973V35.0176C129.347 34.6595 128.459 34.4805 127.684 34.4805C126.616 34.4805 125.646 34.7116 124.774 35.1738C123.901 35.6361 123.208 36.3262 122.694 37.2441C122.179 38.1621 121.922 39.2819 121.922 40.6035C121.922 42.4785 122.433 43.9206 123.455 44.9297C124.484 45.9388 125.962 46.4434 127.889 46.4434C128.787 46.4434 129.653 46.2676 130.487 45.916V46.7168C130.161 46.8861 129.754 47.0163 129.266 47.1074C128.784 47.1986 128.283 47.2441 127.762 47.2441C125.588 47.2441 123.918 46.668 122.752 45.5156C121.587 44.3633 121.004 42.7194 121.004 40.584ZM140.075 47L145.417 33.9434H146.257L151.618 47H150.671L148.796 42.3613H142.878L141.013 47H140.075ZM148.474 41.5801L147.976 40.3203C146.889 37.6185 146.189 35.8314 145.876 34.959H145.837C145.57 35.7012 145.131 36.8047 144.519 38.2695C144.33 38.7188 143.881 39.8223 143.171 41.5801H148.474ZM154.137 33.9434H154.997V46.2188H161.618V47H154.137V33.9434ZM164.635 33.9434H165.495V46.2188H172.116V47H164.635V33.9434ZM182.3 33.9434C183.114 33.9434 183.749 33.9759 184.205 34.041C186.321 34.4512 187.379 35.571 187.379 37.4004C187.379 38.4681 187.03 39.347 186.334 40.0371C185.637 40.7272 184.719 41.1016 183.58 41.1602V41.1992L188.14 47H187.086L182.525 41.2578H180.298V47H179.439V33.9434H182.3ZM186.48 37.3809C186.48 36.4043 186.109 35.7174 185.367 35.3203C184.625 34.9232 183.57 34.7246 182.203 34.7246H180.298V40.4766H182.242C183.661 40.4766 184.722 40.2357 185.425 39.7539C186.129 39.2721 186.48 38.4811 186.48 37.3809ZM191.03 33.9434H191.89V47H191.03V33.9434ZM195.366 40.7598C195.366 39.3079 195.669 38.0482 196.274 36.9805C196.886 35.9128 197.726 35.0957 198.794 34.5293C199.868 33.9629 201.085 33.6797 202.446 33.6797C203.019 33.6797 203.55 33.7285 204.038 33.8262C204.533 33.9238 204.884 34.028 205.093 34.1387V34.9785C204.761 34.8548 204.331 34.7441 203.804 34.6465C203.276 34.5488 202.785 34.5 202.329 34.5C201.261 34.5 200.268 34.7246 199.35 35.1738C198.432 35.623 197.69 36.3066 197.124 37.2246C196.564 38.1426 196.284 39.2689 196.284 40.6035C196.284 42.472 196.808 43.9238 197.856 44.959C198.904 45.9876 200.389 46.502 202.309 46.502C203.026 46.502 203.826 46.3685 204.712 46.1016V41.3555H201.684V40.5352H205.571V46.5996C205.376 46.7624 204.93 46.9089 204.233 47.0391C203.543 47.1758 202.846 47.2441 202.143 47.2441C200.027 47.2441 198.367 46.6712 197.163 45.5254C195.965 44.373 195.366 42.7845 195.366 40.7598ZM209.448 33.9434H210.307V39.8809H217.885V33.9434H218.745V47H217.885V40.6621H210.307V47H209.448V33.9434ZM225.883 34.7441H221.381V33.9434H231.264V34.7441H226.742V47H225.883V34.7441ZM233.48 46.541V45.6035C233.799 45.7988 234.32 45.9876 235.043 46.1699C235.765 46.3522 236.364 46.4434 236.839 46.4434C238.011 46.4434 238.92 46.2253 239.564 45.7891C240.215 45.3529 240.541 44.6107 240.541 43.5625C240.541 43.0352 240.43 42.599 240.209 42.2539C239.994 41.9089 239.698 41.6322 239.32 41.4238C238.942 41.2155 238.265 40.9779 237.289 40.7109C236.442 40.4961 235.762 40.2845 235.248 40.0762C234.733 39.8613 234.3 39.5326 233.949 39.0898C233.597 38.6406 233.421 38.0384 233.421 37.2832C233.421 36.196 233.812 35.3236 234.593 34.666C235.381 34.0085 236.41 33.6797 237.679 33.6797C238.513 33.6797 239.326 33.8001 240.121 34.041C240.44 34.1582 240.726 34.2786 240.98 34.4023V35.3398C240.583 35.1576 240.241 35.0111 239.955 34.9004C239.675 34.7832 239.333 34.6823 238.929 34.5977C238.532 34.513 238.096 34.4674 237.621 34.4609C236.494 34.4609 235.658 34.7214 235.111 35.2422C234.571 35.763 234.3 36.4564 234.3 37.3223C234.3 37.8691 234.418 38.2988 234.652 38.6113C234.893 38.9238 235.215 39.1647 235.619 39.334C236.022 39.5033 236.625 39.6986 237.425 39.9199C238.324 40.1673 239.027 40.3984 239.535 40.6133C240.043 40.8216 240.482 41.1602 240.853 41.6289C241.231 42.0911 241.42 42.7227 241.42 43.5234C241.42 44.6953 241.016 45.61 240.209 46.2676C239.408 46.9186 238.265 47.2441 236.781 47.2441C236.169 47.2441 235.531 47.1628 234.867 47C234.203 46.8372 233.74 46.6842 233.48 46.541ZM252.014 33.9434C252.828 33.9434 253.463 33.9759 253.919 34.041C256.035 34.4512 257.093 35.571 257.093 37.4004C257.093 38.4681 256.744 39.347 256.048 40.0371C255.351 40.7272 254.433 41.1016 253.294 41.1602V41.1992L257.854 47H256.8L252.239 41.2578H250.012V47H249.153V33.9434H252.014ZM256.194 37.3809C256.194 36.4043 255.823 35.7174 255.081 35.3203C254.339 34.9232 253.284 34.7246 251.917 34.7246H250.012V40.4766H251.956C253.375 40.4766 254.436 40.2357 255.139 39.7539C255.843 39.2721 256.194 38.4811 256.194 37.3809ZM260.745 33.9434H268.186V34.7246H261.604V39.9199H267.629V40.7012H261.604V46.2188H268.567V47H260.745V33.9434ZM271.467 46.541V45.6035C271.786 45.7988 272.307 45.9876 273.029 46.1699C273.752 46.3522 274.351 46.4434 274.826 46.4434C275.998 46.4434 276.906 46.2253 277.551 45.7891C278.202 45.3529 278.527 44.6107 278.527 43.5625C278.527 43.0352 278.417 42.599 278.195 42.2539C277.98 41.9089 277.684 41.6322 277.307 41.4238C276.929 41.2155 276.252 40.9779 275.275 40.7109C274.429 40.4961 273.749 40.2845 273.234 40.0762C272.72 39.8613 272.287 39.5326 271.936 39.0898C271.584 38.6406 271.408 38.0384 271.408 37.2832C271.408 36.196 271.799 35.3236 272.58 34.666C273.368 34.0085 274.396 33.6797 275.666 33.6797C276.499 33.6797 277.313 33.8001 278.107 34.041C278.426 34.1582 278.713 34.2786 278.967 34.4023V35.3398C278.57 35.1576 278.228 35.0111 277.941 34.9004C277.661 34.7832 277.32 34.6823 276.916 34.5977C276.519 34.513 276.083 34.4674 275.607 34.4609C274.481 34.4609 273.645 34.7214 273.098 35.2422C272.557 35.763 272.287 36.4564 272.287 37.3223C272.287 37.8691 272.404 38.2988 272.639 38.6113C272.88 38.9238 273.202 39.1647 273.605 39.334C274.009 39.5033 274.611 39.6986 275.412 39.9199C276.311 40.1673 277.014 40.3984 277.521 40.6133C278.029 40.8216 278.469 41.1602 278.84 41.6289C279.217 42.0911 279.406 42.7227 279.406 43.5234C279.406 44.6953 279.003 45.61 278.195 46.2676C277.395 46.9186 276.252 47.2441 274.768 47.2441C274.156 47.2441 273.518 47.1628 272.854 47C272.189 46.8372 271.727 46.6842 271.467 46.541ZM282.834 33.9434H290.275V34.7246H283.693V39.9199H289.718V40.7012H283.693V46.2188H290.656V47H282.834V33.9434ZM296.818 33.9434C297.631 33.9434 298.266 33.9759 298.722 34.041C300.838 34.4512 301.896 35.571 301.896 37.4004C301.896 38.4681 301.547 39.347 300.851 40.0371C300.154 40.7272 299.236 41.1016 298.097 41.1602V41.1992L302.657 47H301.603L297.042 41.2578H294.816V47H293.956V33.9434H296.818ZM300.997 37.3809C300.997 36.4043 300.626 35.7174 299.884 35.3203C299.142 34.9232 298.087 34.7246 296.72 34.7246H294.816V40.4766H296.759C298.178 40.4766 299.239 40.2357 299.943 39.7539C300.646 39.2721 300.997 38.4811 300.997 37.3809ZM305.245 33.9434L307.774 40.916C308.66 43.3574 309.265 45.0924 309.591 46.1211H309.63C309.949 45.0729 310.434 43.6504 311.085 41.8535L313.927 33.9434H314.805L310.069 47H309.112L304.366 33.9434H305.245ZM317.53 33.9434H324.971V34.7246H318.389V39.9199H324.414V40.7012H318.389V46.2188H325.352V47H317.53V33.9434ZM331.211 33.9434C332.363 33.9434 333.258 34.0085 333.896 34.1387C335.505 34.5488 336.699 35.2975 337.48 36.3848C338.262 37.4655 338.652 38.8034 338.652 40.3984C338.652 42.0651 338.226 43.4714 337.373 44.6172C336.527 45.763 335.368 46.4922 333.896 46.8047C333.245 46.9349 332.445 47 331.494 47H328.652V33.9434H331.211ZM337.734 40.418C337.734 38.9792 337.409 37.7943 336.758 36.8633C336.113 35.9258 335.179 35.291 333.955 34.959C333.577 34.8613 333.154 34.7995 332.686 34.7734C332.217 34.7409 331.605 34.7246 330.85 34.7246H329.512V46.2188H330.918C331.628 46.2188 332.188 46.209 332.598 46.1895C333.014 46.1634 333.405 46.1081 333.77 46.0234C335.007 45.75 335.977 45.1152 336.68 44.1191C337.383 43.123 337.734 41.8893 337.734 40.418Z" fill="white"/>
<path d="M19.6211 47.9766H34.5426V48.4648H19.6211V47.9766Z" fill="white"/>
<a href="mailto:info@orbeem.IO">
<rect fill="black" fill-opacity="0" x="19.6211" y="-0.0751953" width="14.5215" height="24.1504"/>
</a>
</svg>
