<svg width="657" height="657" viewBox="0 0 657 657" fill="none" xmlns="http://www.w3.org/2000/svg">
<g style="mix-blend-mode:lighten" filter="url(#filter0_f_635_1042)">
<path d="M190.927 146.358C291.259 70.683 434.15 90.9481 510.082 191.621C586.015 292.295 566.236 435.253 465.904 510.928C365.572 586.604 222.681 566.338 146.749 465.665C70.816 364.992 90.5955 222.033 190.927 146.358Z" fill="url(#paint0_radial_635_1042)" fill-opacity="0.8"/>
</g>
<path d="M269.656 473.783C218.404 476.291 179.324 459.053 157.484 429.273C135.644 399.492 130.949 357.038 148.744 308.909C166.541 260.775 203.446 216.147 248.751 182.922C294.056 149.697 347.712 127.911 398.97 125.403C450.222 122.896 489.303 140.133 511.143 169.914C532.982 199.694 537.677 242.149 519.882 290.278C502.085 338.412 465.18 383.039 419.875 416.264C374.57 449.489 320.914 471.275 269.656 473.783Z" stroke="url(#paint1_linear_635_1042)" stroke-width="1.20396"/>
<path d="M269.656 473.783C218.404 476.291 179.324 459.053 157.484 429.273C135.644 399.492 130.949 357.038 148.744 308.909C166.541 260.775 203.446 216.147 248.751 182.922C294.056 149.697 347.712 127.911 398.97 125.403C450.222 122.896 489.303 140.133 511.143 169.914C532.982 199.694 537.677 242.149 519.882 290.278C502.085 338.412 465.18 383.039 419.875 416.264C374.57 449.489 320.914 471.275 269.656 473.783Z" stroke="url(#paint2_linear_635_1042)" stroke-opacity="0.2" stroke-width="1.20396"/>
<rect width="2.37544" height="2.37544" transform="matrix(0.986582 -0.163268 0.163288 0.986578 471.674 278.567)" fill="#00FFF0" fill-opacity="0.6"/>
<rect width="2.95484" height="2.95484" transform="matrix(-0.98658 0.163278 0.163278 0.98658 474.834 163.927)" fill="#00FFF0"/>
<rect x="529.645" y="211.231" width="3.14421" height="3.14421" transform="rotate(-9.39723 529.645 211.231)" fill="#00FFF0"/>
<rect width="3.14421" height="3.14421" transform="matrix(0.986579 -0.163286 0.163271 0.986581 465.379 463.996)" fill="#00FFF0" fill-opacity="0.5"/>
<rect x="409.271" y="393.641" width="1.72363" height="1.72363" transform="rotate(-9.39723 409.271 393.641)" fill="#00FFF0" fill-opacity="0.5"/>
<path d="M200.651 331.266V329.766C201.161 330.078 201.994 330.38 203.151 330.672C204.307 330.964 205.265 331.109 206.026 331.109C207.901 331.109 209.354 330.76 210.385 330.063C211.427 329.365 211.948 328.177 211.948 326.5C211.948 325.656 211.77 324.958 211.416 324.406C211.073 323.854 210.599 323.411 209.994 323.078C209.39 322.745 208.307 322.365 206.744 321.938C205.39 321.594 204.302 321.255 203.479 320.922C202.656 320.578 201.963 320.052 201.401 319.344C200.838 318.625 200.557 317.661 200.557 316.453C200.557 314.714 201.182 313.318 202.432 312.266C203.692 311.214 205.338 310.688 207.369 310.688C208.703 310.688 210.005 310.88 211.276 311.266C211.786 311.453 212.244 311.646 212.651 311.844V313.344C212.015 313.052 211.468 312.818 211.01 312.641C210.562 312.453 210.015 312.292 209.369 312.156C208.734 312.021 208.036 311.948 207.276 311.938C205.474 311.938 204.135 312.354 203.26 313.188C202.395 314.021 201.963 315.13 201.963 316.516C201.963 317.391 202.151 318.078 202.526 318.578C202.911 319.078 203.427 319.464 204.073 319.734C204.718 320.005 205.682 320.318 206.963 320.672C208.401 321.068 209.526 321.438 210.338 321.781C211.151 322.115 211.854 322.656 212.448 323.406C213.052 324.146 213.354 325.156 213.354 326.438C213.354 328.313 212.708 329.776 211.416 330.828C210.135 331.87 208.307 332.391 205.932 332.391C204.953 332.391 203.932 332.26 202.869 332C201.807 331.74 201.067 331.495 200.651 331.266ZM223.158 311.109H235.064V312.359H224.533V320.672H234.173V321.922H224.533V330.75H235.673V332H223.158V311.109ZM245.274 311.109H246.649V330.75H257.243V332H245.274V311.109ZM266.39 311.109H278.296V312.359H267.765V320.672H277.406V321.922H267.765V330.75H278.906V332H266.39V311.109ZM287.866 321.734C287.866 319.547 288.308 317.62 289.194 315.953C290.079 314.276 291.319 312.979 292.912 312.063C294.517 311.146 296.355 310.688 298.428 310.688C299.282 310.688 300.131 310.771 300.975 310.938C301.829 311.104 302.444 311.297 302.819 311.516V312.828C301.215 312.255 299.793 311.969 298.553 311.969C296.845 311.969 295.293 312.339 293.897 313.078C292.501 313.818 291.392 314.922 290.569 316.391C289.746 317.859 289.334 319.651 289.334 321.766C289.334 324.766 290.152 327.073 291.787 328.688C293.433 330.302 295.798 331.109 298.881 331.109C300.319 331.109 301.704 330.828 303.037 330.266V331.547C302.517 331.818 301.866 332.026 301.084 332.172C300.314 332.318 299.511 332.391 298.678 332.391C295.199 332.391 292.527 331.469 290.662 329.625C288.798 327.781 287.866 325.151 287.866 321.734ZM317.685 312.391H310.482V311.109H326.294V312.391H319.06V332H317.685V312.391ZM342.433 332L350.98 311.109H352.324L360.902 332H359.386L356.386 324.578H346.917L343.933 332H342.433ZM355.871 323.328L355.074 321.313C353.334 316.99 352.214 314.13 351.714 312.734H351.652C351.225 313.922 350.522 315.688 349.542 318.031C349.24 318.75 348.522 320.516 347.386 323.328H355.871ZM370.44 311.109L379.846 324.25L383.784 329.891H383.877C383.732 328.578 383.659 326.422 383.659 323.422V311.109H385.034V332H383.846L374.409 318.719L370.502 313.188H370.44C370.565 314.5 370.627 316.943 370.627 320.516V332H369.252V311.109H370.44ZM406.766 311.109H408.141V332H406.766V311.109ZM423.851 312.391H416.648V311.109H432.461V312.391H425.226V332H423.851V312.391ZM440.967 311.109H452.874V312.359H442.342V320.672H451.983V321.922H442.342V330.75H453.483V332H440.967V311.109ZM465.224 311.109L471.506 325.703L473.396 330.375H473.459L481.521 311.109H483.662V332H482.318V322.344C482.318 319.219 482.391 315.901 482.537 312.391H482.412C480.86 315.859 479.901 318.031 479.537 318.906L474.131 332H472.787L467.24 318.906C466.969 318.26 466 316.089 464.334 312.391H464.24C464.386 316.818 464.459 320.135 464.459 322.344V332H463.084V311.109H465.224Z" fill="white"/>
<rect x="209.943" y="425.424" width="4.67319" height="4.67319" transform="rotate(45 209.943 425.424)" fill="#00FFF0"/>
<rect width="2.1717" height="2.1717" transform="matrix(-0.707107 -0.707107 -0.707107 0.707107 294.68 440.751)" fill="#00FFF0"/>
<rect x="258.787" y="481.924" width="2.31088" height="2.31088" transform="rotate(45 258.787 481.924)" fill="#00FFF0"/>
<rect width="2.31088" height="2.31088" transform="matrix(0.707131 0.707082 -0.707131 0.707082 133.635 385.884)" fill="#00FFF0"/>
<rect width="2.31088" height="2.31088" transform="matrix(0.707131 0.707082 -0.707131 0.707082 145.979 308)" fill="#00FFF0" fill-opacity="0.5"/>
<rect x="181.322" y="353.465" width="1.61507" height="1.61507" transform="rotate(45 181.322 353.465)" fill="#00FFF0" fill-opacity="0.5"/>
<rect x="161.621" y="345.389" width="3.0132" height="3.0132" transform="rotate(45 161.621 345.389)" fill="#00FFF0" fill-opacity="0.5"/>
<g opacity="0.5">
<rect x="278.203" y="200.547" width="1.96334" height="1.96334" transform="rotate(-99.1537 278.203 200.547)" fill="#00FFF0" fill-opacity="0.6"/>
<rect width="2.44223" height="2.44223" transform="matrix(0.159083 0.987265 0.987265 -0.159083 183.402 197.533)" fill="#00FFF0"/>
<rect width="2.59874" height="2.59874" transform="matrix(-0.159091 -0.987264 0.987266 -0.159075 222.719 152.363)" fill="#00FFF0"/>
<rect x="431.543" y="206.405" width="2.59874" height="2.59874" transform="rotate(-99.1537 431.543 206.405)" fill="#00FFF0" fill-opacity="0.5"/>
<rect x="373.158" y="252.562" width="1.42461" height="1.42461" transform="rotate(-99.1537 373.158 252.562)" fill="#00FFF0" fill-opacity="0.5"/>
</g>
<defs>
<filter id="filter0_f_635_1042" x="0.574219" y="0.588623" width="655.684" height="656.109" filterUnits="userSpaceOnUse" color-interpolation-filters="sRGB">
<feFlood flood-opacity="0" result="BackgroundImageFix"/>
<feBlend mode="normal" in="SourceGraphic" in2="BackgroundImageFix" result="shape"/>
<feGaussianBlur stdDeviation="50" result="effect1_foregroundBlur_635_1042"/>
</filter>
<radialGradient id="paint0_radial_635_1042" cx="0" cy="0" r="1" gradientUnits="userSpaceOnUse" gradientTransform="translate(341.293 318.932) rotate(-46.0417) scale(180.785 181.717)">
<stop offset="0.0729167" stop-color="#8785FF"/>
<stop offset="1" stop-color="#3E0EFF" stop-opacity="0"/>
</radialGradient>
<linearGradient id="paint1_linear_635_1042" x1="201.964" y1="119.123" x2="359.544" y2="333.998" gradientUnits="userSpaceOnUse">
<stop stop-color="white" stop-opacity="0.6"/>
<stop offset="0.34375" stop-color="#8FBCFF" stop-opacity="0.6"/>
<stop offset="1" stop-color="#8FBCFF" stop-opacity="0"/>
</linearGradient>
<linearGradient id="paint2_linear_635_1042" x1="359.52" y1="132.711" x2="370.607" y2="204.723" gradientUnits="userSpaceOnUse">
<stop stop-color="#FF48D7"/>
<stop offset="0.234164" stop-color="white" stop-opacity="0.765836"/>
<stop offset="1" stop-color="#FF48D7" stop-opacity="0"/>
</linearGradient>
</defs>
</svg>
