<svg width="77" height="121" viewBox="0 0 77 121" fill="none" xmlns="http://www.w3.org/2000/svg">
<path d="M37.9944 42.1186C38.1192 42.1186 38.2025 42.0353 38.2025 41.9106L38.2025 14.9538L43.8601 20.6947C43.9433 20.7779 44.0681 20.7779 44.1514 20.6947C44.2347 20.6114 44.2347 20.4866 44.1514 20.4033L38.1195 14.3296L38.078 14.2881L37.9117 14.2881L37.8702 14.3296L31.8383 20.4033C31.755 20.4866 31.755 20.6114 31.8798 20.6947C31.9631 20.7779 32.0878 20.7779 32.1711 20.6947L37.7864 14.9538L37.7864 41.9106C37.7864 42.0353 37.8697 42.1186 37.9944 42.1186L37.9944 42.1186Z" fill="white"/>
<path d="M56.3039 28.016H43.4911C43.3663 28.016 43.283 28.0993 43.283 28.2241C43.283 28.3488 43.3663 28.4321 43.4911 28.4321H56.0959V50.8961H19.9039V28.4321H32.5087C32.6334 28.4321 32.7167 28.3488 32.7167 28.2241C32.7167 28.0993 32.6334 28.016 32.5087 28.016H19.6959C19.5711 28.016 19.4878 28.0993 19.4878 28.2241V51.1041C19.4878 51.2288 19.5711 51.3121 19.6959 51.3121H56.3039C56.4286 51.3121 56.5119 51.2288 56.5119 51.1041L56.5116 28.2241C56.5116 28.0993 56.4283 28.0163 56.3036 28.0163L56.3039 28.016Z" fill="white"/>
<path d="M75.7 37.5C75.7 58.0413 58.8249 74.7 38 74.7C17.1751 74.7 0.3 58.0413 0.3 37.5C0.3 16.9587 17.1751 0.3 38 0.3C58.8249 0.3 75.7 16.9587 75.7 37.5Z" stroke="white" stroke-width="0.6"/>
<path d="M8.18125 106.172C9.47031 107.383 11.2672 107.969 13.4937 107.969C16.6969 107.969 18.7281 106.367 18.7281 103.945C18.7281 102.305 17.7125 101.328 16.2672 100.859C15.5641 100.625 14.6266 100.312 13.4156 100.039C11.15 99.4922 10.0562 98.9062 10.0562 97.4609C10.0562 95.8203 11.3844 94.8047 13.6109 94.8047C15.2125 94.8047 16.5406 95.3516 17.8687 96.4844L18.5328 95.1953C17.3609 94.0234 15.6031 93.3984 13.6109 93.3984C10.4859 93.3984 8.41562 95.0781 8.41562 97.5391C8.41562 99.2188 9.39219 100.234 10.7984 100.82C11.5016 101.094 12.4 101.328 13.4937 101.602C15.8375 102.148 17.0484 102.5 17.0875 104.023C17.1266 105.625 15.7984 106.562 13.4937 106.562C11.5797 106.562 10.2125 106.094 8.76719 104.922L8.18125 106.172ZM32.8469 106.445H25.5031V101.289H32.4562V99.8828H25.5031V94.9219H32.8469V93.5547H23.8625V107.812H32.8469V106.445ZM40.0125 93.5547H38.7625V107.812H40.2859V96.3672L48.9187 107.812H50.1687V93.5547H48.6062V105.039L40.0125 93.5547ZM60.85 107.812C65.4203 107.812 68.0375 105.234 68.0375 100.664C68.0375 96.1328 65.4203 93.5547 60.85 93.5547H56.0844V107.812H60.85ZM57.725 94.9609H60.7719C64.4828 94.9609 66.3187 96.875 66.3187 100.664C66.3187 104.492 64.4437 106.406 60.7719 106.406H57.725V94.9609Z" fill="#DBDBDB" fill-opacity="0.72"/>
</svg>
