<svg width="436" height="348" viewBox="0 0 436 348" fill="none" xmlns="http://www.w3.org/2000/svg">
<path d="M101.706 148.663C115.97 196.235 160.096 230.923 212.311 230.923C276.087 230.923 327.782 179.228 327.782 115.462C327.782 51.6951 276.087 0 212.321 0C151.131 0 101.061 47.6019 97.1069 107.791C104.59 120.338 107.496 128.098 101.708 148.663H101.706Z" fill="url(#paint0_linear_143_104)"/>
<path d="M206.376 86.5413L206.388 87.1188L178.136 128.16C173.561 127.954 168.96 128.757 164.609 130.547C162.684 131.33 160.888 132.292 159.2 133.402L97.151 107.864C97.151 107.864 95.7137 131.477 101.707 149.085L145.565 167.18C147.766 177.023 154.516 185.66 164.481 189.805C180.779 196.606 199.567 188.855 206.343 172.544C208.086 168.369 208.928 163.874 208.814 159.351L249.239 130.463L250.227 130.483C274.418 130.483 294.085 110.758 294.085 86.5413C294.078 74.905 289.458 63.7463 281.236 55.5116C273.015 47.2769 261.863 42.6383 250.227 42.6128C238.591 42.6383 227.439 47.2769 219.218 55.5116C210.997 63.7463 206.376 74.905 206.369 86.5413H206.376ZM199.6 169.714C194.351 182.31 179.875 188.284 167.292 183.042C161.485 180.622 157.102 176.195 154.574 170.914L168.851 176.83C178.129 180.693 188.775 176.298 192.631 167.013C194.487 162.555 194.499 157.543 192.663 153.078C190.827 148.612 187.294 145.057 182.839 143.194L168.081 137.079C173.772 134.917 180.247 134.833 186.304 137.355C189.306 138.596 192.031 140.421 194.321 142.724C196.611 145.028 198.421 147.763 199.644 150.772C202.147 156.868 202.147 163.618 199.606 169.701L199.6 169.714ZM250.233 115.801C234.192 115.801 221.018 102.666 221.018 86.5285C221.018 70.3905 234.128 57.2685 250.233 57.2685C266.339 57.2685 279.461 70.4034 279.461 86.5285C279.461 102.654 266.352 115.801 250.233 115.801V115.801ZM228.34 86.4771C228.34 74.3304 238.17 64.4808 250.285 64.4808C262.399 64.4808 272.23 74.3304 272.23 86.4771C272.23 98.6239 262.399 108.461 250.285 108.461C238.17 108.461 228.34 98.6175 228.34 86.4771Z" fill="white"/>
<path d="M43.7812 328.602L50.9297 327.977C51.2682 330.841 52.0495 333.198 53.2734 335.047C54.5234 336.87 56.4505 338.354 59.0547 339.5C61.6589 340.62 64.5885 341.18 67.8438 341.18C70.7344 341.18 73.2865 340.75 75.5 339.891C77.7135 339.031 79.3542 337.859 80.4219 336.375C81.5156 334.865 82.0625 333.224 82.0625 331.453C82.0625 329.656 81.5417 328.094 80.5 326.766C79.4583 325.411 77.7396 324.279 75.3438 323.367C73.8073 322.768 70.4089 321.844 65.1484 320.594C59.888 319.318 56.2031 318.12 54.0938 317C51.3594 315.568 49.3151 313.797 47.9609 311.688C46.6328 309.552 45.9688 307.169 45.9688 304.539C45.9688 301.648 46.7891 298.953 48.4297 296.453C50.0703 293.927 52.4661 292.013 55.6172 290.711C58.7682 289.409 62.2708 288.758 66.125 288.758C70.3698 288.758 74.1068 289.448 77.3359 290.828C80.5911 292.182 83.0911 294.188 84.8359 296.844C86.5807 299.5 87.5182 302.508 87.6484 305.867L80.3828 306.414C79.9922 302.794 78.6641 300.06 76.3984 298.211C74.1589 296.362 70.8385 295.438 66.4375 295.438C61.8542 295.438 58.5078 296.284 56.3984 297.977C54.3151 299.643 53.2734 301.661 53.2734 304.031C53.2734 306.089 54.0156 307.781 55.5 309.109C56.9583 310.438 60.7604 311.805 66.9062 313.211C73.0781 314.591 77.3099 315.802 79.6016 316.844C82.9349 318.38 85.3958 320.333 86.9844 322.703C88.5729 325.047 89.3672 327.755 89.3672 330.828C89.3672 333.875 88.4948 336.753 86.75 339.461C85.0052 342.143 82.4922 344.24 79.2109 345.75C75.9557 347.234 72.2839 347.977 68.1953 347.977C63.013 347.977 58.6641 347.221 55.1484 345.711C51.6589 344.201 48.9115 341.935 46.9062 338.914C44.9271 335.867 43.8854 332.43 43.7812 328.602ZM134.289 347V296.492H115.422V289.734H160.812V296.492H141.867V347H134.289ZM188.781 347V289.734H230.188V296.492H196.359V314.031H228.039V320.75H196.359V340.242H231.516V347H188.781ZM255.695 347L277.688 289.734H285.852L309.289 347H300.656L293.977 329.656H270.031L263.742 347H255.695ZM272.219 323.484H291.633L285.656 307.625C283.833 302.807 282.479 298.849 281.594 295.75C280.865 299.422 279.836 303.068 278.508 306.688L272.219 323.484ZM335.109 347V289.734H346.516L360.07 330.281C361.32 334.057 362.232 336.883 362.805 338.758C363.456 336.674 364.471 333.615 365.852 329.578L379.562 289.734H389.758V347H382.453V299.07L365.812 347H358.977L342.414 298.25V347H335.109Z" fill="white"/>
<defs>
<linearGradient id="paint0_linear_143_104" x1="212.446" y1="0" x2="212.446" y2="230.923" gradientUnits="userSpaceOnUse">
<stop stop-color="#111D2E"/>
<stop offset="0.212" stop-color="#051839"/>
<stop offset="0.407" stop-color="#0A1B48"/>
<stop offset="0.581" stop-color="#132E62"/>
<stop offset="0.738" stop-color="#144B7E"/>
<stop offset="0.873" stop-color="#136497"/>
<stop offset="1" stop-color="#1387B8"/>
</linearGradient>
</defs>
</svg>
