<svg width="372" height="372" viewBox="0 0 372 372" fill="none" xmlns="http://www.w3.org/2000/svg">
<rect width="2.37544" height="2.37544" transform="matrix(0.986582 -0.163268 0.163288 0.986578 301.775 164.969)" fill="#00FFF0" fill-opacity="0.6"/>
<rect width="2.95484" height="2.95484" transform="matrix(-0.98658 0.163278 0.163278 0.98658 304.936 50.3293)" fill="#00FFF0"/>
<rect x="359.746" y="97.6331" width="3.14421" height="3.14421" transform="rotate(-9.39723 359.746 97.6331)" fill="#00FFF0"/>
<rect width="3.14421" height="3.14421" transform="matrix(0.986579 -0.163286 0.163271 0.986581 295.48 350.398)" fill="#00FFF0" fill-opacity="0.5"/>
<rect x="239.373" y="280.043" width="1.72363" height="1.72363" transform="rotate(-9.39723 239.373 280.043)" fill="#00FFF0" fill-opacity="0.5"/>
<rect width="2.37544" height="2.37544" transform="matrix(0.986582 -0.163268 0.163288 0.986578 69.7754 157.969)" fill="#00FFF0" fill-opacity="0.6"/>
<rect width="2.95484" height="2.95484" transform="matrix(-0.98658 0.163278 0.163278 0.98658 72.9355 43.3293)" fill="#00FFF0"/>
<rect x="127.746" y="90.6331" width="3.14421" height="3.14421" transform="rotate(-9.39723 127.746 90.6331)" fill="#00FFF0"/>
<rect width="3.14421" height="3.14421" transform="matrix(0.986579 -0.163286 0.163271 0.986581 63.4805 343.398)" fill="#00FFF0" fill-opacity="0.5"/>
<rect x="7.37305" y="273.043" width="1.72363" height="1.72363" transform="rotate(-9.39723 7.37305 273.043)" fill="#00FFF0" fill-opacity="0.5"/>
<path d="M372 186C372 288.725 288.725 372 186 372C83.2751 372 0 288.725 0 186C0 83.2751 83.2751 0 186 0C288.725 0 372 83.2751 372 186Z" fill="url(#paint0_radial_823_169)" fill-opacity="0.6"/>
<path d="M109.636 201.266V199.766C110.146 200.078 110.979 200.38 112.136 200.672C113.292 200.964 114.25 201.109 115.011 201.109C116.886 201.109 118.339 200.76 119.37 200.063C120.412 199.365 120.933 198.177 120.933 196.5C120.933 195.656 120.755 194.958 120.401 194.406C120.058 193.854 119.584 193.411 118.979 193.078C118.375 192.745 117.292 192.365 115.729 191.938C114.375 191.594 113.287 191.255 112.464 190.922C111.641 190.578 110.948 190.052 110.386 189.344C109.823 188.625 109.542 187.661 109.542 186.453C109.542 184.714 110.167 183.318 111.417 182.266C112.677 181.214 114.323 180.688 116.354 180.688C117.688 180.688 118.99 180.88 120.261 181.266C120.771 181.453 121.229 181.646 121.636 181.844V183.344C121 183.052 120.453 182.818 119.995 182.641C119.547 182.453 119 182.292 118.354 182.156C117.719 182.021 117.021 181.948 116.261 181.938C114.459 181.938 113.12 182.354 112.245 183.188C111.38 184.021 110.948 185.13 110.948 186.516C110.948 187.391 111.136 188.078 111.511 188.578C111.896 189.078 112.412 189.464 113.058 189.734C113.703 190.005 114.667 190.318 115.948 190.672C117.386 191.068 118.511 191.438 119.323 191.781C120.136 192.115 120.839 192.656 121.433 193.406C122.037 194.146 122.339 195.156 122.339 196.438C122.339 198.313 121.693 199.776 120.401 200.828C119.12 201.87 117.292 202.391 114.917 202.391C113.938 202.391 112.917 202.26 111.854 202C110.792 201.74 110.052 201.495 109.636 201.266ZM132.08 194.547V181.109H133.455V195.125C133.455 197.01 133.997 198.484 135.08 199.547C136.174 200.609 137.7 201.141 139.658 201.141C141.637 201.141 143.169 200.63 144.252 199.609C145.335 198.578 145.877 197.083 145.877 195.125V181.109H147.252V194.547C147.252 199.776 144.71 202.391 139.627 202.391C137.106 202.391 135.215 201.719 133.955 200.375C132.705 199.021 132.08 197.078 132.08 194.547ZM157.087 191.734C157.087 189.547 157.53 187.62 158.415 185.953C159.3 184.276 160.54 182.979 162.134 182.063C163.738 181.146 165.576 180.688 167.649 180.688C168.504 180.688 169.353 180.771 170.196 180.938C171.05 181.104 171.665 181.297 172.04 181.516V182.828C170.436 182.255 169.014 181.969 167.774 181.969C166.066 181.969 164.514 182.339 163.118 183.078C161.722 183.818 160.613 184.922 159.79 186.391C158.967 187.859 158.556 189.651 158.556 191.766C158.556 194.766 159.373 197.073 161.009 198.688C162.655 200.302 165.019 201.109 168.103 201.109C169.54 201.109 170.925 200.828 172.259 200.266V201.547C171.738 201.818 171.087 202.026 170.306 202.172C169.535 202.318 168.733 202.391 167.899 202.391C164.42 202.391 161.748 201.469 159.884 199.625C158.019 197.781 157.087 195.151 157.087 191.734ZM180.766 191.734C180.766 189.547 181.208 187.62 182.094 185.953C182.979 184.276 184.219 182.979 185.812 182.063C187.417 181.146 189.255 180.688 191.328 180.688C192.182 180.688 193.031 180.771 193.875 180.938C194.729 181.104 195.344 181.297 195.719 181.516V182.828C194.115 182.255 192.693 181.969 191.453 181.969C189.745 181.969 188.193 182.339 186.797 183.078C185.401 183.818 184.292 184.922 183.469 186.391C182.646 187.859 182.234 189.651 182.234 191.766C182.234 194.766 183.052 197.073 184.687 198.688C186.333 200.302 188.698 201.109 191.781 201.109C193.219 201.109 194.604 200.828 195.937 200.266V201.547C195.417 201.818 194.766 202.026 193.984 202.172C193.214 202.318 192.411 202.391 191.578 202.391C188.099 202.391 185.427 201.469 183.562 199.625C181.698 197.781 180.766 195.151 180.766 191.734ZM205.397 181.109H217.304V182.359H206.772V190.672H216.413V191.922H206.772V200.75H217.913V202H205.397V181.109ZM226.873 201.266V199.766C227.384 200.078 228.217 200.38 229.373 200.672C230.529 200.964 231.488 201.109 232.248 201.109C234.123 201.109 235.576 200.76 236.607 200.063C237.649 199.365 238.17 198.177 238.17 196.5C238.17 195.656 237.993 194.958 237.639 194.406C237.295 193.854 236.821 193.411 236.217 193.078C235.613 192.745 234.529 192.365 232.967 191.938C231.613 191.594 230.524 191.255 229.701 190.922C228.878 190.578 228.186 190.052 227.623 189.344C227.061 188.625 226.779 187.661 226.779 186.453C226.779 184.714 227.404 183.318 228.654 182.266C229.915 181.214 231.561 180.688 233.592 180.688C234.925 180.688 236.227 180.88 237.498 181.266C238.009 181.453 238.467 181.646 238.873 181.844V183.344C238.238 183.052 237.691 182.818 237.232 182.641C236.785 182.453 236.238 182.292 235.592 182.156C234.956 182.021 234.259 181.948 233.498 181.938C231.696 181.938 230.357 182.354 229.482 183.188C228.618 184.021 228.186 185.13 228.186 186.516C228.186 187.391 228.373 188.078 228.748 188.578C229.134 189.078 229.649 189.464 230.295 189.734C230.941 190.005 231.904 190.318 233.186 190.672C234.623 191.068 235.748 191.438 236.561 191.781C237.373 192.115 238.076 192.656 238.67 193.406C239.274 194.146 239.576 195.156 239.576 196.438C239.576 198.313 238.93 199.776 237.639 200.828C236.357 201.87 234.529 202.391 232.154 202.391C231.175 202.391 230.154 202.26 229.092 202C228.029 201.74 227.29 201.495 226.873 201.266ZM248.739 201.266V199.766C249.25 200.078 250.083 200.38 251.239 200.672C252.396 200.964 253.354 201.109 254.114 201.109C255.989 201.109 257.442 200.76 258.474 200.063C259.515 199.365 260.036 198.177 260.036 196.5C260.036 195.656 259.859 194.958 259.505 194.406C259.161 193.854 258.687 193.411 258.083 193.078C257.479 192.745 256.396 192.365 254.833 191.938C253.479 191.594 252.39 191.255 251.567 190.922C250.745 190.578 250.052 190.052 249.489 189.344C248.927 188.625 248.646 187.661 248.646 186.453C248.646 184.714 249.271 183.318 250.521 182.266C251.781 181.214 253.427 180.688 255.458 180.688C256.791 180.688 258.094 180.88 259.364 181.266C259.875 181.453 260.333 181.646 260.739 181.844V183.344C260.104 183.052 259.557 182.818 259.099 182.641C258.651 182.453 258.104 182.292 257.458 182.156C256.823 182.021 256.125 181.948 255.364 181.938C253.562 181.938 252.224 182.354 251.349 183.188C250.484 184.021 250.052 185.13 250.052 186.516C250.052 187.391 250.239 188.078 250.614 188.578C251 189.078 251.515 189.464 252.161 189.734C252.807 190.005 253.771 190.318 255.052 190.672C256.489 191.068 257.614 191.438 258.427 191.781C259.239 192.115 259.942 192.656 260.536 193.406C261.14 194.146 261.442 195.156 261.442 196.438C261.442 198.313 260.797 199.776 259.505 200.828C258.224 201.87 256.396 202.391 254.021 202.391C253.041 202.391 252.021 202.26 250.958 202C249.896 201.74 249.156 201.495 248.739 201.266Z" fill="white"/>
<defs>
<radialGradient id="paint0_radial_823_169" cx="0" cy="0" r="1" gradientUnits="userSpaceOnUse" gradientTransform="translate(186 186) rotate(90) scale(186)">
<stop stop-color="#44D664"/>
<stop offset="1" stop-color="#81D9A9" stop-opacity="0"/>
</radialGradient>
</defs>
</svg>
