<svg width="130" height="124" viewBox="0 0 130 124" fill="none" xmlns="http://www.w3.org/2000/svg">
<path d="M61.9948 46.9602C62.1148 46.9602 62.1949 46.8801 62.1949 46.7601L62.1949 20.8402L67.6349 26.3602C67.715 26.4403 67.835 26.4403 67.915 26.3602C67.9951 26.2802 67.9951 26.1602 67.915 26.0801L62.1151 20.24L62.0752 20.2001L61.9153 20.2001L61.8754 20.24L56.0755 26.0801C55.9954 26.1602 55.9954 26.2802 56.1154 26.3602C56.1955 26.4403 56.3155 26.4403 56.3955 26.3602L61.7948 20.8402L61.7948 46.7601C61.7948 46.8801 61.8749 46.9602 61.9949 46.9602L61.9948 46.9602Z" fill="white"/>
<path d="M79.6 33.4H67.28C67.16 33.4 67.08 33.4801 67.08 33.6C67.08 33.72 67.16 33.8001 67.28 33.8001H79.4V55.4001H44.6V33.8001H56.72C56.84 33.8001 56.9201 33.72 56.9201 33.6C56.9201 33.4801 56.84 33.4 56.72 33.4H44.4C44.28 33.4 44.2 33.4801 44.2 33.6V55.6001C44.2 55.72 44.28 55.8001 44.4 55.8001H79.6C79.72 55.8001 79.8001 55.72 79.8001 55.6001L79.7998 33.6C79.7998 33.4801 79.7197 33.4003 79.5997 33.4003L79.6 33.4Z" fill="white"/>
<path d="M102.86 41.0329C102.86 63.5253 84.3821 81.7658 61.58 81.7658C38.7779 81.7658 20.3 63.5253 20.3 41.0329C20.3 18.5405 38.7779 0.3 61.58 0.3C84.3821 0.3 102.86 18.5405 102.86 41.0329Z" stroke="white" stroke-width="0.6"/>
<path d="M9.29531 98.9609H14.2562V97.5547H2.65469V98.9609H7.61562V111.812H9.29531V98.9609ZM28.0234 107.008C27.6328 105.914 27.0469 105.367 26.2266 105.25C28.0625 104.703 29.0781 103.375 29.0781 101.539C29.0781 98.9609 27.3594 97.5547 24.3125 97.5547H18.6484V111.812H20.2891V105.602H23.8437C25.2109 105.602 25.9141 105.914 26.3437 107.086L28.1016 111.812H29.8203L28.0234 107.008ZM20.2891 98.9219H24.1562C26.4219 98.9219 27.4375 99.7812 27.4375 101.539C27.4375 103.336 26.3437 104.234 24.1562 104.234H20.2891V98.9219ZM42.025 97.5547H40.5797L34.3297 111.812H36.0484L37.6109 108.141H45.0719L46.6344 111.812H48.3141L42.025 97.5547ZM44.4859 106.773H38.1969L41.3219 99.4688L44.4859 106.773ZM54.0734 97.5547H52.8234V111.812H54.3469V100.367L62.9797 111.812H64.2297V97.5547H62.6672V109.039L54.0734 97.5547ZM69.3641 110.172C70.6531 111.383 72.45 111.969 74.6766 111.969C77.8797 111.969 79.9109 110.367 79.9109 107.945C79.9109 106.305 78.8953 105.328 77.45 104.859C76.7469 104.625 75.8094 104.312 74.5984 104.039C72.3328 103.492 71.2391 102.906 71.2391 101.461C71.2391 99.8203 72.5672 98.8047 74.7937 98.8047C76.3953 98.8047 77.7234 99.3516 79.0516 100.484L79.7156 99.1953C78.5437 98.0234 76.7859 97.3984 74.7937 97.3984C71.6687 97.3984 69.5984 99.0781 69.5984 101.539C69.5984 103.219 70.575 104.234 71.9812 104.82C72.6844 105.094 73.5828 105.328 74.6766 105.602C77.0203 106.148 78.2312 106.5 78.2703 108.023C78.3094 109.625 76.9812 110.562 74.6766 110.562C72.7625 110.562 71.3953 110.094 69.95 108.922L69.3641 110.172ZM86.6859 105.289H93.4437V103.883H86.6859V98.9609H93.8344V97.5547H85.0453V111.812H86.6859V105.289ZM108.734 110.445H101.391V105.289H108.344V103.883H101.391V98.9219H108.734V97.5547H99.75V111.812H108.734V110.445ZM124.025 107.008C123.634 105.914 123.048 105.367 122.228 105.25C124.064 104.703 125.08 103.375 125.08 101.539C125.08 98.9609 123.361 97.5547 120.314 97.5547H114.65V111.812H116.291V105.602H119.845C121.213 105.602 121.916 105.914 122.345 107.086L124.103 111.812H125.822L124.025 107.008ZM116.291 98.9219H120.158C122.423 98.9219 123.439 99.7812 123.439 101.539C123.439 103.336 122.345 104.234 120.158 104.234H116.291V98.9219Z" fill="#DBDBDB" fill-opacity="0.72"/>
</svg>
