<svg width="76" height="75" viewBox="0 0 76 75" fill="none" xmlns="http://www.w3.org/2000/svg">
<path d="M38.2141 50.8306C38.3389 50.8306 38.4222 50.7473 38.4222 50.6225L38.4222 23.6657L44.0798 29.4066C44.1631 29.4899 44.2879 29.4899 44.3711 29.4066C44.4544 29.3233 44.4544 29.1985 44.3711 29.1152L38.3392 23.0415L38.2977 23L38.1314 23L38.0899 23.0415L32.058 29.1152C31.9747 29.1985 31.9747 29.3233 32.0995 29.4066C32.1828 29.4899 32.3076 29.4899 32.3909 29.4066L38.0061 23.6657L38.0061 50.6225C38.0061 50.7473 38.0894 50.8306 38.2142 50.8306L38.2141 50.8306Z" fill="white"/>
<path d="M75.7 37.5C75.7 58.0413 58.8249 74.7 38 74.7C17.1751 74.7 0.3 58.0413 0.3 37.5C0.3 16.9587 17.1751 0.3 38 0.3C58.8249 0.3 75.7 16.9587 75.7 37.5Z" stroke="white" stroke-width="0.6"/>
</svg>
