<svg width="156" height="138" viewBox="0 0 156 138" fill="none" xmlns="http://www.w3.org/2000/svg">
<path d="M14.0483 117.958C14.0483 121.747 16.0014 123.7 19.7123 123.7C23.4233 123.7 25.3764 121.708 25.3764 117.958V109.286H23.7358V118.115C23.7358 120.888 22.3686 122.294 19.7123 122.294C17.0561 122.294 15.6889 120.888 15.6889 118.115V109.286H14.0483V117.958ZM32.8155 123.544V117.294H36.8389C39.7686 117.294 41.5264 115.771 41.5264 113.271C41.5264 110.81 39.8076 109.286 36.8389 109.286H31.1748V123.544H32.8155ZM32.8155 110.654H36.7217C38.8311 110.654 39.8858 111.591 39.8858 113.271C39.8858 114.99 38.8311 115.927 36.7217 115.927H32.8155V110.654ZM53.653 117.411H57.2076V121.747C56.1139 122.138 54.9811 122.333 53.7701 122.333C50.4108 122.333 48.6139 120.263 48.6139 116.396C48.6139 112.607 50.4108 110.536 53.6139 110.536C55.2936 110.536 56.5045 111.005 57.8717 112.216L58.5358 110.927C57.3248 109.755 55.6061 109.13 53.6139 109.13C49.4733 109.13 46.9342 111.904 46.9342 116.396C46.9342 120.966 49.4733 123.7 53.7311 123.7C55.6061 123.7 57.5983 123.31 58.692 122.724V116.122H53.653V117.411ZM73.4748 118.74C73.0842 117.646 72.4983 117.099 71.678 116.982C73.5139 116.435 74.5295 115.107 74.5295 113.271C74.5295 110.693 72.8108 109.286 69.7639 109.286H64.0998V123.544H65.7405V117.333H69.2951C70.6623 117.333 71.3655 117.646 71.7951 118.818L73.553 123.544H75.2717L73.4748 118.74ZM65.7405 110.654H69.6076C71.8733 110.654 72.8889 111.513 72.8889 113.271C72.8889 115.068 71.7951 115.966 69.6076 115.966H65.7405V110.654ZM87.4764 109.286H86.0311L79.7811 123.544H81.4998L83.0623 119.872H90.5233L92.0858 123.544H93.7654L87.4764 109.286ZM89.9373 118.505H83.6483L86.7733 111.2L89.9373 118.505ZM104.486 117.411H108.04V121.747C106.947 122.138 105.814 122.333 104.603 122.333C101.244 122.333 99.4467 120.263 99.4467 116.396C99.4467 112.607 101.244 110.536 104.447 110.536C106.126 110.536 107.337 111.005 108.705 112.216L109.369 110.927C108.158 109.755 106.439 109.13 104.447 109.13C100.306 109.13 97.767 111.904 97.767 116.396C97.767 120.966 100.306 123.7 104.564 123.7C106.439 123.7 108.431 123.31 109.525 122.724V116.122H104.486V117.411ZM119.698 123.544C124.269 123.544 126.886 120.966 126.886 116.396C126.886 111.865 124.269 109.286 119.698 109.286H114.933V123.544H119.698ZM116.573 110.693H119.62C123.331 110.693 125.167 112.607 125.167 116.396C125.167 120.224 123.292 122.138 119.62 122.138H116.573V110.693ZM141.786 122.177H134.442V117.021H141.395V115.615H134.442V110.654H141.786V109.286H132.801V123.544H141.786V122.177Z" fill="#BD7BFF" fill-opacity="0.72"/>
<g clip-path="url(#clip0_163_165)">
<path d="M85.9419 44.7185C85.4226 44.1992 84.7322 43.9132 83.9979 43.9132C83.8198 43.9132 83.6445 43.9308 83.4733 43.9636L71.3783 31.8687L73.7221 29.525C74.0976 29.1495 74.0976 28.5408 73.7221 28.1654L73.1289 27.5722L82.027 18.6741C82.2936 18.4076 82.3797 18.0099 82.2475 17.6569C82.1152 17.304 81.789 17.0608 81.4129 17.035C76.307 16.6854 71.3023 18.5214 67.6341 22.0772L67.0382 21.4814C66.858 21.3011 66.6134 21.1997 66.3584 21.1997C66.1035 21.1997 65.8589 21.301 65.6786 21.4814L56.1302 31.0298C55.7547 31.4053 55.7547 32.014 56.1302 32.3894L57.05 33.3092L55.3647 34.9944L54.445 34.0747C54.0695 33.6992 53.4607 33.6992 53.0854 34.0747L49.6476 37.5124C49.4672 37.6928 49.366 37.9374 49.366 38.1923C49.366 38.4473 49.4672 38.6919 49.6476 38.8721L56.3316 45.556C56.5193 45.7438 56.7654 45.8376 57.0114 45.8376C57.2574 45.8376 57.5035 45.7438 57.6912 45.556L61.1288 42.1184C61.3092 41.9381 61.4104 41.6935 61.4104 41.4386C61.4104 41.1836 61.3092 40.939 61.1288 40.7588L60.2086 39.8386L61.8939 38.1534L62.814 39.0735C62.9943 39.2538 63.2389 39.3552 63.4938 39.3552C63.7488 39.3552 63.9934 39.2539 64.1736 39.0735L66.5174 36.7298L78.6131 48.8255C78.4462 49.692 78.6975 50.6238 79.367 51.2934L93.7113 65.6375C94.2306 66.1568 94.9211 66.4428 95.6554 66.4428C96.3898 66.4428 97.0802 66.1568 97.5995 65.6375L100.286 62.9509C101.358 61.8789 101.358 60.1347 100.286 59.0626L85.9419 44.7185ZM79.0245 18.9571L71.7692 26.2126L68.9933 23.4366C71.7243 20.7991 75.2794 19.2261 79.0245 18.9571ZM57.0114 43.5164L51.6872 38.1922L53.7652 36.1142L59.0894 41.4384L57.0114 43.5164ZM58.849 38.4789L56.7245 36.3543L58.4097 34.6691L60.5342 36.7936L58.849 38.4789ZM63.4938 37.034L58.1696 31.7098L66.3583 23.5211L71.6825 28.8453L63.4938 37.034ZM70.0187 33.2285L81.7813 44.9909L79.6397 47.1325L67.8771 35.37L70.0187 33.2285ZM98.9263 61.5911L96.2397 64.2778C96.0835 64.4339 95.8761 64.5198 95.6552 64.5198C95.4345 64.5198 95.2269 64.4338 95.0708 64.2778L80.7269 49.9336C80.4049 49.6116 80.4048 49.0877 80.7263 48.7654L83.4142 46.0775C83.5702 45.9219 83.7774 45.8361 83.9979 45.8361C84.2186 45.8361 84.4262 45.9221 84.5823 46.0781L98.9264 60.4221C99.2486 60.7445 99.2486 61.269 98.9263 61.5911Z" fill="#C463F2" fill-opacity="0.52"/>
<path d="M81.2218 38.6491C80.8463 39.0246 80.8463 39.6334 81.2218 40.0088C81.5974 40.3843 82.2061 40.3843 82.5815 40.0088L84.6352 37.9552C87.0723 35.5181 88.256 32.2041 87.8829 28.863C87.6594 26.861 88.4315 24.8695 89.9485 23.5358C90.3839 23.153 90.8705 22.8364 91.3935 22.5931L90.6035 25.1257C90.2762 26.1743 90.3769 27.2875 90.8873 28.2603C91.3974 29.2332 92.256 29.949 93.3045 30.2762C95.469 30.9516 97.7796 29.7397 98.4551 27.575L99.2712 24.9586C99.8427 25.8887 100.156 26.9575 100.174 28.0793C100.2 29.7626 99.5596 31.3452 98.3696 32.5353C97.6705 33.2344 96.8423 33.7412 95.9082 34.042C94.168 34.6022 92.5826 35.5636 91.3236 36.8226L86.2996 41.8466C85.9242 42.2221 85.9242 42.8307 86.2996 43.2062C86.4874 43.394 86.7336 43.4879 86.9796 43.4879C87.2256 43.4879 87.4717 43.394 87.6595 43.2062L92.6835 38.1822C93.7276 37.1381 95.0464 36.3393 96.4974 35.8723C97.7076 35.4827 98.8252 34.7989 99.7294 33.8949C101.291 32.3334 102.132 30.2572 102.097 28.0488C102.062 25.8405 101.154 23.7901 99.5408 22.2753C99.2993 22.0486 98.9582 21.9621 98.6381 22.0465C98.3178 22.1307 98.0635 22.3739 97.9648 22.69L96.6195 27.0023C96.26 28.1547 95.0294 28.7999 93.8772 28.4405C93.319 28.2662 92.8618 27.8851 92.5903 27.3672C92.3187 26.8492 92.265 26.2566 92.4392 25.6983L93.769 21.4354C93.8681 21.1172 93.7957 20.7703 93.5771 20.5187C93.3587 20.2669 93.0246 20.1465 92.6966 20.2001C91.1979 20.4443 89.8087 21.0985 88.6789 22.0916C86.6906 23.8396 85.6788 26.4508 85.9719 29.0763C86.2798 31.8333 85.2969 34.5738 83.2754 36.5954L81.2218 38.6491Z" fill="#C463F2" fill-opacity="0.52"/>
<path d="M76.5165 51.6299C74.0796 54.0668 72.8958 57.3808 73.2689 60.7221C73.4924 62.724 72.7202 64.7154 71.2032 66.0493C70.7678 66.4321 70.2811 66.7487 69.7583 66.992L70.5484 64.4594C70.8755 63.4108 70.7747 62.2976 70.2645 61.3247C69.7543 60.3519 68.8958 59.636 67.8472 59.3089C66.7985 58.9817 65.6852 59.0825 64.7125 59.5927C63.7397 60.1029 63.0238 60.9614 62.6967 62.0099L61.8805 64.6263C61.3089 63.6962 60.9954 62.6276 60.9777 61.5055C60.9512 59.8222 61.592 58.2396 62.7822 57.0495C63.4812 56.3505 64.3093 55.8436 65.2436 55.543C66.9838 54.9829 68.5691 54.0213 69.828 52.7624L74.9325 47.6577C75.308 47.2822 75.308 46.6735 74.9325 46.2981C74.5571 45.9226 73.9483 45.9226 73.5729 46.2981L68.4684 51.4027C67.4243 52.4469 66.1055 53.2456 64.6546 53.7126C63.4443 54.1022 62.3266 54.786 61.4227 55.69C59.8612 57.2515 59.0205 59.3276 59.0552 61.536C59.09 63.7444 59.9978 65.7948 61.6113 67.3097C61.8527 67.5363 62.194 67.6228 62.514 67.5385C62.8342 67.4543 63.0886 67.2111 63.1871 66.895L64.5324 62.5827C64.7065 62.0244 65.0877 61.5674 65.6056 61.2958C66.1235 61.0241 66.7163 60.9704 67.2747 61.1446C67.833 61.3188 68.2901 61.7 68.5618 62.2178C68.8334 62.7357 68.8871 63.3285 68.7129 63.8868L67.383 68.1497C67.2838 68.4679 67.3564 68.8148 67.5748 69.0664C67.759 69.2786 68.0248 69.3975 68.3008 69.3975C68.3522 69.3975 68.4038 69.3934 68.4555 69.385C69.9541 69.1408 71.3434 68.4866 72.473 67.4935C74.4613 65.7453 75.4733 63.1343 75.1801 60.5089C74.8723 57.7519 75.8552 55.0112 77.8765 52.9898C78.252 52.6143 78.252 52.0056 77.8765 51.6302C77.5008 51.2544 76.8921 51.2544 76.5165 51.6299Z" fill="#C463F2" fill-opacity="0.52"/>
</g>
<path d="M120.008 43.3085C120.008 67.0576 100.498 86.3169 76.4225 86.3169C52.3469 86.3169 32.8366 67.0576 32.8366 43.3085C32.8366 19.5593 52.3469 0.3 76.4225 0.3C100.498 0.3 120.008 19.5593 120.008 43.3085Z" stroke="#BF7DF3" stroke-width="0.6"/>
<defs>
<clipPath id="clip0_163_165">
<rect width="52.7317" height="52.7317" fill="white" transform="translate(49.366 16.8293)"/>
</clipPath>
</defs>
</svg>
