<svg width="139" height="123" viewBox="0 0 139 123" fill="none" xmlns="http://www.w3.org/2000/svg">
<path d="M5.57265 105.227C5.57265 109.016 7.52578 110.969 11.2367 110.969C14.9477 110.969 16.9008 108.977 16.9008 105.227V96.5547H15.2602V105.383C15.2602 108.156 13.893 109.562 11.2367 109.562C8.58047 109.562 7.21328 108.156 7.21328 105.383V96.5547H5.57265V105.227ZM24.3398 110.812V104.562H28.3633C31.293 104.562 33.0508 103.039 33.0508 100.539C33.0508 98.0781 31.332 96.5547 28.3633 96.5547H22.6992V110.812H24.3398ZM24.3398 97.9219H28.2461C30.3555 97.9219 31.4102 98.8594 31.4102 100.539C31.4102 102.258 30.3555 103.195 28.2461 103.195H24.3398V97.9219ZM45.1773 104.68H48.732V109.016C47.6383 109.406 46.5055 109.602 45.2945 109.602C41.9352 109.602 40.1383 107.531 40.1383 103.664C40.1383 99.875 41.9352 97.8047 45.1383 97.8047C46.818 97.8047 48.0289 98.2734 49.3961 99.4844L50.0602 98.1953C48.8492 97.0234 47.1305 96.3984 45.1383 96.3984C40.9977 96.3984 38.4586 99.1719 38.4586 103.664C38.4586 108.234 40.9977 110.969 45.2555 110.969C47.1305 110.969 49.1227 110.578 50.2164 109.992V103.391H45.1773V104.68ZM64.9992 106.008C64.6086 104.914 64.0227 104.367 63.2023 104.25C65.0383 103.703 66.0539 102.375 66.0539 100.539C66.0539 97.9609 64.3352 96.5547 61.2883 96.5547H55.6242V110.812H57.2648V104.602H60.8195C62.1867 104.602 62.8898 104.914 63.3195 106.086L65.0773 110.812H66.7961L64.9992 106.008ZM57.2648 97.9219H61.132C63.3977 97.9219 64.4133 98.7812 64.4133 100.539C64.4133 102.336 63.3195 103.234 61.132 103.234H57.2648V97.9219ZM79.0008 96.5547H77.5555L71.3055 110.812H73.0242L74.5867 107.141H82.0477L83.6102 110.812H85.2898L79.0008 96.5547ZM81.4617 105.773H75.1727L78.2977 98.4688L81.4617 105.773ZM96.0102 104.68H99.5648V109.016C98.4711 109.406 97.3383 109.602 96.1273 109.602C92.768 109.602 90.9711 107.531 90.9711 103.664C90.9711 99.875 92.768 97.8047 95.9711 97.8047C97.6508 97.8047 98.8617 98.2734 100.229 99.4844L100.893 98.1953C99.682 97.0234 97.9633 96.3984 95.9711 96.3984C91.8305 96.3984 89.2914 99.1719 89.2914 103.664C89.2914 108.234 91.8305 110.969 96.0883 110.969C97.9633 110.969 99.9555 110.578 101.049 109.992V103.391H96.0102V104.68ZM111.223 110.812C115.793 110.812 118.41 108.234 118.41 103.664C118.41 99.1328 115.793 96.5547 111.223 96.5547H106.457V110.812H111.223ZM108.098 97.9609H111.145C114.855 97.9609 116.691 99.875 116.691 103.664C116.691 107.492 114.816 109.406 111.145 109.406H108.098V97.9609ZM133.31 109.445H125.966V104.289H132.92V102.883H125.966V97.9219H133.31V96.5547H124.326V110.812H133.31V109.445Z" fill="#DBDBDB" fill-opacity="0.72"/>
<g clip-path="url(#clip0_163_165)">
<path d="M76.6003 39.8578C76.1375 39.3949 75.5221 39.14 74.8676 39.14C74.7089 39.14 74.5526 39.1557 74.4 39.1849L63.6197 28.4047L65.7087 26.3157C66.0434 25.9811 66.0434 25.4386 65.7087 25.1039L65.18 24.5752L73.111 16.6443C73.3485 16.4068 73.4253 16.0523 73.3075 15.7377C73.1896 15.4231 72.8988 15.2064 72.5636 15.1834C68.0126 14.8718 63.552 16.5082 60.2824 19.6775L59.7514 19.1465C59.5907 18.9858 59.3727 18.8954 59.1455 18.8954C58.9182 18.8954 58.7002 18.9857 58.5395 19.1465L50.029 27.657C49.6943 27.9917 49.6943 28.5342 50.029 28.8688L50.8488 29.6887L49.3467 31.1907L48.5269 30.3709C48.1923 30.0362 47.6497 30.0362 47.3151 30.3709L44.251 33.435C44.0903 33.5957 44 33.8137 44 34.041C44 34.2683 44.0903 34.4863 44.251 34.6469L50.2085 40.6043C50.3758 40.7716 50.5951 40.8553 50.8144 40.8553C51.0337 40.8553 51.253 40.7716 51.4203 40.6043L54.4843 37.5403C54.645 37.3796 54.7353 37.1616 54.7353 36.9344C54.7353 36.7071 54.645 36.4891 54.4843 36.3285L53.6641 35.5083L55.1662 34.0063L55.9863 34.8264C56.147 34.9871 56.365 35.0774 56.5922 35.0774C56.8195 35.0774 57.0375 34.9872 57.1981 34.8264L59.2871 32.7374L70.0681 43.5184C69.9194 44.2907 70.1433 45.1212 70.7401 45.718L83.5252 58.503C83.9881 58.9659 84.6035 59.2208 85.2579 59.2208C85.9125 59.2208 86.5279 58.9659 86.9908 58.503L89.3854 56.1084C90.3407 55.1529 90.3407 53.5983 89.3854 52.6428L76.6003 39.8578ZM70.4348 16.8966L63.9681 23.3634L61.4939 20.8891C63.9281 18.5384 67.0967 17.1363 70.4348 16.8966ZM50.8144 38.7864L46.0689 34.0409L47.921 32.1887L52.6665 36.9343L50.8144 38.7864ZM52.4523 34.2964L50.5587 32.4028L52.0607 30.9007L53.9543 32.7943L52.4523 34.2964ZM56.5922 33.0086L51.8467 28.263L59.1453 20.9644L63.8909 25.7099L56.5922 33.0086ZM62.4079 29.6167L72.8919 40.1006L70.9831 42.0094L60.4991 31.5255L62.4079 29.6167ZM88.1734 54.8964L85.7787 57.2911C85.6396 57.4302 85.4547 57.5068 85.2578 57.5068C85.0611 57.5068 84.8761 57.4301 84.7369 57.2911L71.9522 44.5061C71.6651 44.2191 71.665 43.7521 71.9516 43.4648L74.3474 41.0691C74.4864 40.9303 74.6711 40.8539 74.8676 40.8539C75.0643 40.8539 75.2493 40.9306 75.3885 41.0696L88.1735 53.8545C88.4606 54.1419 88.4606 54.6093 88.1734 54.8964Z" fill="#CECECE" fill-opacity="0.52"/>
<path d="M72.3931 34.4481C72.0584 34.7828 72.0584 35.3254 72.3931 35.6601C72.7279 35.9947 73.2704 35.9947 73.605 35.6601L75.4355 33.8296C77.6076 31.6575 78.6627 28.7036 78.3302 25.7257C78.1309 23.9413 78.8191 22.1663 80.1713 20.9776C80.5593 20.6364 80.993 20.3542 81.4592 20.1373L80.755 22.3946C80.4633 23.3292 80.5531 24.3215 81.008 25.1886C81.4626 26.0557 82.2279 26.6937 83.1624 26.9853C85.0917 27.5873 87.1511 26.5071 87.7532 24.5778L88.4806 22.2457C88.99 23.0747 89.2695 24.0274 89.2852 25.0272C89.3089 26.5276 88.7377 27.9381 87.677 28.9989C87.0539 29.6219 86.3157 30.0737 85.4831 30.3418C83.9321 30.8411 82.519 31.698 81.3969 32.8202L76.919 37.2981C76.5843 37.6327 76.5843 38.1752 76.919 38.5099C77.0864 38.6773 77.3058 38.7609 77.525 38.7609C77.7443 38.7609 77.9637 38.6773 78.131 38.5099L82.609 34.032C83.5396 33.1013 84.715 32.3894 86.0083 31.9732C87.087 31.6259 88.0831 31.0165 88.889 30.2107C90.2808 28.8189 91.0301 26.9684 90.999 25.0001C90.968 23.0317 90.1588 21.2043 88.7209 19.8541C88.5056 19.6521 88.2016 19.5749 87.9163 19.6501C87.6309 19.7252 87.4042 19.9419 87.3162 20.2237L86.1172 24.0672C85.7967 25.0944 84.6999 25.6695 83.6729 25.3491C83.1753 25.1938 82.7679 24.8541 82.5259 24.3925C82.2838 23.9308 82.2359 23.4026 82.3912 22.905L83.5765 19.1054C83.6648 18.8219 83.6003 18.5127 83.4055 18.2884C83.2108 18.064 82.913 17.9567 82.6206 18.0044C81.2848 18.2221 80.0466 18.8052 79.0396 19.6903C77.2675 21.2484 76.3656 23.5757 76.6268 25.9158C76.9013 28.3732 76.0253 30.8158 74.2235 32.6177L72.3931 34.4481Z" fill="#CECECE" fill-opacity="0.52"/>
<path d="M68.1995 46.0179C66.0274 48.19 64.9724 51.1437 65.3048 54.1219C65.5041 55.9061 64.8158 57.6811 63.4637 58.87C63.0757 59.2112 62.6418 59.4934 62.1759 59.7103L62.88 57.453C63.1716 56.5183 63.0818 55.5261 62.6271 54.659C62.1723 53.7919 61.4071 53.1539 60.4725 52.8623C59.5377 52.5707 58.5455 52.6605 57.6785 53.1152C56.8114 53.57 56.1734 54.3352 55.8818 55.2697L55.1543 57.6017C54.6448 56.7727 54.3655 55.8202 54.3497 54.8201C54.3261 53.3198 54.8972 51.9092 55.958 50.8485C56.5811 50.2254 57.3192 49.7736 58.1519 49.5057C59.703 49.0065 61.1159 48.1494 62.238 47.0273L66.7877 42.4775C67.1224 42.1429 67.1224 41.6002 66.7877 41.2657C66.453 40.931 65.9104 40.931 65.5759 41.2657L61.0262 45.8155C60.0956 46.7461 58.9201 47.4581 57.6269 47.8743C56.5482 48.2215 55.5519 48.831 54.7463 49.6367C53.3545 51.0285 52.6052 52.879 52.6362 54.8473C52.6671 56.8156 53.4763 58.6432 54.9144 59.9934C55.1295 60.1954 55.4338 60.2725 55.719 60.1973C56.0044 60.1223 56.2311 59.9055 56.319 59.6238L57.518 55.7802C57.6732 55.2826 58.013 54.8753 58.4746 54.6332C58.9362 54.3911 59.4645 54.3432 59.9622 54.4985C60.4598 54.6537 60.8673 54.9934 61.1094 55.455C61.3515 55.9166 61.3994 56.445 61.2441 56.9426L60.0588 60.7421C59.9703 61.0257 60.035 61.3349 60.2297 61.5592C60.3939 61.7483 60.6307 61.8543 60.8767 61.8543C60.9226 61.8543 60.9686 61.8507 61.0147 61.8431C62.3503 61.6255 63.5887 61.0424 64.5955 60.1572C66.3677 58.5991 67.2696 56.2719 67.0083 53.9318C66.734 51.4745 67.61 49.0317 69.4117 47.23C69.7463 46.8953 69.7463 46.3528 69.4117 46.0182C69.0768 45.6833 68.5343 45.6833 68.1995 46.0179Z" fill="#CECECE" fill-opacity="0.52"/>
</g>
<path d="M106.931 38.601C106.931 59.7504 89.5568 76.902 68.1157 76.902C46.6746 76.902 29.3 59.7504 29.3 38.601C29.3 17.4517 46.6746 0.3 68.1157 0.3C89.5568 0.3 106.931 17.4517 106.931 38.601Z" stroke="white" stroke-width="0.6"/>
<defs>
<clipPath id="clip0_163_165">
<rect width="47" height="47" fill="white" transform="translate(44 15)"/>
</clipPath>
</defs>
</svg>
