<svg width="308" height="279" viewBox="0 0 308 279" fill="none" xmlns="http://www.w3.org/2000/svg">
<path d="M83.6711 224.103C40.929 183.494 40.2497 116.995 82.1538 75.5735C124.058 34.1521 192.677 33.4938 235.419 74.1031C278.161 114.712 278.841 181.211 236.937 222.633C195.032 264.054 126.413 264.713 83.6711 224.103Z" fill="url(#paint0_linear_449_326)"/>
<path d="M101.109 208.78C68.2311 182.707 67.7941 139.927 100.133 113.228C132.472 86.5289 185.341 86.0217 218.219 112.095C251.097 138.168 251.534 180.948 219.195 207.647C186.856 234.346 133.987 234.853 101.109 208.78Z" fill="url(#paint1_radial_449_326)"/>
<path d="M83.2885 186.623C40.7212 163.124 40.3253 124.366 82.4042 100.055C124.483 75.7441 193.102 75.0858 235.67 98.5849C278.237 122.084 278.633 160.842 236.554 185.153C194.475 209.464 125.856 210.122 83.2885 186.623Z" fill="url(#paint2_radial_449_326)"/>
<path d="M83.3727 186.471C62.1202 174.738 51.4376 159.222 51.2785 143.642C51.1193 128.063 61.4828 112.344 82.4916 100.206C103.499 88.0694 131.142 81.8315 158.856 81.5656C186.569 81.2998 214.334 87.0061 235.585 98.7376C256.838 110.47 267.521 125.987 267.68 141.566C267.839 157.146 257.475 172.864 236.467 185.002C215.459 197.139 187.816 203.377 160.103 203.643C132.389 203.908 104.624 198.202 83.3727 186.471Z" stroke="url(#paint3_linear_449_326)" stroke-opacity="0.2" stroke-width="0.348891"/>
<mask id="path-5-inside-1_449_326" fill="white">
<path fill-rule="evenodd" clip-rule="evenodd" d="M86.6999 164.701C90.4186 168.154 95.1041 171.391 100.755 174.3C133.539 191.179 186.408 190.672 218.84 173.167C224.43 170.15 229.048 166.825 232.695 163.302C260.823 182.782 258.501 211.29 225.535 229.722C189.748 249.731 131.401 250.291 95.2129 230.972C61.8754 213.175 58.9727 184.717 86.6999 164.701Z"/>
</mask>
<path fill-rule="evenodd" clip-rule="evenodd" d="M86.6999 164.701C90.4186 168.154 95.1041 171.391 100.755 174.3C133.539 191.179 186.408 190.672 218.84 173.167C224.43 170.15 229.048 166.825 232.695 163.302C260.823 182.782 258.501 211.29 225.535 229.722C189.748 249.731 131.401 250.291 95.2129 230.972C61.8754 213.175 58.9727 184.717 86.6999 164.701Z" fill="url(#paint4_linear_449_326)"/>
<path d="M100.755 174.3L100.915 173.99L100.915 173.99L100.755 174.3ZM86.6999 164.701L86.9372 164.445L86.7275 164.25L86.4956 164.418L86.6999 164.701ZM218.84 173.167L218.674 172.86L218.84 173.167ZM232.695 163.302L232.893 163.015L232.658 162.852L232.452 163.051L232.695 163.302ZM225.535 229.722L225.705 230.026L225.705 230.026L225.535 229.722ZM95.2129 230.972L95.377 230.664L95.377 230.664L95.2129 230.972ZM100.915 173.99C95.2869 171.092 90.6288 167.874 86.9372 164.445L86.4626 164.956C90.2084 168.435 94.9212 171.689 100.596 174.61L100.915 173.99ZM218.674 172.86C202.52 181.579 181.255 186.074 159.926 186.279C138.597 186.483 117.244 182.397 100.915 173.99L100.596 174.61C117.051 183.082 138.523 187.182 159.933 186.977C181.343 186.771 202.727 182.26 219.006 173.474L218.674 172.86ZM232.452 163.051C228.832 166.549 224.241 169.856 218.674 172.86L219.006 173.474C224.619 170.445 229.264 167.102 232.937 163.553L232.452 163.051ZM232.496 163.589C246.495 173.283 252.847 185.171 251.678 196.87C250.509 208.58 241.793 220.232 225.365 229.417L225.705 230.026C242.243 220.78 251.172 208.962 252.373 196.94C253.574 184.907 247.023 172.801 232.893 163.015L232.496 163.589ZM225.365 229.417C207.535 239.386 184.063 244.52 160.521 244.746C136.98 244.972 113.407 240.289 95.377 230.664L95.0487 231.28C113.207 240.974 136.902 245.67 160.528 245.444C184.154 245.217 207.749 240.067 225.705 230.026L225.365 229.417ZM95.377 230.664C78.7637 221.796 69.8117 210.313 68.4035 198.627C66.9967 186.953 73.1053 174.945 86.9042 164.984L86.4956 164.418C72.5674 174.473 66.2637 186.702 67.7108 198.71C69.1565 210.707 78.3246 222.352 95.0487 231.28L95.377 230.664Z" fill="url(#paint5_linear_449_326)" fill-opacity="0.3" mask="url(#path-5-inside-1_449_326)"/>
<path d="M100.751 174.297C67.967 157.418 67.6822 129.544 100.115 112.04C132.548 94.5347 185.416 94.0275 218.2 110.907C250.984 127.786 251.269 155.66 218.836 173.165C186.403 190.669 133.535 191.177 100.751 174.297Z" fill="url(#paint6_radial_449_326)"/>
<g style="mix-blend-mode:lighten">
<path d="M291.816 133.996C291.483 212.168 242.485 275.271 159.669 274.94C76.8529 274.609 44.7442 212.168 45.0766 133.996C45.409 55.8238 78.0564 35.9684 160.872 36.2991C243.689 36.6298 292.148 55.8236 291.816 133.996Z" fill="url(#paint7_radial_449_326)" fill-opacity="0.6"/>
</g>
<g filter="url(#filter0_d_449_326)">
<path d="M208.514 100.582L165.855 131.149L173.744 113.115L208.514 100.582Z" fill="#E2761B"/>
<path d="M110.035 100.582L152.35 131.438L144.848 113.115L110.035 100.582ZM193.165 171.436L181.804 188.229L206.113 194.682L213.101 171.808L193.165 171.436ZM105.533 171.808L112.478 194.682L136.787 188.229L125.426 171.436L105.533 171.808Z" fill="#E4761B"/>
<path d="M135.415 143.061L128.642 152.947L152.779 153.981L151.922 128.957L135.415 143.061ZM183.133 143.061L166.413 128.667L165.855 153.981L189.95 152.947L183.133 143.061ZM136.787 188.229L151.278 181.404L138.76 171.974L136.787 188.229ZM167.27 181.404L181.804 188.229L179.789 171.974L167.27 181.404Z" fill="#E4761B"/>
<path d="M181.804 188.229L167.27 181.404L168.428 190.545L168.299 194.392L181.804 188.229ZM136.787 188.229L150.292 194.392L150.207 190.545L151.278 181.404L136.787 188.229Z" fill="#D7C1B3"/>
<path d="M150.507 165.935L138.417 162.502L146.948 158.738L150.507 165.935ZM168.042 165.935L171.6 158.738L180.175 162.502L168.042 165.935Z" fill="#233447"/>
<path d="M136.787 188.229L138.845 171.436L125.426 171.808L136.787 188.229ZM179.746 171.436L181.804 188.229L193.165 171.808L179.746 171.436ZM189.95 152.947L165.855 153.981L168.085 165.935L171.643 158.738L180.218 162.502L189.95 152.947ZM138.417 162.502L146.991 158.738L150.507 165.935L152.779 153.981L128.642 152.947L138.417 162.502Z" fill="#CD6116"/>
<path d="M128.642 152.947L138.76 171.974L138.417 162.502L128.642 152.947ZM180.218 162.502L179.789 171.974L189.95 152.947L180.218 162.502ZM152.779 153.981L150.507 165.935L153.336 180.039L153.979 161.468L152.779 153.981ZM165.855 153.981L164.698 161.426L165.212 180.039L168.085 165.935L165.855 153.981Z" fill="#E4751F"/>
<path d="M168.085 165.935L165.212 180.039L167.27 181.404L179.789 171.974L180.218 162.502L168.085 165.935ZM138.417 162.502L138.76 171.974L151.279 181.404L153.336 180.039L150.507 165.935L138.417 162.502Z" fill="#F6851B"/>
<path d="M168.299 194.392L168.428 190.546L167.356 189.636L151.193 189.636L150.207 190.546L150.292 194.392L136.787 188.229L141.503 191.952L151.064 198.363L167.484 198.363L177.088 191.952L181.804 188.229L168.299 194.392Z" fill="#C0AD9E"/>
<path d="M167.27 181.404L165.212 180.039L153.336 180.039L151.278 181.404L150.207 190.545L151.193 189.635L167.356 189.635L168.428 190.545L167.27 181.404Z" fill="#161616"/>
<path d="M210.315 133.134L213.959 116.258L208.514 100.582L167.27 130.115L183.133 143.061L205.556 149.39L210.529 143.806L208.385 142.317L211.815 139.297L209.157 137.312L212.587 134.789L210.315 133.134ZM104.633 116.258L108.277 133.134L105.962 134.789L109.392 137.312L106.776 139.297L110.206 142.317L108.062 143.806L112.993 149.39L135.415 143.061L151.278 130.115L110.035 100.582L104.633 116.258Z" fill="#763D16"/>
<path d="M205.556 149.39L183.133 143.061L189.95 152.947L179.789 171.974L193.165 171.808L213.101 171.808L205.556 149.39ZM135.416 143.061L112.993 149.39L105.533 171.808L125.426 171.808L138.76 171.974L128.642 152.947L135.416 143.061ZM165.855 153.981L167.27 130.115L173.787 113.115L144.848 113.115L151.279 130.115L152.779 153.981L153.294 161.509L153.336 180.039L165.212 180.039L165.298 161.509L165.855 153.981Z" fill="#F6851B"/>
</g>
<path d="M81.1687 200.928C51.2275 203.534 28.3808 194.804 15.5998 178.654C2.82094 162.507 0.0467482 138.868 10.4043 111.527C20.7629 84.1836 42.2839 58.3545 68.7187 38.7072C95.1531 19.0601 126.477 5.61295 156.418 3.00737C186.359 0.401808 209.206 9.13118 221.987 25.2813C234.766 41.4287 237.54 65.0677 227.182 92.4085C216.824 119.752 195.303 145.581 168.868 165.228C142.434 184.875 111.11 198.323 81.1687 200.928Z" stroke="url(#paint8_linear_449_326)" stroke-width="0.581485"/>
<path d="M109.61 267.728C71.8509 270.331 43.2176 259.038 27.4385 238.69C11.66 218.342 8.72321 188.925 22.388 155.253C36.0531 121.581 63.7308 90.0377 97.4358 66.2611C131.141 42.4845 170.868 26.4782 208.627 23.8751C246.386 21.2719 275.02 32.5647 290.799 52.913C306.577 73.2606 309.514 102.678 295.849 136.35C282.184 170.022 254.506 201.565 220.801 225.342C187.097 249.119 147.37 265.125 109.61 267.728Z" stroke="url(#paint9_linear_449_326)" stroke-width="0.116297"/>
<defs>
<filter id="filter0_d_449_326" x="32.7014" y="19.8704" width="273.191" height="268.042" filterUnits="userSpaceOnUse" color-interpolation-filters="sRGB">
<feFlood flood-opacity="0" result="BackgroundImageFix"/>
<feColorMatrix in="SourceAlpha" type="matrix" values="0 0 0 0 0 0 0 0 0 0 0 0 0 0 0 0 0 0 127 0" result="hardAlpha"/>
<feOffset dx="10" dy="4"/>
<feGaussianBlur stdDeviation="35.5"/>
<feComposite in2="hardAlpha" operator="out"/>
<feColorMatrix type="matrix" values="0 0 0 0 0 0 0 0 0 0 0 0 0 0 0 0 0 0 0.81 0"/>
<feBlend mode="normal" in2="BackgroundImageFix" result="effect1_dropShadow_449_326"/>
<feBlend mode="normal" in="SourceGraphic" in2="effect1_dropShadow_449_326" result="shape"/>
</filter>
<linearGradient id="paint0_linear_449_326" x1="203.888" y1="244.416" x2="161.63" y2="109.913" gradientUnits="userSpaceOnUse">
<stop stop-color="white"/>
<stop offset="0.165772" stop-color="#71FFF6"/>
<stop offset="0.552083" stop-color="#4F75FF"/>
<stop offset="1" stop-color="#5E64FF" stop-opacity="0"/>
</linearGradient>
<radialGradient id="paint1_radial_449_326" cx="0" cy="0" r="1" gradientUnits="userSpaceOnUse" gradientTransform="translate(140.971 135.617) rotate(51.0807) scale(94.7061 113.838)">
<stop offset="0.40625" stop-color="#3330B1" stop-opacity="0.1"/>
<stop offset="0.678936" stop-color="#58FFFF" stop-opacity="0.5"/>
<stop offset="1" stop-color="white"/>
</radialGradient>
<radialGradient id="paint2_radial_449_326" cx="0" cy="0" r="1" gradientUnits="userSpaceOnUse" gradientTransform="translate(217.624 188.84) rotate(-107.244) scale(119.379 209.874)">
<stop stop-color="white"/>
<stop offset="0.298196" stop-color="#5EF5FF"/>
<stop offset="0.538073" stop-color="#3432BD"/>
<stop offset="0.914407" stop-color="#171940"/>
</radialGradient>
<linearGradient id="paint3_linear_449_326" x1="226.174" y1="191.023" x2="147.851" y2="84.6102" gradientUnits="userSpaceOnUse">
<stop stop-color="white"/>
<stop offset="1" stop-color="white" stop-opacity="0"/>
</linearGradient>
<linearGradient id="paint4_linear_449_326" x1="195.093" y1="233.613" x2="133.303" y2="166.499" gradientUnits="userSpaceOnUse">
<stop stop-color="white"/>
<stop offset="0.502014" stop-color="#4FFFF4" stop-opacity="0.1"/>
<stop offset="1" stop-color="#5ECFFF" stop-opacity="0.6"/>
</linearGradient>
<linearGradient id="paint5_linear_449_326" x1="231.55" y1="252.075" x2="66.4312" y2="129.978" gradientUnits="userSpaceOnUse">
<stop stop-color="white"/>
<stop offset="1" stop-color="white" stop-opacity="0"/>
</linearGradient>
<radialGradient id="paint6_radial_449_326" cx="0" cy="0" r="1" gradientUnits="userSpaceOnUse" gradientTransform="translate(145.194 57.6198) rotate(73.7708) scale(121.938 220.334)">
<stop stop-color="#3330B1"/>
<stop offset="1" stop-color="#0A0926"/>
</radialGradient>
<radialGradient id="paint7_radial_449_326" cx="0" cy="0" r="1" gradientUnits="userSpaceOnUse" gradientTransform="translate(160.228 143.43) rotate(80.7325) scale(112.61 119.182)">
<stop offset="0.0729167" stop-color="white"/>
<stop offset="0.507801" stop-color="#C173FF" stop-opacity="0.9"/>
<stop offset="1" stop-color="#0E26FF" stop-opacity="0"/>
</radialGradient>
<linearGradient id="paint8_linear_449_326" x1="44.3928" y1="7.95455" x2="122.099" y2="112.506" gradientUnits="userSpaceOnUse">
<stop stop-color="#8FBCFF" stop-opacity="0.6"/>
<stop offset="1" stop-color="#8FBCFF" stop-opacity="0"/>
</linearGradient>
<linearGradient id="paint9_linear_449_326" x1="92.0386" y1="59.2969" x2="213.07" y2="230.867" gradientUnits="userSpaceOnUse">
<stop stop-color="#8FBCFF" stop-opacity="0.6"/>
<stop offset="1" stop-color="#8FBCFF" stop-opacity="0"/>
</linearGradient>
</defs>
</svg>
