<svg width="1944" height="748" viewBox="0 0 1944 748" fill="none" xmlns="http://www.w3.org/2000/svg">
<path d="M1 268.367C132.809 155.668 431.024 -52.9902 569.407 13.9626C742.386 97.6536 846.787 384.118 1156.92 268.367C1467.05 152.615 1535.97 309.171 1649.58 170.103C1763.2 31.034 1912.64 334.57 1933.79 343.314" stroke="url(#paint0_linear_64_103)"/>
<path d="M10.2109 655.595C107.447 666.143 321.777 667.004 401.204 586.061C500.488 484.882 673.807 621.036 782.644 655.595C891.481 690.154 1362.99 427.006 1393.7 586.061C1424.4 745.115 1637.3 805.489 1706.22 678.495C1761.35 576.9 1887.05 574.541 1943 586.061" stroke="url(#paint1_linear_64_103)"/>
<path d="M1.4375 283.219C68.8342 230.055 181.427 153.583 288.379 94.6019C396.276 34.6574 508.481 7.40142 579.56 40.9294C749.484 122.281 871.367 382.574 1168.19 279.908C1465.02 177.242 1540.8 329.218 1652.28 190.725C1763.11 53.4404 1911.42 342.41 1934.23 351.286" stroke="url(#paint2_linear_64_103)"/>
<path d="M1.87891 298.376C70.7676 248.398 188.447 175.792 294.023 115.713C401.489 53.7071 516.75 34.6217 589.717 68.2012C756.587 147.213 895.951 381.334 1179.47 291.754C1462.99 202.174 1545.62 349.57 1654.98 211.652C1763.02 76.152 1910.2 350.555 1934.67 359.563" stroke="url(#paint3_linear_64_103)"/>
<path d="M2.31445 313.882C72.6951 267.089 195.462 198.35 299.661 137.173C406.696 73.105 525.013 62.1901 599.868 95.8212C763.683 172.493 920.529 380.442 1190.74 303.948C1460.96 227.455 1550.45 370.271 1657.67 232.927C1762.93 99.2117 1908.98 359.048 1935.1 368.189" stroke="url(#paint4_linear_64_103)"/>
<path d="M2.75391 329.781C74.6266 286.174 202.48 221.302 305.303 159.027C411.908 92.897 533.28 90.1525 610.023 123.835C770.784 198.168 945.111 379.944 1202.02 316.537C1458.93 253.129 1555.27 391.365 1660.37 254.596C1762.85 122.665 1907.76 367.936 1935.54 377.208" stroke="url(#paint5_linear_64_103)"/>
<path d="M3.19141 346.09C76.5561 305.669 209.496 244.663 310.943 181.29C417.117 113.098 541.545 118.524 620.176 152.258C777.883 224.251 969.691 379.856 1213.29 329.534C1456.9 279.213 1560.1 412.868 1663.07 276.675C1762.76 146.528 1906.54 377.232 1935.98 386.637" stroke="url(#paint6_linear_64_103)"/>
<path d="M3.63281 362.813C78.4895 325.577 216.517 268.438 316.587 203.966C422.331 133.713 549.814 147.31 630.333 181.096C784.985 250.749 994.275 380.181 1224.57 342.946C1454.87 305.71 1564.92 434.786 1665.77 299.167C1762.67 170.805 1905.33 386.943 1936.42 396.479" stroke="url(#paint7_linear_64_103)"/>
<path d="M4.07031 379.92C80.419 345.87 223.533 292.597 322.227 227.028C427.54 154.713 558.079 176.48 640.486 210.317C792.084 277.631 1018.86 380.891 1235.85 356.742C1452.84 332.592 1569.75 457.088 1668.46 322.044C1762.58 195.467 1904.11 397.038 1936.86 406.707" stroke="url(#paint8_linear_64_103)"/>
<path d="M4.50977 397.381C82.3504 366.516 230.551 317.11 327.869 250.442C432.751 176.066 566.347 206.004 650.641 239.892C799.185 304.866 1043.44 381.955 1247.12 370.891C1450.81 359.828 1574.57 479.743 1671.16 345.274C1762.5 220.481 1902.89 407.486 1937.3 417.287" stroke="url(#paint9_linear_64_103)"/>
<path d="M4.94727 415.145C84.2799 387.466 237.567 341.927 333.509 274.161C437.961 197.723 574.612 235.831 660.794 269.771C806.283 332.406 1068.02 383.322 1258.4 385.345C1448.78 387.367 1579.4 502.702 1673.86 368.809C1762.41 245.8 1901.67 418.238 1937.74 428.172" stroke="url(#paint10_linear_64_103)"/>
<path d="M5.38672 433.176C86.2113 408.683 244.586 367.01 339.151 298.146C443.172 219.646 582.879 265.925 670.949 299.917C813.384 360.211 1092.6 384.956 1269.67 400.064C1446.75 415.173 1584.22 525.928 1676.55 392.609C1762.32 271.385 1900.45 429.257 1938.18 439.322" stroke="url(#paint11_linear_64_103)"/>
<path d="M5.82422 451.427C88.1408 430.12 251.602 392.314 344.791 322.352C448.382 241.79 591.144 296.239 681.102 330.283C820.482 388.238 1117.18 386.81 1280.95 415.005C1444.71 443.199 1589.05 549.374 1679.25 416.63C1762.23 297.191 1899.23 440.496 1938.61 450.694" stroke="url(#paint12_linear_64_103)"/>
<path d="M6.26367 469.871C90.0723 451.749 258.62 417.809 350.433 346.749C453.593 264.126 599.411 326.746 691.257 360.841C827.583 416.456 1141.76 388.857 1292.22 430.137C1442.68 471.417 1593.87 573.013 1681.95 440.844C1762.15 323.189 1898.01 451.927 1939.05 462.257" stroke="url(#paint13_linear_64_103)"/>
<path d="M6.70312 488.471C92.0037 473.535 265.639 443.462 356.075 371.304C458.804 286.619 607.678 357.409 701.412 391.555C834.684 444.831 1166.34 391.06 1303.5 445.426C1440.65 499.793 1598.7 596.807 1684.65 465.214C1762.06 349.343 1896.8 463.515 1939.49 473.977" stroke="url(#paint14_linear_64_103)"/>
<path d="M7.14062 507.206C93.9332 495.455 272.655 469.249 361.715 395.993C464.014 309.246 615.943 388.207 711.565 422.405C841.782 473.341 1190.92 393.398 1314.77 460.85C1438.62 528.303 1603.52 620.738 1687.34 489.719C1761.97 375.633 1895.58 475.238 1939.93 485.833" stroke="url(#paint15_linear_64_103)"/>
<path d="M7.57812 526.06C95.8627 517.494 279.671 495.155 367.356 420.8C469.223 331.992 624.209 419.123 721.718 453.373C848.881 501.969 1215.5 395.854 1326.05 476.392C1436.59 556.931 1608.35 644.785 1690.04 514.342C1761.88 402.04 1894.36 487.079 1940.37 497.806" stroke="url(#paint16_linear_64_103)"/>
<path d="M8.02148 545.008C97.798 539.628 286.694 521.155 373.002 445.703C474.438 354.833 632.48 450.134 731.877 484.435C855.985 530.692 1240.09 398.405 1337.33 492.029C1434.56 585.654 1613.18 668.928 1692.74 539.059C1761.8 428.542 1893.14 499.015 1940.81 509.874" stroke="url(#paint17_linear_64_103)"/>
<path d="M8.45703 564.043C99.7256 561.849 293.708 547.243 378.64 470.692C479.646 377.76 640.743 481.232 742.028 515.585C863.082 559.502 1264.67 401.043 1348.6 507.753C1432.53 614.464 1618 693.158 1695.43 563.864C1761.71 455.132 1891.92 511.038 1941.25 522.029" stroke="url(#paint18_linear_64_103)"/>
<path d="M8.89453 583.148C101.655 584.139 300.724 573.399 384.28 495.751C484.855 400.757 649.008 512.4 752.181 546.804C870.181 588.382 1289.25 403.75 1359.87 523.547C1430.5 643.343 1622.83 717.458 1698.13 588.739C1761.62 481.79 1890.7 523.13 1941.68 534.253" stroke="url(#paint19_linear_64_103)"/>
<path d="M9.33594 602.318C103.588 606.495 307.744 599.622 389.924 520.876C490.069 423.82 657.277 543.633 762.338 578.089C877.283 617.328 1313.83 406.524 1371.15 539.406C1428.47 672.289 1627.65 741.823 1700.83 613.679C1761.53 508.515 1889.49 535.289 1942.12 546.544" stroke="url(#paint20_linear_64_103)"/>
<path d="M9.77344 623.352C105.518 630.714 314.761 627.708 395.564 547.863C495.278 448.746 665.542 576.73 772.491 611.237C884.382 648.136 1338.41 411.16 1382.42 557.129C1426.44 703.097 1632.48 768.052 1703.52 640.483C1761.44 537.103 1888.27 549.31 1942.56 560.698" stroke="url(#paint21_linear_64_103)"/>
<defs>
<linearGradient id="paint0_linear_64_103" x1="-28.7352" y1="40.1215" x2="2295.98" y2="243.235" gradientUnits="userSpaceOnUse">
<stop stop-color="#416CCA"/>
<stop offset="1" stop-color="#7852CB"/>
</linearGradient>
<linearGradient id="paint1_linear_64_103" x1="-19.5243" y1="558.814" x2="2277.42" y2="882.149" gradientUnits="userSpaceOnUse">
<stop stop-color="#416CCA"/>
<stop offset="1" stop-color="#7852CB"/>
</linearGradient>
<linearGradient id="paint2_linear_64_103" x1="-28.2977" y1="63.534" x2="2294.48" y2="277.368" gradientUnits="userSpaceOnUse">
<stop stop-color="#416CCA"/>
<stop offset="1" stop-color="#7852CB"/>
</linearGradient>
<linearGradient id="paint3_linear_64_103" x1="-27.8563" y1="86.9841" x2="2292.69" y2="312.504" gradientUnits="userSpaceOnUse">
<stop stop-color="#416CCA"/>
<stop offset="1" stop-color="#7852CB"/>
</linearGradient>
<linearGradient id="paint4_linear_64_103" x1="-27.4207" y1="110.471" x2="2290.55" y2="348.732" gradientUnits="userSpaceOnUse">
<stop stop-color="#416CCA"/>
<stop offset="1" stop-color="#7852CB"/>
</linearGradient>
<linearGradient id="paint5_linear_64_103" x1="-26.9813" y1="134.006" x2="2288.01" y2="386.164" gradientUnits="userSpaceOnUse">
<stop stop-color="#416CCA"/>
<stop offset="1" stop-color="#7852CB"/>
</linearGradient>
<linearGradient id="paint6_linear_64_103" x1="-26.5438" y1="157.585" x2="2285" y2="424.921" gradientUnits="userSpaceOnUse">
<stop stop-color="#416CCA"/>
<stop offset="1" stop-color="#7852CB"/>
</linearGradient>
<linearGradient id="paint7_linear_64_103" x1="-26.1024" y1="181.214" x2="2281.42" y2="465.176" gradientUnits="userSpaceOnUse">
<stop stop-color="#416CCA"/>
<stop offset="1" stop-color="#7852CB"/>
</linearGradient>
<linearGradient id="paint8_linear_64_103" x1="-25.6649" y1="204.885" x2="2277.12" y2="507.14" gradientUnits="userSpaceOnUse">
<stop stop-color="#416CCA"/>
<stop offset="1" stop-color="#7852CB"/>
</linearGradient>
<linearGradient id="paint9_linear_64_103" x1="-25.2254" y1="228.598" x2="2271.96" y2="551.103" gradientUnits="userSpaceOnUse">
<stop stop-color="#416CCA"/>
<stop offset="1" stop-color="#7852CB"/>
</linearGradient>
<linearGradient id="paint10_linear_64_103" x1="-24.7879" y1="252.945" x2="2268.28" y2="589.487" gradientUnits="userSpaceOnUse">
<stop stop-color="#416CCA"/>
<stop offset="1" stop-color="#7852CB"/>
</linearGradient>
<linearGradient id="paint11_linear_64_103" x1="-24.3485" y1="278.206" x2="2268.1" y2="616.793" gradientUnits="userSpaceOnUse">
<stop stop-color="#416CCA"/>
<stop offset="1" stop-color="#7852CB"/>
</linearGradient>
<linearGradient id="paint12_linear_64_103" x1="-23.911" y1="303.49" x2="2268.03" y2="643.785" gradientUnits="userSpaceOnUse">
<stop stop-color="#416CCA"/>
<stop offset="1" stop-color="#7852CB"/>
</linearGradient>
<linearGradient id="paint13_linear_64_103" x1="-23.4715" y1="328.798" x2="2268.03" y2="670.509" gradientUnits="userSpaceOnUse">
<stop stop-color="#416CCA"/>
<stop offset="1" stop-color="#7852CB"/>
</linearGradient>
<linearGradient id="paint14_linear_64_103" x1="-23.0321" y1="354.122" x2="2268.12" y2="696.998" gradientUnits="userSpaceOnUse">
<stop stop-color="#416CCA"/>
<stop offset="1" stop-color="#7852CB"/>
</linearGradient>
<linearGradient id="paint15_linear_64_103" x1="-22.5946" y1="379.46" x2="2268.26" y2="723.286" gradientUnits="userSpaceOnUse">
<stop stop-color="#416CCA"/>
<stop offset="1" stop-color="#7852CB"/>
</linearGradient>
<linearGradient id="paint16_linear_64_103" x1="-22.1571" y1="404.815" x2="2268.47" y2="749.405" gradientUnits="userSpaceOnUse">
<stop stop-color="#416CCA"/>
<stop offset="1" stop-color="#7852CB"/>
</linearGradient>
<linearGradient id="paint17_linear_64_103" x1="-21.7137" y1="430.179" x2="2268.72" y2="775.373" gradientUnits="userSpaceOnUse">
<stop stop-color="#416CCA"/>
<stop offset="1" stop-color="#7852CB"/>
</linearGradient>
<linearGradient id="paint18_linear_64_103" x1="-21.2782" y1="455.555" x2="2269.01" y2="801.215" gradientUnits="userSpaceOnUse">
<stop stop-color="#416CCA"/>
<stop offset="1" stop-color="#7852CB"/>
</linearGradient>
<linearGradient id="paint19_linear_64_103" x1="-20.8407" y1="480.936" x2="2269.35" y2="826.942" gradientUnits="userSpaceOnUse">
<stop stop-color="#416CCA"/>
<stop offset="1" stop-color="#7852CB"/>
</linearGradient>
<linearGradient id="paint20_linear_64_103" x1="-20.3993" y1="506.327" x2="2269.71" y2="852.574" gradientUnits="userSpaceOnUse">
<stop stop-color="#416CCA"/>
<stop offset="1" stop-color="#7852CB"/>
</linearGradient>
<linearGradient id="paint21_linear_64_103" x1="-19.9618" y1="531.929" x2="2271.03" y2="875.32" gradientUnits="userSpaceOnUse">
<stop stop-color="#416CCA"/>
<stop offset="1" stop-color="#7852CB"/>
</linearGradient>
</defs>
</svg>
